<svg height="503" viewBox="0 0 1111 503" width="1111" xmlns="http://www.w3.org/2000/svg"><g fill="#fff" fill-rule="evenodd" opacity=".600679"><path d="m670.6681 350.4778c-.001-.004-.004-.007-.004-.011-1.618-36.521 50.715-44.368 68.586-15.798 0 0 4.306-18.318 24.326-18.754 20.022-.434 25.339 12.192 25.339 12.192s4.692-23.076 34.098-23.512c23.156-.343 32.88 25.032 32.88 25.032s27.29-13.108 30.187 12.773c.338 3.017.128 5.693-.482 8.078 0 0 21.282-3.134 27.426 9.888 1.707 3.617 1.997 6.759 1.523 9.411-1.096 6.142-6.669 10.478-12.909 10.478h-236.183c-10.917 0-18.226-11.713-12.933-21.26.54-.976 1.181-1.863 1.939-2.624 6.822-6.853 16.207-5.893 16.207-5.893"/><path d="m382.6388 67.344c-.75-1.233-1.797-2.461-3.239-3.608-4.75-3.776-11.363 0-11.363 0-.112-8.985-9.425-17.632-22.314-18.214-5.061-.229-8.621.831-11.012 2.067-.787-8.233-7.72-14.673-16.16-14.673-6.762 0-12.557 4.134-14.999 10.012-2.333-1.596-5.649-2.868-10.294-2.868-12.449 0-17.138 10.588-17.138 10.588s-14.875-2.888-16.33 9.384c-.158 1.33-.113 2.567.099 3.704 0 0-4.336-.62-8.116 5.465-.078.126-.153.253-.221.38-1.936 3.556.787 7.884 4.836 7.884h120.551c5.195 0 8.4-5.684 5.7-10.121"/><path d="m114.757 54.1565s3.754-2.593 8.177.683c4.209 3.117 3.129 7.907 1.751 10.434-2.647 4.851-14.813 3.855-23.216 3.606-8.198-.244-19.387 1.611-23.083-3.301-6.177-8.21 1.927-16.373 6.603-16.204 5.057.181 8.053 2.963 8.053 2.963s.835-13.07 13.061-10.831c11.634 2.13 8.654 12.65 8.654 12.65"/><path d="m801.8615 160.1682c-5.49-4.065-10.149-.847-10.149-.847s3.7-13.059-10.745-15.704c-4.906-.898-8.927 2.145-11.321 4.029-1.344-1.681-5.19-2.803-7.591-3.243-13.145-2.407-14.22 12.329-14.22 12.329-1.113-.868-4.517-3.166-9.598-3.348-5.807-.209-15.865 9.925-8.198 20.115 4.266 5.671 16.574 4.079 26.462 4.07 1.918.177 14.815.039 22.851.223 9.796.572 21.256 1.614 24.683-4.671 1.711-3.138 3.052-9.083-2.174-12.953"/><path d="m200.507 177.5569c-5.49-4.065-10.15-.847-10.15-.847s3.7-13.059-10.744-15.704c-4.907-.898-8.928 2.145-11.322 4.029-1.344-1.681-5.19-2.803-7.59-3.243-13.145-2.407-14.221 12.329-14.221 12.329-1.113-.868-4.516-3.166-9.598-3.348-5.806-.209-15.865 9.924-8.198 20.115 4.266 5.671 16.574 4.079 26.463 4.07 1.918.177 14.815.039 22.85.223 9.796.572 21.256 1.614 24.683-4.671 1.711-3.138 3.052-9.083-2.173-12.953"/><path d="m152.172 481.1204c.75-1.233 1.797-2.461 3.239-3.608 4.75-3.776 11.363 0 11.363 0 .112-8.985 9.425-17.632 22.314-18.214 5.061-.229 8.62.831 11.012 2.067.787-8.233 7.72-14.673 16.16-14.673 6.762 0 12.557 4.134 14.999 10.012 2.333-1.596 5.648-2.868 10.294-2.868 12.449 0 17.138 10.588 17.138 10.588s14.875-2.888 16.33 9.383c.157 1.331.113 2.568-.099 3.705 0 0 4.336-.62 8.116 5.465.078.126.153.253.221.38 1.936 3.556-.787 7.884-4.836 7.884h-120.551c-5.195 0-8.4-5.684-5.7-10.121"/><path d="m199.7794 307.7542c-1.134-1.862-2.714-3.718-4.894-5.449-7.174-5.704-17.163 0-17.163 0-.17-13.572-14.237-26.635-33.706-27.514-7.644-.346-13.021 1.255-16.633 3.123-1.189-12.436-11.663-22.164-24.411-22.164-10.214 0-18.966 6.245-22.656 15.124-3.524-2.41-8.533-4.334-15.549-4.334-18.804 0-25.887 15.993-25.887 15.993s-22.469-4.361-24.666 14.176c-.239 2.009-.171 3.878.149 5.596 0 0-6.55-.936-12.26 8.255-.119.191-.23.382-.334.573-2.926 5.371 1.19 11.909 7.306 11.909h182.094c7.846 0 12.689-8.585 8.61-15.288"/><path d="m618.6124 476.5354c0-.003-.002-.006-.003-.009-1.388-31.318 43.489-38.047 58.815-13.547 0 0 3.692-15.708 20.86-16.082 17.169-.373 21.728 10.454 21.728 10.454s4.025-19.788 29.241-20.161c19.857-.294 28.195 21.466 28.195 21.466s23.401-11.241 25.887 10.952c.29 2.588.109 4.882-.414 6.927 0 0 18.25-2.687 23.519 8.479 1.464 3.102 1.711 5.796 1.306 8.071-.941 5.267-5.72 8.985-11.071 8.985h-202.533c-9.361 0-15.63-10.044-11.091-18.231.464-.837 1.014-1.597 1.664-2.25 5.85-5.877 13.897-5.054 13.897-5.054"/><path d="m740.7609 40.5901c-8.638-6.396-15.97-1.333-15.97-1.333s5.823-20.546-16.902-24.707c-2.425-.444-4.617-.576-6.604-.462-2.259-8.05-9.647-13.955-18.42-13.955-8.888 0-16.36 6.061-18.51 14.277-23.07-3.623-24.666 21.293-24.666 21.293s-5.853-5.431-15.727-5.787c-9.136-.329-24.962 15.614-12.898 31.649 5.573 7.407 35.032 6.439 58.703 6.439s69.434 2.476 74.414-7.035c2.607-4.981 4.801-14.291-3.42-20.379"/><path d="m889.4249 68.7112c5.49-4.066 10.149-.848 10.149-.848s-3.7-13.058 10.745-15.703c4.906-.899 8.928 2.144 11.322 4.029 1.344-1.682 5.189-2.804 7.59-3.244 13.145-2.407 14.22 12.329 14.22 12.329 1.113-.868 4.517-3.165 9.598-3.347 5.807-.209 15.866 9.924 8.198 20.115-4.266 5.67-16.573 4.079-26.462 4.069-1.918.177-14.815.04-22.85.224-9.797.571-21.257 1.614-24.684-4.672-1.71-3.137-3.052-9.083 2.174-12.952"/><path d="m891.6544 203.1174c-.001-.003-.003-.006-.003-.01-1.455-32.82 45.574-39.872 61.635-14.196 0 0 3.869-16.462 21.861-16.854 17.991-.39 22.771 10.956 22.771 10.956s4.216-20.737 30.642-21.128c20.81-.308 29.548 22.495 29.548 22.495s24.524-11.781 27.128 11.478c.304 2.712.114 5.116-.434 7.259 0 0 19.125-2.815 24.648 8.886 1.533 3.251 1.793 6.074 1.368 8.458-.985 5.519-5.994 9.416-11.602 9.416h-212.247c-9.81 0-16.379-10.527-11.623-19.107.487-.876 1.063-1.673 1.744-2.357 6.13-6.158 14.564-5.296 14.564-5.296"/></g></svg>