<svg xmlns="http://www.w3.org/2000/svg" xmlns:xlink="http://www.w3.org/1999/xlink" width="88" height="88" viewBox="0 0 88 88">
  <defs>
    <polygon id="driver-partner-a" points="0 0 88 0 88 88 0 88"/>
  </defs>
  <g fill="none" fill-rule="evenodd">
    <mask id="driver-partner-b" fill="#fff">
      <use xlink:href="#driver-partner-a"/>
    </mask>
    <path fill="#AFE46C" d="M24.0205778,87.2920889 C42.5088889,88.1574222 44.4786222,88.1808889 62.3372444,87.6250222 C69.1748444,87.4055111 75.6316,86.7821778 81.9426667,81.2606667 C85.5164444,78.1356889 87.3874222,71.4041778 87.5952,63.7325333 C88.1378667,43.6025333 88.1075556,42.0439556 87.6665778,23.4050667 C87.6318667,21.9374222 87.4348444,19.0686222 86.8682222,16.0531556 C86.2385333,12.6910667 85.1483111,9.1432 83.2900444,7.14315556 C76.7873333,0.144711111 70.8918222,-0.00586666667 66.8692444,0.00018083743 C65.3297333,0.00342222222 58.2428,0.00018083743 58.2428,0.00018083743 L49.9199556,0.184311111 L20.1881778,0.793466667 C20.1881778,0.793466667 7.40128889,-0.0581777778 2.68204444,11.6248 C1.70426667,14.0423556 1.0648,16.9844889 0.964577778,20.5949333 C0.845777778,24.8834667 -3.01302357e-06,54.0936 -3.01302357e-06,58.0291556 C-0.00146666667,68.7260444 1.06626667,74.4211111 5.86031111,80.0462667 C10.2671556,85.2167556 16.0116,86.9171111 24.0205778,87.2920889 Z" mask="url(#driver-partner-b)"/>
    <path fill="#000" d="M62.8941378,40.59044 C62.8941378,40.59044 68.71876,62.30444 60.7630711,67.1361289 C52.8078711,71.9683067 44.2000044,62.4388844 44.2000044,62.4388844 L53.0205378,42.1118622 L62.8941378,40.59044 Z"/>
    <path fill="#004656" d="M57.22728,43.1246444 L65.9050578,41.8344667 C68.9503467,41.3822444 70.8990578,38.3340222 70.0053689,35.387 C67.5032356,27.1355333 60.2319911,13.0838889 40.0159467,16.0886 C11.74448,20.2910889 14.5722133,43.9596667 15.3725244,49.3467333 C16.1728356,54.7333111 22.63888,75.1077556 43.5061244,72.0057556 C57.5118133,69.9240667 56.0867022,52.9464222 54.9583467,46.2471778 C54.7070578,44.7526444 55.7293244,43.3475778 57.22728,43.1246444"/>
    <path fill="#24B14C" d="M65.9043244 41.8351022L64.0397022 42.1118133C62.1217911 30.8209244 55.3966356 18.5718133 40.9939689 18.0423467 35.9031689 17.85608 31.8683689 18.4833244 28.72188 19.44008 31.7852578 17.9250133 35.5061911 16.7590133 40.0161911 16.0887467 60.23028 13.0835467 67.5049467 27.1371467 70.0036578 35.3891022 70.9017467 38.3322133 68.9535244 41.3814133 65.9043244 41.8351022M29.7468356 41.2349911C31.8847467 38.3500578 35.9552356 37.7448133 38.8391911 39.8832133 41.7231467 42.0216133 42.3279022 46.0940578 40.19048 48.97948 38.0525689 51.8639244 33.98208 52.4691689 31.0981244 50.3307689 28.2141689 48.19188 27.6089244 44.1199244 29.7468356 41.2349911"/>
    <path fill="#24B14C" d="M45.2903244,31.1774222 C37.6001022,25.4750222 26.7443244,27.0883556 21.04388,34.7815111 C16.7656133,40.5562667 16.5984133,48.0724444 20.0705022,53.9704 C20.2636133,54.2979556 20.5706356,54.6548444 20.9280133,54.9203111 C22.3702356,55.99 24.40548,55.6873778 25.47468,54.2451556 C26.2784133,53.1598222 26.3053022,51.7400889 25.6565467,50.6469333 L25.6580133,50.6459556 C23.49468,47.0037333 23.5861022,42.2698222 26.2657022,38.654 C29.8287244,33.8452889 36.6130356,32.8372 41.4197911,36.4012 C46.2265467,39.9656889 47.2346356,46.7519556 43.6711244,51.5606667 C40.9920133,55.1769778 36.4903244,56.6407111 32.3777911,55.6296889 L32.3773022,55.6311556 C31.1438356,55.3270667 29.7935244,55.7665778 28.9897911,56.8514222 C27.92108,58.2936444 28.2232133,60.3303556 29.6654356,61.3990667 C30.0228133,61.6645333 30.4540133,61.8542222 30.8236133,61.9441778 C37.4744578,63.5521333 44.61468,61.2069333 48.8934356,55.4326667 C54.59388,47.7395111 52.9805467,36.8798222 45.2903244,31.1774222"/>
    <path fill="#33BDDD" d="M44.1416311,39.2316711 L70.00532,35.3870489 C70.00532,35.3870489 75.2550089,52.5734489 70.8256756,64.0936267 C70.2390089,65.6194489 68.5205644,66.3747822 66.9966978,65.7846933 C62.0506089,63.8711822 50.9733644,59.4081156 43.0250089,54.8712267 C32.5006978,48.8652267 34.0446089,40.73256 44.1416311,39.2316711"/>
    <path fill="#006880" d="M65.9043244,41.8351022 L57.2275244,43.1247911 C55.7266356,43.3482133 54.70388,44.7527911 54.9605467,46.2487911 C55.5169022,49.58008 56.1553911,55.4526133 54.9302356,60.7756356 C50.89348,58.9804356 46.6337911,56.93688 43.0248133,54.8713244 C32.5009911,48.8653244 34.0449022,40.7346133 44.1419244,39.2337244 L70.0036578,35.3891022 C70.0036578,35.3891022 70.0153911,35.4218578 70.0320133,35.4883467 C70.8567689,38.4011467 68.9197911,41.3867911 65.9043244,41.8351022"/>
    <path fill="#008AAA" d="M40.1892089 48.9817778C39.5761422 49.8089778 38.8105422 50.446 37.9613422 50.8889333 34.5107644 46.8800444 35.3452978 42.7714222 39.6445867 40.5904889 41.8147644 42.8349778 42.1090756 46.3906667 40.1892089 48.9817778M48.8939733 55.4304178C48.4241511 56.0649956 47.9201067 56.6560622 47.3833067 57.2104622L47.3764622 57.2119289C45.8584622 56.4389956 44.4010844 55.65824 43.0248622 54.8711289 42.4386844 54.5386844 41.8921067 54.1935289 41.3792622 53.8429956 42.2348178 53.2133067 43.0092178 52.4511289 43.6687289 51.56184 46.4309511 47.8335733 46.44464 42.92464 44.0813511 39.2428178L50.87984 38.2317956C53.2504622 43.7229956 52.7117067 50.2863289 48.8939733 55.4304178"/>
    <path fill="#000" d="M44.5584089,41.0545422 C47.3807644,40.6350756 50.20312,40.2156089 53.0254756,39.7961422 C57.50272,39.1302756 61.9799644,38.4648978 66.4572089,37.79952 C67.4921867,37.64552 68.5271644,37.49152 69.5621422,37.33752 C70.1981867,37.2431644 70.54872,36.43992 70.3932533,35.8737867 C70.2060089,35.1922756 69.56752,34.9478311 68.92952,35.0426756 C66.1071644,35.4621422 63.2848089,35.8816089 60.4624533,36.3010756 L47.0302311,38.2976978 C45.9952533,38.4516978 44.9607644,38.6052089 43.9257867,38.7596978 C43.2892533,38.8540533 42.93872,39.6577867 43.0941867,40.2234311 C43.28192,40.9049422 43.91992,41.1493867 44.5584089,41.0545422"/>
    <path fill="#004656" d="M63.294,64.3239911 C60.8784,63.3506133 57.9656,62.1323022 54.9237333,60.7771022 C56.1552444,55.4604356 55.5226222,49.5859467 54.9574667,46.2497689 C54.7056889,44.7523022 55.7264889,43.34968 57.2308,43.12528 L63.2871556,42.2193689 C64.2605333,46.50888 66.4786222,58.2446578 63.294,64.3239911"/>
  </g>
</svg>
