<svg xmlns="http://www.w3.org/2000/svg" xmlns:xlink="http://www.w3.org/1999/xlink" width="88" height="88" viewBox="0 0 88 88">
  <defs>
    <polygon id="merchant-partner-a" points="0 0 88 0 88 88 0 88"/>
  </defs>
  <g fill="none" fill-rule="evenodd">
    <mask id="merchant-partner-b" fill="#fff">
      <use xlink:href="#merchant-partner-a"/>
    </mask>
    <path fill="#FF9BD6" d="M24.02048,87.2922844 C42.5087911,88.1576178 44.4785244,88.1810844 62.3371467,87.6252178 C69.1747467,87.4057067 75.6315022,86.7818844 81.9430578,81.2608622 C85.5163467,78.1358844 87.3873244,71.4038844 87.5951022,63.73224 C88.1377689,43.60224 88.1074578,42.0436622 87.66648,23.4052622 C87.6317689,21.9371289 87.4347467,19.0688178 86.8686133,16.0533511 C86.2384356,12.6912622 85.1482133,9.14339556 83.2899467,7.14335111 C76.7872356,0.144417778 70.8917244,-0.00567111111 66.8691467,-7.15747364e-05 C65.3301244,0.00312888889 58.2427022,-7.15747364e-05 58.2427022,-7.15747364e-05 L49.9198578,0.184017778 L20.18808,0.793173333 C20.18808,0.793173333 7.40119111,-0.0579822222 2.68194667,11.6249956 C1.70465778,14.0425511 1.06470222,16.9846844 0.964968889,20.5951289 C0.84568,24.8836622 -0.000100790801,54.0937956 -0.000100790801,58.0293511 C-0.00156444444,68.72624 1.06616889,74.4213067 5.86021333,80.0459733 C10.2670578,85.2169511 16.0115022,86.9173067 24.02048,87.2922844 Z" mask="url(#merchant-partner-b)"/>
    <path fill="#E7E7E7" d="M66.8617644,72.8558356 L23.1477644,72.8558356 C22.2154533,72.8558356 21.4591422,72.1000133 21.4591422,71.1672133 L21.4591422,39.0653022 L68.5508756,39.0653022 L68.5508756,71.1672133 C68.5508756,72.1000133 67.7945644,72.8558356 66.8617644,72.8558356"/>
    <path fill="#38CFE8" d="M62.2996489,72.8558356 L27.7102711,72.8558356 L27.7102711,52.9448578 C27.7102711,52.4153911 28.1395156,51.9861467 28.6689822,51.9861467 L61.3404489,51.9861467 C61.8704044,51.9861467 62.2996489,52.4153911 62.2996489,52.9448578 L62.2996489,72.8558356 Z"/>
    <path fill="#BE1C7B" d="M28.3947156,16.5324133 L62.5294267,16.5324133 C63.78636,16.5324133 64.9064044,17.3249022 65.3234267,18.50948 L71.8373822,31.6195244 C72.3208933,32.9933022 72.5677822,34.4384578 72.5677822,35.8943689 L72.5677822,40.5378356 C72.5677822,44.2357911 69.5655156,47.2336578 65.86316,47.2336578 C62.1603156,47.2336578 59.1585378,44.2357911 59.1585378,40.5378356 L59.1585378,37.79028 L59.1585378,40.5378356 C59.1585378,44.2357911 56.1572489,47.2336578 52.4544044,47.2336578 L52.1996933,47.2336578 C48.0993822,47.2336578 44.7759156,43.9141022 44.7759156,39.8191689 L44.7759156,37.50428 L44.7759156,40.5378356 C44.7759156,44.2357911 41.7741378,47.2336578 38.0712933,47.2336578 C34.1469822,47.2336578 30.9657822,44.0563689 30.9657822,40.1369467 L30.9657822,37.9051689 L30.9657822,40.5378356 C30.9657822,44.2357911 27.9644933,47.2336578 24.26116,47.2336578 L24.14676,47.2336578 C20.4439156,47.2336578 17.4426267,44.2357911 17.4426267,40.5378356 L17.4426267,37.6343244 C17.4426267,35.7760578 17.8444933,33.94028 18.6208489,32.2521467 L25.7038711,18.2552578 C26.1868933,17.2056133 27.2380044,16.5324133 28.3947156,16.5324133"/>
    <path fill="#E8208E" d="M36.8965422 16.5324133L30.9658311 37.90468 30.9658311 40.1374356C30.9658311 44.0563689 34.1470311 47.2341467 38.0713422 47.2341467 41.7741867 47.2341467 44.7759644 44.23628 44.7759644 40.5378356L44.7759644 39.8191689 44.7759644 37.50428 46.9300089 16.5324133 36.8965422 16.5324133zM65.3232311 18.50992C64.9062089 17.3248533 63.7861644 16.5323644 62.5292311 16.5323644L55.4339867 16.5323644 59.1588311 37.79072 59.1588311 40.5377867C59.1588311 44.2362311 62.16012 47.2340978 65.8629644 47.2340978 69.5658089 47.2340978 72.5670978 44.2362311 72.5670978 40.5377867L72.5670978 35.8948089C72.5670978 34.4388978 72.3206978 32.9932533 71.8371867 31.6199644L65.3232311 18.50992z"/>
    <path fill="#00AFDA" d="M41.4779689,54.1067022 L41.4779689,70.1310133 C41.4779689,71.4114133 43.4677467,71.4138578 43.4677467,70.1310133 L43.4677467,54.1067022 C43.4677467,52.8263022 41.4779689,52.8238578 41.4779689,54.1067022"/>
    <path fill="#A5E8F4" d="M55.4943644 57.5628044C53.3202756 59.1433822 51.1461867 60.7244489 48.9725867 62.3045378 48.5384533 62.62036 48.3248089 63.1698711 48.6152089 63.6660933 48.8660089 64.09436 49.5396978 64.34076 49.9767644 64.0229822 52.1508533 62.4424044 54.3244533 60.8618267 56.4990311 59.2812489 56.9326756 58.9654267 57.14632 58.4164044 56.85592 57.9196933 56.60512 57.4914267 55.9314311 57.2455156 55.4943644 57.5628044M54.7304756 64.0763689C54.6952756 64.1042356 54.6600756 64.1311244 54.6248756 64.1585022 54.6918533 64.10668 54.75932 64.0548578 54.8262978 64.0030356 54.0973644 64.5652578 53.3283422 65.0732133 52.5250978 65.52348 52.3094978 65.6442356 52.1330089 65.8808578 52.0679867 66.1179689 52.0019867 66.3560578 52.0318089 66.6733467 52.1682089 66.8845467 52.4644756 67.3445911 53.04332 67.5137467 53.5292756 67.2419244 54.4474089 66.7271244 55.30932 66.1316578 56.1374978 65.4833911 56.3242533 65.3377022 56.4288756 65.00428 56.4288756 64.77988 56.4288756 64.5359244 56.3203422 64.2445467 56.1374978 64.0763689 55.9478089 63.9028133 55.6989644 63.7732578 55.4339867 63.7849911 55.3459867 63.7972133 55.2574978 63.8084578 55.1694978 63.82068 55.0008311 63.8676133 54.8546533 63.9531689 54.7304756 64.0763689"/>
    <path fill="#000" d="M27.27252 74.6830089C31.5043422 74.7157644 35.7390978 74.6238533 39.97092 74.5744756 45.7143867 74.5079867 51.4583422 74.4322089 57.2018089 74.3769644 59.09772 74.3583867 60.9946089 74.3300311 62.8900311 74.3451867 64.4222089 74.35692 64.4241644 71.9770089 62.8900311 71.9647867 58.6586978 71.9320311 54.4234533 72.0239422 50.19212 72.0728311 44.4481644 72.1402978 38.7046978 72.2150978 32.9607422 72.2708311 31.0648311 72.2894089 29.1684311 72.3172756 27.27252 72.3026089 25.7403422 72.2903867 25.7388756 74.6712756 27.27252 74.6830089M39.2282978 63.62092C39.1266089 62.1928756 37.4022978 62.2916311 37.0018978 63.1858089 36.9124311 63.3549644 36.8679422 63.9978533 36.8650089 64.2393644 36.8518089 65.1926978 36.7158978 65.6175422 37.4751422 66.24772 37.9439867 66.6363867 38.78292 66.3513644 39.0327422 65.7994089 39.3363422 65.1276756 39.28012 64.3508311 39.2282978 63.62092"/>
  </g>
</svg>
