<svg xmlns="http://www.w3.org/2000/svg" xmlns:xlink="http://www.w3.org/1999/xlink" width="88" height="88" viewBox="0 0 88 88">
  <defs>
    <polygon id="employees-a" points="0 0 88 0 88 88 0 88"/>
  </defs>
  <g fill="none" fill-rule="evenodd">
    <mask id="employees-b" fill="#fff">
      <use xlink:href="#employees-a"/>
    </mask>
    <path fill="#31CEE7" d="M5.86036,80.0459733 C10.2672044,85.2169511 16.0116489,86.9173067 24.0206267,87.2922844 C42.5089378,88.1576178 44.4781822,88.1810844 62.3372933,87.6252178 C69.1748933,87.4057067 75.6316489,86.7818844 81.9427156,81.2608622 C85.5164933,78.1358844 87.3874711,71.4038844 87.5952489,63.73224 C88.1379156,43.60224 88.1076044,42.0436622 87.6666267,23.4052622 C87.6314267,21.9371289 87.4348933,19.0688178 86.8682711,16.0533511 C86.2385822,12.6912622 85.14836,9.14339556 83.2900933,7.14335111 C76.7868933,0.144417778 70.8918711,-0.00567111111 66.8692933,5.91167679e-05 C65.3297822,0.00312888889 58.2428489,5.91167679e-05 58.2428489,5.91167679e-05 L49.9200044,0.184017778 L20.1882267,0.793173333 C20.1882267,0.793173333 7.40133778,-0.0579822222 2.68209333,11.6249956 C1.70431556,14.0425511 1.06484889,16.9846844 0.964626667,20.5951289 C0.845826667,24.8836622 4.73808288e-05,54.0937956 4.73808288e-05,58.0293511 C-0.00141777778,68.72624 1.06631556,74.4213067 5.86036,80.0459733" mask="url(#employees-b)"/>
    <path fill="#007D00" d="M60.63288,75.1327378 L29.67448,74.2625156 C27.6187022,74.2048267 25.9721244,72.5396711 25.9374133,70.4834044 L25.1092356,21.5226489 C25.0730578,19.3734933 26.8051911,17.6120267 28.9548356,17.6120267 L62.3850578,17.6120267 C64.5586578,17.6120267 66.30008,19.4116267 66.2287022,21.5842489 L64.5845689,71.4152267 C64.5146578,73.5311378 62.7487911,75.1918933 60.63288,75.1327378"/>
    <path fill="#00CF00" d="M57.1996578,35.7695067 C57.1996578,41.9241289 52.2100578,46.91324 46.0559244,46.91324 C39.9013022,46.91324 34.9121911,41.9241289 34.9121911,35.7695067 C34.9121911,29.6148844 39.9013022,24.6257733 46.0559244,24.6257733 C52.2100578,24.6257733 57.1996578,29.6148844 57.1996578,35.7695067"/>
    <path fill="#FFF" d="M36.0647956 53.32272L51.3019956 53.32272 53.4496844 53.32272C54.5218178 53.32272 54.5237733 51.6565867 53.4496844 51.6565867L38.2119956 51.6565867 36.0647956 51.6565867C34.9926622 51.6565867 34.9907067 53.32272 36.0647956 53.32272M32.7215778 58.5424889L40.8566889 58.5424889 53.8205556 58.5424889 56.793 58.5424889C57.8651333 58.5424889 57.8666 56.8763556 56.793 56.8763556L48.6578889 56.8763556 35.6940222 56.8763556 32.7215778 56.8763556C31.6494444 56.8763556 31.6474889 58.5424889 32.7215778 58.5424889"/>
    <polygon fill="#000" points="37.597 68.43 38.396 68.401 38.204 63.005 37.403 63.011"/>
    <polygon fill="#000" points="39.004 63 39.195 68.373 40.794 68.315 40.604 62.989"/>
    <polygon fill="#000" points="41.404 62.983 41.594 68.288 44.791 68.173 44.605 62.961"/>
    <polygon fill="#000" points="45.405 62.955 45.59 68.144 47.188 68.088 47.005 62.944"/>
    <polygon fill="#000" points="49.406 62.927 49.586 68.002 51.185 67.945 51.006 62.916"/>
    <polygon fill="#000" points="51.806 62.91 51.985 67.917 53.583 67.86 53.406 62.899"/>
    <polygon fill="#000" points="36.393 63.026 36.54 68.467 36.934 68.454 36.732 63.035"/>
    <polygon fill="#000" points="47.805 62.938 47.988 68.059 48.787 68.03 48.606 62.932"/>
    <path fill="#FFF" d="M48.5037422,38.6847022 C49.45072,37.8922133 50.0657422,36.7164356 50.0657422,35.3847022 C50.0657422,32.9979467 48.13072,31.0629244 45.7444533,31.0629244 C43.3576978,31.0629244 41.4226756,32.9979467 41.4226756,35.3847022 C41.4226756,36.7164356 42.0376978,37.8922133 42.9846756,38.6847022 C41.3244089,39.6414578 40.2033867,41.4303022 40.2033867,43.4846133 L40.2033867,45.2397244 C41.9056978,46.2937689 43.9062311,46.9131911 46.0558756,46.9131911 C47.9464089,46.9131911 49.7254756,46.43848 51.2850311,45.6078578 L51.2850311,43.4846133 C51.2850311,41.4303022 50.1644978,39.6414578 48.5037422,38.6847022"/>
    <path fill="#000" d="M30.64116,19.4227733 L40.9386267,19.4227733 L57.3408489,19.4227733 L61.0901378,19.4227733 C62.6218267,19.4227733 62.6242711,17.0423733 61.0901378,17.0423733 L50.7926711,17.0423733 L34.3904489,17.0423733 L30.64116,17.0423733 C29.1094711,17.0423733 29.1070267,19.4227733 30.64116,19.4227733"/>
    <path fill="#A3A3A3" d="M50.2762089,21.2217378 L41.8345644,21.2217378 C41.7138089,21.2217378 41.6160311,21.12396 41.6160311,21.0032044 L41.6160311,12.1381822 C41.6160311,11.3828489 42.2286089,10.7702711 42.9839422,10.7702711 L49.1278089,10.7702711 C49.8831422,10.7702711 50.49572,11.3828489 50.49572,12.1381822 L50.49572,21.0022267 C50.49572,21.1234711 50.3974533,21.2217378 50.2762089,21.2217378"/>
    <path fill="#31CEE7" d="M47.7801867,14.2020756 C47.7801867,15.1544311 47.0082311,15.9263867 46.0558756,15.9263867 C45.10352,15.9263867 44.3315644,15.1544311 44.3315644,14.2020756 C44.3315644,13.2502089 45.10352,12.4782533 46.0558756,12.4782533 C47.0082311,12.4782533 47.7801867,13.2502089 47.7801867,14.2020756"/>
  </g>
</svg>
