<?xml version="1.0" encoding="UTF-8"?>
<svg width="80px" height="16px" viewBox="0 0 80 16" version="1.1" xmlns="http://www.w3.org/2000/svg" xmlns:xlink="http://www.w3.org/1999/xlink">
    <title>Selly Horizontal white</title>
    <defs>
        <polygon id="path-1" points="0 0 2.00141631 0 2.00141631 9.99142504 0 9.99142504"></polygon>
        <polygon id="path-3" points="0 0 2.01524516 0 2.01524516 8.00512699 0 8.00512699"></polygon>
    </defs>
    <g id="Selly-Horizontal-white" stroke="none" stroke-width="1" fill="none" fill-rule="evenodd">
        <g id="selly-white">
            <path d="M7.99286285,8.00474254 C7.99286285,10.3322345 7.99363175,12.6599188 7.99209394,14.9874108 C7.9919017,15.4391457 7.72681982,15.8068771 7.31160817,15.9472033 C6.90850685,16.0834927 6.46426883,15.9506634 6.19764911,15.6094594 C6.0582841,15.4308799 5.99100441,15.2273108 5.99100441,14.99856 C5.99215781,10.3308889 5.99138887,5.66321788 5.99235001,0.995546841 C5.99254226,0.438855655 6.4258233,0.0124947953 6.98635906,0.00938581585 C7.54612587,0.00634351144 7.98863384,0.426937541 7.9911328,0.984397638 C7.9965152,2.20773421 7.99286285,3.431263 7.99286285,4.65459958 L7.99286285,8.00474254 Z" id="Fill-1" fill="#FFFFFF" fill-rule="nonzero"></path>
            <g id="Fill-3-Clipped" transform="translate(-0.000000, 6.004112)">
                <mask id="mask-2" fill="white">
                    <use xlink:href="#path-1"></use>
                </mask>
                <g id="path-1"></g>
                <path d="M0.000134559334,4.98465673 C0.000134559334,3.66712862 -0.000249895905,2.34940829 0.000134559334,1.03188019 C0.000326786953,0.425402055 0.415538445,-0.00115103246 1.00240937,-2.32383812e-06 C1.57467099,0.00115569897 2.00045516,0.434821207 2.00064739,1.02265327 C2.00160853,3.67674 2.00180076,6.33082675 2.00045516,8.98491349 C2.00026294,9.49143325 1.62772581,9.92490653 1.15234691,9.98257481 C0.611610615,10.0481244 0.154108882,9.74459704 0.0233941013,9.23653944 C-0.000442123523,9.14350128 0.000326786953,9.05027088 0.000326786953,8.95646379 C0.000134559334,7.63239996 0.000134559334,6.30852835 0.000134559334,4.98465673" id="Fill-3" fill="#FFFFFF" fill-rule="nonzero" mask="url(#mask-2)"></path>
            </g>
            <g id="Fill-6-Clipped" transform="translate(11.982943, -0.000000)">
                <mask id="mask-4" fill="white">
                    <use xlink:href="#path-3"></use>
                </mask>
                <g id="path-3"></g>
                <path d="M0.000622817485,3.9921832 C0.000622817485,3.01970367 0.000622817485,2.04722415 0.000622817485,1.07455239 C0.000622817485,0.453464953 0.432173822,-0.00480569047 1.01193232,-7.43138575e-05 C1.58342504,0.00499791808 2.01151594,0.457501735 2.01324599,1.0710923 C2.01651386,2.28212629 2.01420713,3.49296807 2.01420713,4.70400208 C2.01420713,5.44427064 2.01709055,6.18473141 2.01324599,6.925 C2.00997812,7.55339207 1.58496285,8.00493474 1.00597327,8.00512699 C0.444476389,8.00512699 0.00254509368,7.5681936 0.00119950034,7.00381332 C-0.00110723109,6.00000069 0.000622817485,4.99618807 0.000622817485,3.9921832" id="Fill-6" fill="#FFFFFF" fill-rule="nonzero" mask="url(#mask-4)"></path>
            </g>
            <path d="M34.0038548,7.34076911 C34.8875252,7.34076911 35.7711955,7.33673231 36.6550581,7.34447775 C36.8151836,7.34576702 36.8470935,7.2898288 36.8244108,7.14854149 C36.7644358,6.77677328 36.68024,6.41250194 36.5343391,6.06341659 C35.8909534,4.52367335 34.4484773,4.07078508 33.2243718,4.47542421 C31.9604752,4.89332706 31.3991706,5.89867749 31.174841,7.14200574 C31.1463913,7.30020908 31.1894502,7.34576702 31.3526515,7.34447775 C32.2363219,7.33673231 33.1201844,7.34076911 34.0038548,7.34076911 M34.4165675,8.33881492 C33.3877653,8.33881492 32.3589631,8.34189054 31.3301609,8.33573927 C31.1784933,8.33477812 31.1496591,8.36784128 31.1702275,8.52258452 C31.3603406,9.95314247 32.2937979,11.0094332 33.6553461,11.2627892 C34.7468146,11.4657816 35.7290977,11.1835914 36.5910462,10.484844 C36.6690908,10.4216011 36.7421374,10.3525914 36.8197972,10.2889641 C37.0806501,10.0753992 37.4322344,10.1003888 37.6450302,10.3464402 C37.8439861,10.5765366 37.8164974,10.9096671 37.5812108,11.1411091 C36.6166125,12.0897524 35.4520977,12.5234179 34.1068888,12.4830502 C31.8999235,12.4167316 30.1604558,10.8566123 29.8613496,8.67002309 C29.6491303,7.11913064 29.9674593,5.70491207 31.0447028,4.53155468 C31.9862337,3.50602031 33.1834273,3.10464906 34.5622761,3.24728195 C36.4489902,3.44277744 37.7115412,4.86333955 38.0690845,6.64432845 C38.1369409,6.98303349 38.1769242,7.32500643 38.1763597,7.67063168 C38.1753864,8.07949986 37.9147259,8.33785377 37.5029742,8.33843043 C36.4741718,8.33996827 35.4453697,8.33881492 34.4165675,8.33881492" id="Fill-9" fill="#FFFFFF" fill-rule="nonzero"></path>
            <path d="M51.8420782,10.7769339 C51.9501099,10.505893 52.0500685,10.2581116 52.14772,10.0095612 C52.951808,7.96368271 53.7560887,5.91761193 54.5588309,3.87115669 C54.6728219,3.58070076 54.8275652,3.34233851 55.1808796,3.33118931 C55.654913,3.31619555 55.978432,3.70891659 55.8469481,4.16584163 C55.7171948,4.61796097 55.5026685,5.03913172 55.3217826,5.47222052 C54.3170087,7.87621913 53.3101203,10.2794488 52.2990031,12.6809485 C52.0650622,13.2372552 51.7830643,13.767419 51.3780407,14.224344 C50.8792101,14.7875709 50.2537012,15.0630331 49.505936,15.0847548 C48.966545,15.1003253 48.4434939,15.0228576 47.9369739,14.8383191 C47.5853895,14.7102955 47.4187283,14.4056147 47.520609,14.0855557 C47.621913,13.7670345 47.9373586,13.614598 48.2979774,13.726859 C48.5922779,13.8187438 48.8885008,13.8910214 49.1968337,13.9102441 C49.8548288,13.9513808 50.3463551,13.6739964 50.702745,13.1309534 C50.8753655,12.8677937 51.0452946,12.5980984 51.1356417,12.2995689 C51.2350233,11.9716286 50.9670581,11.7294218 50.8434556,11.4641476 C49.7479502,9.1133961 48.635529,6.77052588 47.5286824,4.42515669 C47.4448713,4.24734615 47.377784,4.06472991 47.4169982,3.86308313 C47.4687075,3.5956945 47.6863092,3.38097626 47.9444709,3.33791727 C48.2641454,3.28467022 48.5244215,3.39712338 48.6753203,3.67662233 C48.7791231,3.86904219 48.8612045,4.07357238 48.9502059,4.27406577 C49.891929,6.39875767 50.8332675,8.52383398 51.7749906,10.6485259 C51.7899843,10.6825502 51.8093993,10.7146522 51.8420782,10.7769339" id="Fill-11" fill="#FFFFFF" fill-rule="nonzero"></path>
            <path d="M25.3752952,12.454043 C24.1969399,12.4676912 23.1825548,12.1608959 22.2694736,11.5246225 C22.0268823,11.3554622 21.9301918,11.1284414 21.9882446,10.879891 C22.0441828,10.639991 22.2204555,10.4752519 22.4672758,10.435653 C22.6441252,10.4072033 22.7971384,10.4614115 22.9438081,10.5621388 C23.5091495,10.9506308 24.11928,11.2337821 24.8107227,11.301254 C25.3364652,11.352771 25.8620156,11.3729549 26.367382,11.1670791 C27.0336429,10.8956537 27.3869573,10.2818709 27.2341363,9.66212904 C27.1691634,9.398585 27.0103834,9.20424288 26.7972029,9.04757735 C26.3852591,8.7452033 25.9056512,8.59757248 25.4252744,8.45417071 C24.7836186,8.26251975 24.1300447,8.10489311 23.5226054,7.81328382 C22.8259725,7.479 22.2602467,7.0168848 22.1491391,6.19703398 C21.9774798,4.92794723 22.6072175,3.91529214 23.816137,3.47931989 C24.7503632,3.14253712 25.6901641,3.21673698 26.6268892,3.46836293 C27.0815076,3.59042748 27.5190176,3.7618945 27.9332682,3.98737749 C28.1998878,4.13250935 28.3405985,4.38375085 28.3042675,4.62922553 C28.2410246,5.0555864 27.798901,5.26819012 27.397722,5.05347189 C26.9369524,4.80722831 26.463688,4.59520125 25.9517859,4.48351701 C25.3422321,4.35030327 24.7351772,4.31397224 24.1456152,4.57886188 C23.6131447,4.81799304 23.3190364,5.33969882 23.4186103,5.8664025 C23.4726263,6.15205273 23.6550503,6.34620261 23.8822633,6.50248368 C24.2799823,6.77563913 24.7346006,6.92134765 25.1882578,7.0662873 C25.8973854,7.2925392 26.6238136,7.47265648 27.2823854,7.83500553 C27.9015506,8.17544066 28.3738539,8.63909367 28.4976484,9.3693664 C28.7056387,10.5959708 28.057255,11.7239625 26.8904333,12.1831943 C26.6507255,12.277578 26.4046741,12.3500479 26.1518948,12.3967592 C25.8735492,12.4480839 25.5919357,12.4642311 25.3752952,12.454043" id="Fill-13" fill="#FFFFFF" fill-rule="nonzero"></path>
            <path d="M40.144816,6.17717687 C40.144816,4.3523601 40.1444316,2.5275433 40.1452003,0.702726508 C40.1453927,0.378054059 40.333968,0.111434351 40.6157735,0.0283920194 C40.8935426,-0.0536891742 41.1953398,0.0551116584 41.3602713,0.296165093 C41.4642664,0.448217141 41.482528,0.619876403 41.482528,0.798455861 C41.4815669,4.28488821 41.4819513,7.77151276 41.4817589,11.2581373 C41.4817589,11.402308 41.4859882,11.546671 41.4809902,11.6908417 C41.4665732,12.1145114 41.1984156,12.3788243 40.794353,12.3727003 C40.4145113,12.366714 40.1452003,12.0776036 40.1450083,11.6704656 C40.1444316,9.83930525 40.144816,8.00814494 40.144816,6.17717687" id="Fill-15" fill="#FFFFFF" fill-rule="nonzero"></path>
            <path d="M44.2433586,6.19641885 C44.2433586,4.39044038 44.244512,2.58426967 44.2422016,0.778291186 C44.2418208,0.520321722 44.3004504,0.293685357 44.5188208,0.133367522 C44.9034685,-0.14901485 45.4532393,0.0526319221 45.5578111,0.518207217 C45.5808786,0.620856765 45.5845308,0.72946537 45.5845308,0.835382789 C45.5858765,4.40351186 45.5856842,7.97164094 45.5849155,11.53977 C45.5849155,11.6270414 45.5804942,11.7152738 45.5674226,11.8013918 C45.5105231,12.1760434 45.2565906,12.3846104 44.8780942,12.3725 C44.5397739,12.3619275 44.271424,12.0978068 44.2481645,11.7460302 C44.2397064,11.6210823 44.2435509,11.4953654 44.2435509,11.370033 C44.2433586,9.64536681 44.2433586,7.92089283 44.2433586,6.19641885" id="Fill-17" fill="#FFFFFF" fill-rule="nonzero"></path>
        </g>
    </g>
</svg>