<?xml version="1.0" encoding="UTF-8"?>
<svg width="80px" height="16px" viewBox="0 0 80 16" version="1.1" xmlns="http://www.w3.org/2000/svg" xmlns:xlink="http://www.w3.org/1999/xlink">
    <title>GoStore Horizontal white</title>
    <defs>
        <polygon id="path-1" points="0 0 8.88301759 0 8.88301759 8.63631304 0 8.63631304"></polygon>
        <polygon id="path-3" points="0 0 14.6922895 0 14.6922895 14.6922344 0 14.6922344"></polygon>
    </defs>
    <g id="GoStore-Horizontal-white" stroke="none" stroke-width="1" fill="none" fill-rule="evenodd">
        <g id="GoStore-white" transform="translate(0.000000, 1.000000)">
            <path d="M25.2189933,6.05426742 C25.2189933,5.12891863 24.1704301,4.28047551 22.9986524,4.28047551 C21.5178738,4.28047551 20.53078,5.17550306 20.53078,6.51707962 C20.53078,7.9512738 21.4406925,8.81515318 22.9057592,8.81515318 C24.1858664,8.81515318 25.2189933,8.01274317 25.2189933,7.0102131 L25.2189933,6.05426742 Z M20.3452692,11.0048972 C21.1937123,12.007703 21.9035048,12.3464738 23.0907187,12.3464738 C24.3705502,12.3464738 25.3116109,11.5291788 25.3116109,10.4185949 L25.3116109,9.83256823 L25.2804628,9.83256823 C24.710148,10.4651794 23.7690873,10.8196621 22.6433428,10.8196621 C20.1762973,10.8662465 18.2021096,8.95380387 18.2481427,6.51707962 C18.2481427,4.14210044 20.1145522,2.2759666 22.5661614,2.2759666 C23.7230541,2.2759666 24.710148,2.61473743 25.2804628,3.23191227 L25.3116109,3.23191227 L25.3116109,2.43032922 L27.501355,2.43032922 L27.501355,10.387998 C27.501355,12.7009565 25.6660937,14.3052252 23.0907187,14.3052252 C21.2248605,14.3052252 19.6823369,13.6420172 18.710955,12.3621857 L20.3452692,11.0048972 Z" id="Fill-1" fill="#FFFFFF" fill-rule="nonzero"></path>
            <path d="M33.2389034,4.20334932 C31.8358574,4.20334932 30.910233,5.17555819 30.910233,6.51713475 C30.910233,7.85871136 31.8358574,8.83009326 33.2389034,8.83009326 C34.6425006,8.83009326 35.5681251,7.85871136 35.5681251,6.51713475 C35.5681251,5.17555819 34.6425006,4.20334932 33.2389034,4.20334932 M33.2389034,2.19911607 C35.9068959,2.19911607 37.8504868,4.09584677 37.8504868,6.51713475 C37.8504868,8.93842274 35.9068959,10.8354291 33.2389034,10.8354291 C30.6329315,10.8814623 28.5815626,8.90699892 28.6275957,6.51713475 C28.5815626,4.12644366 30.6329315,2.15253163 33.2389034,2.19911607" id="Fill-3" fill="#FFFFFF" fill-rule="nonzero"></path>
            <path d="M40.595771,7.44248354 C40.9199324,8.49132245 41.7526634,9.0153284 43.0630918,9.0153284 C44.2508571,9.0153284 44.9295016,8.75291195 44.9295016,8.30581165 C44.9295016,7.82811447 44.4358166,7.61173116 42.9087292,7.38018721 C39.9174022,6.91820193 38.8531272,6.19297327 38.8531272,4.72763093 C38.8531272,3.21653114 40.3645026,2.19911607 42.6159917,2.19911607 C44.667085,2.19911607 46.5334944,3.24740366 46.9651586,4.66616156 L44.882917,5.29877265 C44.5744672,4.51179893 43.695703,4.01866549 42.6002797,4.01866549 C41.6597703,4.01866549 41.0431467,4.29624255 41.0431467,4.72763093 C41.0431467,5.16012193 41.4745352,5.31420891 43.2794751,5.62265851 C46.0398098,6.05432255 47.1349574,6.80987245 47.1349574,8.29009974 C47.1349574,9.81691145 45.4998163,10.8354291 43.0479315,10.8354291 C41.8447298,10.8354291 40.827039,10.572737 39.994308,10.0484554 C39.1615766,9.53961005 38.6521801,8.83009326 38.4520599,7.95132893 L40.595771,7.44248354 Z" id="Fill-5" fill="#FFFFFF" fill-rule="nonzero"></path>
            <path d="M51.5612505,4.37320334 L51.5612505,7.8281696 C51.5612505,8.33701495 51.730498,8.49110193 52.3939815,8.49110193 L53.889921,8.49110193 L53.889921,10.6039403 L52.1627135,10.6039403 C50.1116202,10.6039403 49.2786132,9.80208164 49.2786132,7.96682032 L49.2786132,4.37320334 L47.3507342,4.37320334 L47.3507342,2.43016384 L49.2786132,2.43016384 L49.2786132,0.379070494 L51.5612505,0.379070494 L51.5612505,2.43016384 L54.1983705,2.43016384 L54.1983705,4.37320334 L51.5612505,4.37320334 Z" id="Fill-7" fill="#FFFFFF" fill-rule="nonzero"></path>
            <path d="M59.2721045,4.20334932 C57.8690584,4.20334932 56.9434339,5.17555819 56.9434339,6.51713475 C56.9434339,7.85871136 57.8690584,8.83009326 59.2721045,8.83009326 C60.6757015,8.83009326 61.6013263,7.85871136 61.6013263,6.51713475 C61.6013263,5.17555819 60.6757015,4.20334932 59.2721045,4.20334932 M59.2721045,2.19911607 C61.940097,2.19911607 63.8836876,4.09584677 63.8836876,6.51713475 C63.8836876,8.93842274 61.940097,10.8354291 59.2721045,10.8354291 C56.6661327,10.8814623 54.6147638,8.90699892 54.6607966,6.51713475 C54.6147638,4.12644366 56.6661327,2.15253163 59.2721045,2.19911607" id="Fill-9" fill="#FFFFFF" fill-rule="nonzero"></path>
            <path d="M65.1176516,2.43021896 L67.2613623,2.43021896 L67.2613623,3.21664139 L67.2919592,3.21664139 C67.8934222,2.58458159 68.6955567,2.27585634 69.6983622,2.27585634 C70.1143144,2.27585634 70.5616905,2.3533133 71.0396631,2.49196401 L70.5616905,4.54305736 C70.1454626,4.43472788 69.7598317,4.37325847 69.3742008,4.37325847 C68.1246906,4.37325847 67.4002889,5.20598969 67.4002889,6.87145212 L67.4002889,10.6037198 L65.1176516,10.6037198 L65.1176516,2.43021896 Z" id="Fill-11" fill="#FFFFFF" fill-rule="nonzero"></path>
            <g id="Fill-13-Clipped" transform="translate(71.116982, 2.198868)">
                <mask id="mask-2" fill="white">
                    <use xlink:href="#path-1"></use>
                </mask>
                <g id="path-1"></g>
                <path d="M6.66212538,3.43870305 C6.55462283,2.46732112 5.7061797,1.85014628 4.4878176,1.85014628 C3.2540192,1.85014628 2.40557607,2.46732112 2.28236162,3.43870305 L6.66212538,3.43870305 Z M4.44178445,0 C7.15608575,0 8.88329325,1.91244263 8.88329325,4.39547565 L8.88329325,5.04269607 L2.2514891,5.04269607 C2.32839476,6.10697123 3.20798606,6.78561547 4.56499888,6.78561547 C5.55209273,6.78561547 6.26160951,6.41542084 7.07890444,5.56725336 L8.49766232,6.98628687 C7.51056851,8.05028638 6.29220637,8.63631304 4.58043517,8.63631304 C1.72720748,8.63631304 0,6.92454184 0,4.33373062 C0,1.81982505 1.86640949,0 4.44178445,0 L4.44178445,0 Z" id="Fill-13" fill="#FFFFFF" fill-rule="nonzero" mask="url(#mask-2)"></path>
            </g>
            <g id="Fill-16-Clipped">
                <mask id="mask-4" fill="white">
                    <use xlink:href="#path-3"></use>
                </mask>
                <g id="path-3"></g>
                <path d="M10.5810064,10.5313899 C10.5319412,11.1926683 9.97485749,11.7315593 9.25266095,11.81701 C8.61591512,11.8966722 7.98523357,11.9393975 7.34848773,11.9393975 C6.71174193,11.9393975 6.0749961,11.8966722 5.43852595,11.81701 C4.71632938,11.7315593 4.16503432,11.1926683 4.10990482,10.5313899 C3.9387277,8.40724995 3.9387277,6.28311002 4.10990482,4.16475866 C4.16503432,3.50375588 4.71632938,2.96486493 5.43852595,2.8730743 C6.0749961,2.79368781 6.71174193,2.75675104 7.34848773,2.75675104 C7.98523357,2.75675104 8.61591512,2.79368781 9.25266095,2.8730743 C9.97485749,2.96486493 10.5319412,3.50375588 10.5810064,4.16475866 C10.7585235,6.28311002 10.7585235,8.40724995 10.5810064,10.5313899 M7.34600692,0 C3.28875079,0 0,3.28902644 0,7.34600692 C0,11.4032631 3.28875079,14.6922895 7.34600692,14.6922895 C11.4032631,14.6922895 14.6922895,11.4032631 14.6922895,7.34600692 C14.6922895,3.28902644 11.4032631,0 7.34600692,0" id="Fill-16" fill="#FFFFFF" fill-rule="nonzero" mask="url(#mask-4)"></path>
            </g>
            <path d="M8.72350037,5.75224042 C8.72350037,5.87187145 8.62647243,5.96862373 8.50711706,5.96862373 L8.32767051,5.96862373 C8.2083151,5.96862373 8.11128717,5.87187145 8.11128717,5.75224042 L8.11128717,5.57306949 C8.11128717,5.45343847 8.2083151,5.35641053 8.32767051,5.35641053 L8.50711706,5.35641053 C8.62647243,5.35641053 8.72350037,5.45343847 8.72350037,5.57306949 L8.72350037,5.75224042 Z M6.58337287,4.45256225 C6.58337287,4.3913685 6.63243815,4.33623901 6.69969612,4.32383488 L6.7181645,4.32383488 C6.93234265,4.29930224 7.14045654,4.28744938 7.35491034,4.28744938 C7.56908849,4.28744938 7.78299098,4.29930224 7.99744474,4.32383488 C8.06470275,4.33017475 8.11376802,4.38502863 8.11376802,4.45256225 L8.11376802,4.83846883 L6.58337287,4.83846883 L6.58337287,4.45256225 Z M6.58089206,5.75224042 C6.58089206,5.87187145 6.48386412,5.96862373 6.36450871,5.96862373 L6.18533782,5.96862373 C6.06543114,5.96862373 5.96867886,5.87187145 5.96867886,5.75224042 L5.96867886,5.57306949 C5.96867886,5.45343847 6.06543114,5.35641053 6.18533782,5.35641053 L6.36450871,5.35641053 C6.48386412,5.35641053 6.58089206,5.45343847 6.58089206,5.57306949 L6.58089206,5.75224042 Z M9.56477666,4.83846883 L8.72598118,4.83846883 L8.72598118,4.33623901 C8.72598118,4.02393034 8.48754606,3.76068696 8.18130165,3.73009006 L8.07104266,3.71796159 C7.59968534,3.66283206 7.12198816,3.66283206 6.65090653,3.71796159 L6.51611487,3.73009006 C6.20353055,3.76702683 5.97115968,4.02393034 5.97115968,4.34230326 L5.97115968,4.83846883 L5.13236424,4.83846883 C5.03450934,4.83846883 4.96118712,4.9115154 4.95484721,5.00964595 C4.89971771,6.26439355 4.88152495,7.59301468 4.91212184,8.78684419 C4.92425035,9.31333096 5.36528639,9.73562299 5.8917732,9.73562299 L8.79930344,9.73562299 C9.32579025,9.73562299 9.76682629,9.31333096 9.7789548,8.78684419 C9.80955166,7.59301468 9.79742318,6.26439355 9.73595378,5.00964595 C9.73595378,4.9115154 9.6565673,4.83846883 9.56477666,4.83846883 L9.56477666,4.83846883 Z" id="Fill-19" fill="#FFFFFF" fill-rule="nonzero"></path>
            <path d="M7.34848773,10.256018 C7.00558221,10.256018 6.73627457,10.5253256 6.73627457,10.8682312 C6.73627457,11.2047968 7.00558221,11.4801687 7.34848773,11.4801687 C7.68505338,11.4801687 7.96070093,11.2047968 7.96070093,10.8682312 C7.96070093,10.5253256 7.68505338,10.256018 7.34848773,10.256018" id="Fill-21" fill="#FFFFFF" fill-rule="nonzero"></path>
        </g>
    </g>
</svg>