<?xml version="1.0" encoding="UTF-8"?>
<svg width="96px" height="24px" viewBox="0 0 96 24" version="1.1" xmlns="http://www.w3.org/2000/svg" xmlns:xlink="http://www.w3.org/1999/xlink">
    <title>A02A561C-D356-4470-8C80-C8A20A56EBD0@1.00x</title>
    <g id="Home" stroke="none" stroke-width="1" fill="none" fill-rule="evenodd">
        <g id="block-/-facsheet-product-normal-horizontal-intro" transform="translate(-215.000000, -519.000000)" fill="#FFFFFF" fill-rule="nonzero">
            <g id="component-/-product-card-1" transform="translate(175.000000, 479.000000)">
                <g id="component-/-logo-/-icon-+-text" transform="translate(40.000000, 40.000000)">
                    <path d="M11.1276873,2.93249396 C5.7493051,2.93249396 1.39096091,7.30078824 1.39096091,12.6914493 C1.39096091,18.0821103 5.7493051,22.4504046 11.1276873,22.4504046 C16.5060695,22.4504046 20.8644137,18.0821103 20.8644137,12.6914493 C20.8644137,7.30078824 16.5060695,2.93249396 11.1276873,2.93249396 Z M11.1276873,1.53835749 C17.2479153,1.53835749 22.2553746,6.55724879 22.2553746,12.6914493 C22.2553746,18.8256498 17.2479153,23.8445411 11.1276873,23.8445411 C5.00745928,23.8445411 0,18.8256498 0,12.6914493 C0,6.55724879 5.00745928,1.53835749 11.1276873,1.53835749 Z M14.6514549,13.3420463 C15.0223779,13.8067585 15.5787622,14.1785282 16.2278773,14.2714706 C16.2278773,15.3867798 16.2278773,16.502089 16.1351466,16.9668011 C16.0424159,17.9891679 15.30057,18.8256498 14.280532,19.0115346 C12.3331868,19.3833043 10.20038,19.4762468 8.25303474,19.0115346 C7.23299674,18.8256498 6.49115092,17.9891679 6.30568947,16.9668011 C6.21295874,16.502089 6.12022801,15.3867798 6.12022801,14.2714706 C6.67661238,14.2714706 7.32572747,13.8997009 7.69665038,13.4349887 L7.88211183,13.6208736 C8.06757329,13.713816 8.16030402,13.8067585 8.34576547,13.8997009 L8.34576547,15.6656071 C8.34576547,15.9444344 8.53122693,16.1303192 8.80941911,16.1303192 L13.6314169,16.1303192 C13.9096091,16.1303192 14.0950706,15.9444344 14.0950706,15.6656071 L14.0950706,13.8067585 C14.280532,13.713816 14.4659935,13.6208736 14.5587242,13.4349887 C14.5587242,13.4349887 14.6514549,13.3420463 14.6514549,13.3420463 Z M11.1276873,18.6397649 C11.6840717,18.6397649 12.240456,18.1750527 12.1477253,17.6173981 C12.1477253,17.0597436 11.6840717,16.5950314 11.1276873,16.5950314 C10.5713029,16.5950314 10.1076493,17.0597436 10.1076493,17.6173981 C10.1076493,18.1750527 10.5713029,18.6397649 11.1276873,18.6397649 Z M18.0824919,12.0408523 C18.0824919,12.3196795 18.0824919,12.5055644 17.8042997,12.8773341 C17.5261075,13.4349887 16.8769924,13.8067585 16.2278773,13.8067585 L16.1351466,13.8067585 C15.5787622,13.8067585 15.0223779,13.4349887 14.7441857,12.8773341 C14.7441857,12.7843917 14.6514549,12.7843917 14.5587242,12.7843917 C14.4659935,12.7843917 14.3732628,12.7843917 14.3732628,12.8773341 C14.280532,12.9702766 14.1878013,13.1561614 14.0950706,13.2491039 L14.0023398,13.3420463 C13.3532248,13.9926433 12.3331868,13.9926433 11.6840717,13.3420463 C11.4986102,13.2491039 11.4058795,13.063219 11.3131488,12.8773341 C11.3131488,12.7843917 11.220418,12.7843917 11.1276873,12.7843917 C11.0349566,12.7843917 10.9422258,12.7843917 10.9422258,12.8773341 C10.8494951,13.063219 10.7567644,13.2491039 10.5713029,13.3420463 C10.20038,13.6208736 9.82945711,13.8067585 9.36580347,13.8067585 C8.99488056,13.8067585 8.53122693,13.6208736 8.25303474,13.3420463 L8.16030402,13.2491039 C7.97484256,13.063219 7.88211183,12.9702766 7.78938111,12.7843917 C7.78938111,12.6914493 7.69665038,12.6914493 7.60391965,12.6914493 C7.51118893,12.6914493 7.4184582,12.6914493 7.4184582,12.7843917 C7.14026602,13.3420463 6.67661238,13.713816 6.02749729,13.713816 L5.93476656,13.713816 C5.19292074,13.713816 4.54380565,13.2491039 4.26561346,12.5985068 C4.17288274,12.412622 4.17288274,12.2267371 4.17288274,12.0408523 C4.17288274,11.9479098 4.26561346,11.762025 4.26561346,11.6690825 L4.26561346,11.4831977 C4.54380565,10.2749461 5.00745928,9.06669444 5.56384365,7.95138527 C5.93476656,7.20784581 6.58388165,6.65019122 7.4184582,6.55724879 C8.25303474,6.37136393 8.99488056,6.2784215 9.73672638,6.2784215 L12.5186482,6.2784215 L14.7441857,6.55724879 C15.5787622,6.65019122 16.320608,7.20784581 16.6915309,7.95138527 C17.2479153,9.06669444 17.7115689,10.2749461 17.9897611,11.4831977 L17.9897611,11.6690825 C18.0824919,11.762025 18.0824919,11.9479098 18.0824919,12.0408523 Z" id="Shape"></path>
                    <path d="M31.6935809,18.7505549 C32.6354395,20.1639134 34.2365992,20.9177045 35.9319447,20.8234806 C37.9098478,20.8234806 39.3226357,19.59857 39.3226357,17.9025399 L39.3226357,16.960301 L39.2284499,16.960301 C38.1924054,17.9967638 36.6854316,18.5621072 35.1784578,18.4678833 C31.5052092,18.5621072 28.4912616,15.7353903 28.3970757,12.0606585 C28.3028899,8.38592658 31.1284657,5.37076197 34.8017143,5.27653808 L35.0842719,5.27653808 C36.5912457,5.18231418 38.0982195,5.74765755 39.2284499,6.78412038 L39.3226357,6.78412038 L39.3226357,5.55920976 L42.7133268,5.55920976 L42.7133268,17.808316 C42.7133268,21.388824 39.8877509,23.8386452 35.9319447,23.8386452 C33.2947406,23.9328691 30.8459081,22.8964063 29.1505626,20.8234806 L31.6935809,18.7505549 Z M39.134264,11.1184195 C39.134264,9.7050611 37.5331043,8.38592658 35.743573,8.38592658 C33.4831123,8.38592658 31.9761385,9.799285 31.9761385,11.8722107 C31.8819526,13.6624647 33.2005547,15.2642709 35.0842719,15.4527187 L35.6493871,15.4527187 C37.6272902,15.4527187 39.2284499,14.227808 39.2284499,12.7202257 L39.134264,11.1184195 Z M51.4726119,5.18231418 C55.6167898,5.18231418 58.5365516,8.1032549 58.5365516,11.8722107 C58.5365516,15.6411664 55.522604,18.5621072 51.4726119,18.5621072 C47.7993633,18.8447788 44.597044,16.018062 44.4086723,12.3433301 C44.1261147,8.66859827 46.9516905,5.46498586 50.6249392,5.27653808 C50.9074967,5.18231418 51.1900543,5.18231418 51.4726119,5.18231418 Z M51.4726119,8.29170269 C49.4947088,8.29170269 47.8935492,9.89350889 47.8935492,11.8722107 C47.8935492,13.8509124 49.4947088,15.4527187 51.4726119,15.4527187 C53.450515,15.4527187 55.0516747,13.8509124 55.0516747,11.8722107 C55.1458605,9.98773279 53.6388867,8.38592658 51.8493554,8.29170269 C51.7551695,8.29170269 51.5667978,8.29170269 51.4726119,8.29170269 Z M63.716774,16.960301 L63.716774,18.1852116 L60.4202688,18.1852116 L60.4202688,0.848015048 L63.9051457,0.848015048 L63.9051457,6.59567259 C65.035376,5.65343365 66.5423498,5.18231418 67.9551378,5.27653808 C71.5342005,5.18231418 74.5481481,8.00903101 74.642334,11.6837629 L74.642334,11.9664346 C74.7365198,15.5469425 71.910944,18.5621072 68.3318812,18.6563311 L67.8609519,18.6563311 C66.448164,18.6563311 64.9411902,17.9967638 63.716774,16.960301 Z M67.5783943,8.29170269 C65.6946771,8.29170269 63.9993316,9.51661332 63.9993316,11.0241956 L63.9993316,12.6260018 C63.9993316,14.1335841 65.6004912,15.3584948 67.5783943,15.3584948 C69.838855,15.3584948 71.3458288,13.9451363 71.3458288,11.7779868 C71.3458288,9.89350889 69.838855,8.29170269 67.9551378,8.1974788 C67.766766,8.29170269 67.6725802,8.29170269 67.5783943,8.29170269 Z M76.6202371,0 L80.2934857,0 L80.2934857,3.48628409 L76.6202371,3.48628409 L76.6202371,0 Z M76.7144229,5.55920976 L80.1992998,5.55920976 L80.1992998,18.1852116 L76.7144229,18.1852116 L76.7144229,5.55920976 Z M81.9888312,15.4527187 L90.4655588,8.57437437 L90.4655588,8.48015048 L82.2713888,8.48015048 L82.2713888,5.55920976 L95.739967,5.55920976 L95.739967,8.29170269 L87.2632395,15.170047 L95.9283388,15.170047 L95.9283388,18.0909877 L82.0830171,18.0909877 L82.0830171,15.4527187 L81.9888312,15.4527187 Z" id="Shape"></path>
                </g>
            </g>
        </g>
    </g>
</svg>