<?xml version="1.0" encoding="UTF-8"?>
<svg width="80px" height="16px" viewBox="0 0 80 16" version="1.1" xmlns="http://www.w3.org/2000/svg" xmlns:xlink="http://www.w3.org/1999/xlink">
    <title>Moka Horizontal white</title>
    <defs>
        <polygon id="path-1" points="0 0 10.2671384 0 10.2671384 9.99947312 0 9.99947312"></polygon>
    </defs>
    <g id="Moka-Horizontal-white" stroke="none" stroke-width="1" fill="none" fill-rule="evenodd">
        <g id="moka-white" transform="translate(0.000000, 3.000000)">
            <path d="M10.6124453,0.000414776352 C8.91455271,0.000414776352 7.5299844,1.37197928 7.5299844,3.0643789 C7.5285271,3.0837725 7.5299844,3.10327819 7.5299844,3.12312019 L7.5299844,6.87763088 C7.5299844,6.89724869 7.5290876,6.91709069 7.5299844,6.93648429 C7.5299844,7.3168454 7.222041,7.62512514 6.84033464,7.62512514 C6.47297731,7.62512514 6.17209631,7.33971417 6.15034857,6.97897083 C6.14922757,6.96585493 6.14889126,6.95217852 6.14889126,6.93637219 C6.14978807,6.92314419 6.15034857,6.91025248 6.15034857,6.89702448 L6.15034857,3.12312019 C6.15034857,3.1031661 6.14978807,3.08354829 6.15034857,3.06426679 C6.15034857,1.37186718 4.77396371,0.000302674636 3.075959,0.000302674636 C1.3780664,0.000302674636 0.00123311888,1.37186718 0.00168152575,3.06426679 C0.00033630515,3.08366038 0,3.1031661 0,3.12312019 L0,8.8113855 C0,9.46762895 0.534164679,9.9998879 1.19276226,9.9998879 C1.85135985,9.9998879 2.38574874,9.46762895 2.38574874,8.8113855 L2.38574874,3.12312019 C2.38574874,3.1031661 2.38507612,3.08354829 2.3842914,3.06426679 C2.3842914,2.68379357 2.69335583,2.37562595 3.07517429,2.37562595 C3.45575962,2.37562595 3.76493614,2.68244836 3.76616926,3.06426679 C3.76560876,3.07704638 3.76493614,3.09016229 3.76448774,3.1230081 L3.76493614,6.87751879 C3.76493614,6.89702448 3.76560876,6.91686648 3.76493614,6.9362601 C3.76493614,8.21421964 4.54964817,9.30889293 5.66528445,9.76828576 C6.02714879,9.91782945 6.42365257,9.9998879 6.83932574,9.9998879 C8.53744252,9.9998879 9.9138274,8.6284355 9.9138274,6.93637219 C9.91494843,6.91686648 9.9138274,6.8971366 9.9138274,6.87751879 C9.9138274,6.87751879 9.91438793,3.10989219 9.9138274,3.1036145 C9.9138274,3.0903865 9.91450002,3.0771585 9.9138274,3.06213686 C9.91472421,2.68244836 10.2323084,2.37573805 10.6130058,2.37573805 C10.9947122,2.37573805 11.3040008,2.68390567 11.3044492,3.0643789 C11.303104,3.0837725 11.3026556,3.10327819 11.3026556,3.12312019 L11.3026556,8.8114976 C11.3026556,9.46774105 11.8371566,10 12.4954178,10 C13.1540154,10 13.6882922,9.46762895 13.6882922,8.8114976 L13.6882922,3.12312019 C13.6882922,3.1031661 13.6877317,3.08366038 13.6870591,3.0643789 C13.6870591,1.37186718 12.3105621,0.000414776352 10.6124453,0.000414776352" id="Fill-1" fill="#FFFFFF" fill-rule="nonzero"></path>
            <polygon id="Fill-3" fill="#FFFFFF" fill-rule="nonzero" points="31.73946 4.744537 32.7326812 3.6341695 35.6974352 0.319658045 32.7326812 0.319658045 29.2370133 4.2277481 29.2370133 0.319658045 26.859336 0.319658045 26.859336 9.68071188 29.2370133 9.68071188 29.2370133 5.32107614 32.7326812 9.68071188 35.6974352 9.68071188 32.7326812 5.98314888"></polygon>
            <path d="M22.8923925,6.07120476 C22.7666143,6.41502074 22.5805255,6.71926479 22.3352469,6.98382483 C22.0890715,7.2486091 21.7941319,7.45992083 21.4489707,7.61876898 C21.1039216,7.77728079 20.7125746,7.8563125 20.2745932,7.8563125 C19.8362755,7.8563125 19.44448,7.77728079 19.099543,7.61876898 C18.7541576,7.45992083 18.459218,7.2486091 18.2132668,6.98382483 C17.9674277,6.71926479 17.7818994,6.41502074 17.6562334,6.07120476 C17.5296705,5.7271646 17.4668933,5.37000852 17.4668933,4.99962445 C17.4667815,4.6293525 17.5295584,4.27253271 17.6562334,3.92826836 C17.7818994,3.58422819 17.9674277,3.28032043 18.2132668,3.01553617 C18.459218,2.75097612 18.7541576,2.53910388 19.099543,2.38070415 C19.44448,2.22219233 19.8361633,2.14248801 20.2745932,2.14248801 C20.7124625,2.14248801 21.1039216,2.22230443 21.4489707,2.38070415 C21.794244,2.53921598 22.0891836,2.75097612 22.3352469,3.01553617 C22.5805255,3.28032043 22.7667264,3.58422819 22.8923925,3.92826836 C23.0187311,4.27253271 23.0820685,4.62924038 23.0820685,4.99962445 C23.0820685,5.37000852 23.018619,5.7271646 22.8923925,6.07120476 M23.9573588,1.36853776 C23.4929213,0.932013671 22.9420535,0.59492381 22.3050915,0.357156069 C21.6677933,0.118715718 20.9912594,0 20.274369,0 C19.5574785,0 18.8803841,0.118715718 18.2429737,0.357156069 C17.606236,0.59492381 17.0550319,0.932013671 16.5907065,1.36853776 C16.1255965,1.80517394 15.7573424,2.3311552 15.4857199,2.94603312 C15.2134249,3.56113524 15.0775576,4.2457404 15.0775576,4.99973657 C15.0776697,5.7536206 15.2134249,6.43845 15.4857199,7.0533279 C15.7573424,7.66831793 16.1257086,8.19441129 16.5907065,8.63071117 C17.0550319,9.06734736 17.606236,9.40477352 18.2429737,9.64242914 C18.8803841,9.8807574 19.5574785,9.99958521 20.274369,9.99958521 C20.9912594,9.99958521 21.6677933,9.8807574 22.3050915,9.64242914 C22.9420535,9.40477352 23.4929213,9.06734736 23.9573588,8.63071117 C24.4223567,8.19441129 24.7903867,7.66831793 25.0624574,7.0533279 C25.3346405,6.4385621 25.4707319,5.75373271 25.4707319,4.99973657 C25.4707319,4.24585252 25.3346405,3.56113524 25.0624574,2.94603312 C24.7903867,2.3311552 24.4222445,1.80517394 23.9573588,1.36853776" id="Fill-5" fill="#FFFFFF" fill-rule="nonzero"></path>
            <g id="Fill-7-Clipped" transform="translate(35.697357, 0.000404)">
                <mask id="mask-2" fill="white">
                    <use xlink:href="#path-1"></use>
                </mask>
                <g id="path-1"></g>
                <path d="M5.05063074,7.85194055 C3.4417469,7.85194055 2.41747352,6.46793274 2.41747352,4.9826971 C2.41747352,3.51450093 3.47571371,2.14753259 5.05063074,2.14753259 C6.6935935,2.14753259 7.62504667,3.44701569 7.62504667,4.9826971 C7.62504667,6.53553007 6.71040876,7.85194055 5.05063074,7.85194055 L5.05063074,7.85194055 Z M10.267172,0.319265688 L7.88971881,0.319265688 L7.88153538,0.319265688 L7.88153538,1.83566561 C7.13605898,0.71778729 6.01089405,0 4.62531683,0 C1.88532667,0 0,2.34931568 0,4.91935962 C0,7.61013714 1.80472554,9.99947312 4.68618807,9.99947312 C6.03118445,9.99947312 7.15590098,9.28191002 7.88153538,8.22411824 L7.88153538,9.68031952 L7.88983093,9.68031952 L7.88983093,9.68043164 L10.267172,9.68031952 L10.267172,0.319265688 Z" id="Fill-7" fill="#FFFFFF" fill-rule="nonzero" mask="url(#mask-2)"></path>
            </g>
        </g>
    </g>
</svg>