<?xml version="1.0" encoding="UTF-8"?>
<svg width="80px" height="16px" viewBox="0 0 80 16" version="1.1" xmlns="http://www.w3.org/2000/svg" xmlns:xlink="http://www.w3.org/1999/xlink">
    <title>Midtrans Horizontal white</title>
    <defs>
        <polygon id="path-1" points="0 0 1.74354972 0 1.74354972 8.05462175 0 8.05462175"></polygon>
    </defs>
    <g id="Midtrans-Horizontal-white" stroke="none" stroke-width="1" fill="none" fill-rule="evenodd">
        <g id="midtrans-white" transform="translate(0.000000, 1.000000)">
            <g id="Fill-1-Clipped" transform="translate(0.000000, 2.583557)">
                <mask id="mask-2" fill="white">
                    <use xlink:href="#path-1"></use>
                </mask>
                <g id="path-1"></g>
                <path d="M0.872319483,8.05462175 C0.390872192,8.05462175 0.00058651776,7.66467124 -8.37882513e-05,7.18339152 L-8.37882513e-05,0.841291202 C0.0171765915,0.359843911 0.421538693,-0.0165329128 0.902985983,0.000559890474 C1.36030226,0.0169823877 1.7272948,0.383974929 1.74354972,0.841291202 L1.74354972,7.18339152 C1.74287941,7.66433608 1.35326404,8.05411903 0.872319483,8.05462175" id="Fill-1" fill="#FFFFFF" fill-rule="nonzero" mask="url(#mask-2)"></path>
            </g>
            <path d="M11.3335005,10.6381845 C10.851718,10.6393522 10.4602593,10.2499044 10.4589187,9.76812196 L10.4589187,9.76694892 L10.4589187,3.42484862 C10.4418259,2.94340133 10.8180352,2.53903923 11.2994825,2.52194643 C11.7810973,2.50468605 12.1852919,2.88106287 12.2025522,3.36251015 C12.2032226,3.38328966 12.2032226,3.40406914 12.2025522,3.42484862 L12.2025522,9.76694892 C12.2018819,10.2470556 11.8136072,10.6363358 11.3335005,10.6381845" id="Fill-4" fill="#FFFFFF" fill-rule="nonzero"></path>
            <path d="M6.10295187,13.1816906 C5.62116944,13.1823591 5.23004588,12.7922411 5.22954316,12.3104586 L5.22954316,0.890119964 C5.22954316,0.408505097 5.6199964,0.017884161 6.10177884,0.017884161 C6.58356128,0.0177166922 6.97401455,0.408337518 6.97418211,0.889952388 L6.97418211,0.890119964 L6.97418211,12.3104586 C6.97351183,12.7914032 6.58389644,13.1811861 6.10295187,13.1816906" id="Fill-6" fill="#FFFFFF" fill-rule="nonzero"></path>
            <path d="M33.3429543,3.12332822 C33.3416241,2.80560317 33.5949999,2.54535687 33.9125575,2.53787487 C34.231623,2.53362651 34.4935452,2.78867795 34.497902,3.10757603 C34.4980696,3.11293848 34.4980696,3.11813335 34.497902,3.12332822 L34.497902,9.95056252 C34.508962,10.2619197 34.2654733,10.523339 33.9541162,10.534399 C33.9455698,10.5348695 33.9368558,10.5348695 33.9283094,10.5348695 C33.6099142,10.5395939 33.3479921,10.2857155 33.3429543,9.96732014 C33.3429543,9.96179012 33.3429543,9.95609254 33.3429543,9.95056252 L33.3429543,3.12332822 Z" id="Fill-8" fill="#FFFFFF" fill-rule="nonzero"></path>
            <path d="M44.2558985,9.95388051 L44.2558985,9.95388051 C44.2558985,10.2727786 43.9973279,10.5313491 43.6784299,10.5313491 C43.3595319,10.5313491 43.1009614,10.2727786 43.1009614,9.95388051 L43.1009614,9.12387411 C42.4712087,10.0540913 41.5565762,10.6303869 40.1323434,10.6303869 C38.2742554,10.6303869 36.4294055,9.1617464 36.4294055,6.61257265 L36.4294055,6.58257644 C36.4294055,4.0489873 38.2742554,2.54917761 40.1323434,2.54917761 C41.5721609,2.54917761 42.5012049,3.11106162 43.1009614,3.98011337 L43.1009614,0.585348579 C43.089231,0.273991437 43.3322169,0.0120693641 43.643574,0.000506585436 C43.6529584,5.21874661e-05 43.6623424,5.21874661e-05 43.6717268,5.21874661e-05 C43.9901223,-0.00418555662 44.2515417,0.250195574 44.2558985,0.568590928 C44.2558985,0.574120954 44.2558985,0.579818556 44.2558985,0.585348579 L44.2558985,9.95388051 Z M37.6145065,6.56481335 L37.6145065,6.59480952 C37.6145065,8.42407464 38.8884231,9.59342348 40.3426521,9.59342348 C41.7968809,9.59342348 43.146542,8.37949927 43.146542,6.59480952 L43.146542,6.56481335 C43.146542,4.78448059 41.7824693,3.58178401 40.3426521,3.58178401 C38.8428424,3.58178401 37.6145065,4.69432442 37.6145065,6.56481335 L37.6145065,6.56481335 Z" id="Fill-10" fill="#FFFFFF" fill-rule="nonzero"></path>
            <path d="M74.2543045,9.63565275 C74.1222542,9.53627987 74.0446664,9.38043372 74.0449993,9.21503572 C74.0491908,8.9376966 74.27743,8.71632806 74.5546017,8.72001473 C74.6571585,8.7175011 74.7575368,8.74950821 74.8394817,8.81117634 C75.6337943,9.3507727 76.4582706,9.63565275 77.2984993,9.63565275 C78.2275433,9.63565275 78.9028767,9.15504335 78.9028767,8.40513848 L78.9028767,8.37614775 C78.9028767,7.59725216 77.9882442,7.29578205 76.9678707,7.01090197 C75.7541142,6.66602955 74.4089775,6.24658556 74.4089775,4.82235288 L74.4089775,4.79235668 C74.4089775,3.4571071 75.5215179,2.57364378 77.0469668,2.57364378 C77.9128346,2.59190962 78.761442,2.8181379 79.5215691,3.23339245 C79.6955136,3.33075443 79.8041031,3.51374796 79.8064492,3.71299642 C79.8025948,3.99016797 79.5751936,4.21187167 79.298022,4.208185 L79.2968491,4.208185 C79.2082011,4.20784984 79.121229,4.18740549 79.0419653,4.14802503 C78.3822163,3.77315638 77.6778923,3.5482687 77.0179761,3.5482687 C76.1035112,3.5482687 75.5181663,4.02787267 75.5181663,4.67320978 L75.5181663,4.70320598 C75.5181663,5.43769379 76.4783798,5.72240625 77.5119917,6.03845553 C78.7069798,6.39673409 80,6.86175891 80,8.25599539 L80,8.28599159 C80,9.75463205 78.7860759,10.6092722 77.2416908,10.6092722 C76.1710445,10.5900009 75.1305619,10.2509937 74.2543045,9.63565275" id="Fill-12" fill="#FFFFFF" fill-rule="nonzero"></path>
            <path d="M72.380531,5.80594316 C72.380531,4.06247721 70.8505577,2.5435638 69.0057078,2.5435638 C67.140749,2.5435638 65.6288738,4.055439 65.6288738,5.92056547 L65.6288738,5.92157094 L65.6288738,9.91609202 C65.6233438,10.2478935 65.8877795,10.5213783 66.219581,10.5270242 C66.225949,10.5270242 66.2323166,10.5270242 66.2386846,10.5270242 C66.5642857,10.5307626 66.8315703,10.2700136 66.8354246,9.94424487 C66.8354246,9.93486059 66.8354246,9.9254763 66.8349218,9.91609202 L66.8349218,5.80594316 C66.8734645,4.60760356 67.875907,3.66733183 69.0742467,3.70570684 C70.2186266,3.7424061 71.1377838,4.66156323 71.1744829,5.80594316 L71.1744829,9.91609202 C71.1744829,10.2490665 71.4444486,10.5190323 71.7774233,10.5190323 C72.1105652,10.5190323 72.380531,10.2490665 72.380531,9.91609202 C72.380531,9.91609202 72.391591,6.18198481 72.380531,5.80594316" id="Fill-14" fill="#FFFFFF" fill-rule="nonzero"></path>
            <path d="M59.8096623,9.5878767 L59.8096623,9.5878767 C58.7592928,9.5878767 57.9316325,9.14279348 57.9316325,8.16582249 L57.9316325,8.13582629 C57.9316325,7.16120134 58.7415297,6.53144885 60.1959264,6.53144885 C61.1393819,6.53144885 62.4734586,6.83392446 62.4744639,6.86509366 C62.4744639,8.28379635 61.1460851,9.5878767 59.8096623,9.5878767 L59.8096623,9.5878767 Z M63.5684032,5.72255708 L63.5684032,5.72255708 C63.463668,4.05349512 61.9816214,2.64719311 60.2046403,2.64719311 L59.6873316,2.64719311 C59.3860291,2.63345183 59.1304749,2.8668859 59.116901,3.16818846 C59.1033275,3.46965857 59.3365941,3.72504517 59.6380641,3.73861887 C59.6544865,3.73945675 59.6709092,3.73945675 59.6873316,3.73861887 L60.2024619,3.73861887 C61.4008013,3.73861887 62.4610579,4.71106532 62.4610579,5.90940488 L62.4610579,6.0084426 C61.687357,5.78104129 60.8843305,5.66859745 60.0779524,5.67463019 C58.1141233,5.67463019 56.7642946,6.54468739 56.7642946,8.17805557 L56.7642946,8.20821933 C56.7642946,9.7981852 58.1652343,10.6226616 59.6038786,10.6226616 C60.9111428,10.6226616 61.9405652,9.95503679 62.4768099,9.08933657 L62.4768099,9.97950297 C62.4768099,10.281811 62.7218069,10.5269754 63.0242825,10.5269754 C63.3264229,10.5269754 63.5715872,10.281811 63.5715872,9.97950297 L63.5715872,5.72255708 L63.5684032,5.72255708 Z" id="Fill-16" fill="#FFFFFF" fill-rule="nonzero"></path>
            <path d="M56.5440515,3.19116318 C56.5440515,2.88952549 56.2995546,2.64486379 55.9977494,2.64486379 L55.6238864,2.64486379 C53.758257,2.64486379 52.2458792,4.15724172 52.2458792,6.02287091 L52.2458792,9.91718126 C52.2408517,10.249653 52.5064606,10.5229703 52.8387649,10.5279976 C52.8447977,10.5280919 52.8506629,10.5280919 52.8566956,10.5279976 C53.181794,10.5320195 53.4484081,10.2716056 53.4524301,9.94667474 C53.4524301,9.93678773 53.4524301,9.9269007 53.4519273,9.91718126 L53.4519273,5.91160014 C53.4525977,4.71326055 54.4243736,3.74198715 55.6227133,3.74198715 L55.9989226,3.74198715 C56.3005602,3.74131686 56.5447192,3.49631999 56.5440515,3.19451472 L56.5440515,3.19116318 Z" id="Fill-18" fill="#FFFFFF" fill-rule="nonzero"></path>
            <path d="M50.3298933,3.16334549 C50.3298933,2.88198454 50.1018215,2.65374535 49.820293,2.65374535 L47.796304,2.65374535 L47.796304,0.618696304 C47.79865,0.290581511 47.5430959,0.0184372712 47.2156515,0.000160945117 C46.8997699,-0.00116917959 46.6427074,0.253714681 46.6411993,0.569596388 C46.6411993,0.57479126 46.6413669,0.579986131 46.6413669,0.585348579 L46.6413669,8.40614396 C46.6413669,9.97951973 47.5859956,10.5948606 48.8300836,10.5948606 C49.2200341,10.6015637 49.6074709,10.5300085 49.9694363,10.3845521 C50.1639924,10.3222137 50.2978862,10.1435771 50.3032486,9.93946893 C50.300735,9.66715711 50.0803719,9.44729677 49.8080601,9.44545342 C49.7179037,9.44545342 49.5075953,9.55002116 49.1037361,9.55002116 C48.3248404,9.55002116 47.7996556,9.20514871 47.7996556,8.26051997 L47.7996556,3.67194018 L49.8236445,3.67194018 C50.1033298,3.66992926 50.3293905,3.44303067 50.3298933,3.16334549" id="Fill-20" fill="#FFFFFF" fill-rule="nonzero"></path>
            <path d="M27.7185276,2.53803305 C26.6540817,2.53753104 25.6578394,3.0620455 25.0559046,3.93997881 C24.4596674,3.06606733 23.4701281,2.5435638 22.4122177,2.5435638 C20.6270252,2.5435638 19.1794994,3.99058689 19.1786937,5.77594695 L19.1786937,9.94943973 C19.1739694,10.2676675 19.4278477,10.5297572 19.7462431,10.5347845 C19.7521083,10.5347845 19.758141,10.5347845 19.7641738,10.5347845 C20.0756985,10.5379684 20.3309175,10.2881118 20.3342691,9.97658714 C20.3342691,9.96753801 20.3341015,9.95848889 20.3337663,9.94943973 L20.3337663,5.66568162 C20.360411,4.51878803 21.3117428,3.61052338 22.4586364,3.63700047 C23.5681604,3.66263969 24.4616783,4.5561576 24.4873175,5.66568162 L24.4873175,9.47201428 C24.4873175,9.79107995 24.7458881,10.0496505 25.0647861,10.0496505 C25.3836842,10.0496505 25.6422548,9.79107995 25.6422548,9.47201428 L25.6422548,5.65914613 C25.6422548,4.51174982 26.5723044,3.58170021 27.7195331,3.58170021 C28.8669294,3.58170021 29.796979,4.51174982 29.796979,5.65914613 L29.796979,9.94508275 C29.7829025,10.2636457 30.0299103,10.5332763 30.3484733,10.5471851 C30.6672038,10.5612615 30.9368344,10.3142538 30.9507432,9.99569087 C30.9514135,9.97876562 30.9514135,9.9618404 30.9507432,9.94508275 L30.9507432,5.77594695 C30.9440401,3.99259781 29.5017092,2.54775321 27.7185276,2.53803305" id="Fill-22" fill="#FFFFFF" fill-rule="nonzero"></path>
        </g>
    </g>
</svg>