<svg height="209" viewBox="0 0 265 209" width="265" xmlns="http://www.w3.org/2000/svg"><g fill="none" fill-rule="evenodd" opacity=".28"><path d="m168.405814 74.0766273 63.115772 46.9674647c.851442.633686 1.891481.963258 2.952858.935737l30.273324-1.326545v-73.4588002l-59.595747-31.0447973-37.836837 51.4648507c-1.425838 2.0985279-.945052 4.9473657 1.09063 6.4620901" fill="#ddb1dd"/><path d="m197.030907 59.4980846c-1.465071-1.0716254-3.519338-.7712951-4.615818.6749691l-15.398565 20.3113427 16.992351 12.6448352 17.386753-23.1230262zm36.994069 31.1328666c1.058279-1.4823864.726857-3.5399759-.743032-4.6153854l-21.886247-16.0093604-17.386753 23.1230262 24.966097 18.5785094z" fill="#9b4a9c"/><path d="m233.083916 121.80486c.449812.124879.91752.187491 1.39039.17545l30.273669-1.327233v-43.9273506z" fill="#67246c"/><path d="m71.9057195 26.5248088v4.13066c0 2.3830333 3.7041493 2.3881936 3.7041493 0v-4.13066c0-2.3830333-3.7041493-2.3864735-3.7041493 0m0-12.8756044v4.1306599c0 2.3844094 3.7041493 2.3881937 3.7041493 0v-4.1306599c0-2.3830333-3.7041493-2.3864735-3.7041493 0m-2.5213546 6.6519897h-4.1322792c-2.3853441 0-2.3891299 3.7030418 0 3.7030418h4.1322792c2.3836234 0 2.3874091-3.7030418 0-3.7030418m12.8799637 0h-4.1322792c-2.3853442 0-2.3891299 3.7030418 0 3.7030418h4.1322792c2.3819026 0 2.3874091-3.7030418 0-3.7030418m153.1019604 180.3553379v5.635408c0 3.250998 5.053929 3.258567 5.053929 0v-5.635408c0-3.250998-5.053929-3.256158-5.053929 0m0-17.566227v5.635752c0 3.253406 5.053929 3.258567 5.053929 0v-5.635752c0-3.250654-5.053929-3.255814-5.053929 0m-3.439872 9.075583h-5.637273c-3.254682 0-3.259844 5.051948 0 5.051948h5.637273c3.252273 0 3.257435-5.051948 0-5.051948m17.572115 0h-5.637272c-3.254682 0-3.259844 5.051948 0 5.051948h5.637272c3.24952 0 3.257436-5.051948 0-5.051948" fill="#9b4a9c"/><path d="m168.795329 32.0278029v2.9451636c0 1.6984316 2.640708 1.7025598 2.640708 0v-2.9451636c0-1.6984316-2.640708-1.7011838-2.640708 0m0-9.1790302v2.9448196c0 1.7001516 2.640708 1.7029038 2.640708 0v-2.9448196c0-1.6987756-2.640708-1.7015278-2.640708 0m-1.797388 4.7423636h-2.945974c-1.700818 0-1.703572 2.640017 0 2.640017h2.945974c1.699097 0 1.701851-2.640017 0-2.640017m9.182284 0h-2.945974c-1.700818 0-1.703227 2.640017 0 2.640017h2.945974c1.698065 0 1.701851-2.640017 0-2.640017m-42.656843 36.5801293c2.708162 2.1659561 6.411967 6.0963958 7.848818 9.9401422 2.625565 7.0245644-3.885864 9.7763882-3.885864 9.7763882s7.926942-2.0933677 6.783656-10.706621c-.614662-4.6294903-3.327643-8.9803236-6.230941-12.4023003-.782267-.9223203-1.849838-1.9292697-3.025474-2.9293387-4.838487-4.1172431-11.763247-4.6989825-17.22913-1.4610571l-1.350124.7995048s9.347273.7912482 17.089059 6.9832819m3.932256 54.0260524c-.569234-2.276043-4.507754-17.649652-8.660338-24.3064584-.766435-1.2284989-1.873929-2.5474753-3.217857-3.9104864-1.490195 2.2863634-6.458085 9.0745854-11.974559 7.4563107-4.044175-1.1865284-5.231857-4.8142296-5.468636-6.9117255-.021682-.1885235-.184467-.3250999-.374097-.3147792-2.038091.1118068-6.987396-.0399065-8.8785328-5.0082575-1.6216624-4.2593237 1.8818438-9.4657372 3.5936758-11.6516465-1.02352-.5641945-1.994384-1.0791939-2.8850589-1.5298613-7.9761559-4.0343341-22.7834611-5.3261329-25.1953052-5.5132803-.192039-.0151369-.3648052.1155911-.4033507.3041146l-2.8826493 14.0890352c-.039578.1950599.0767467.3880557.2677532.443443l13.7149546 3.9748185-13.9221364 18.4009941 33.7740777 25.493675 12.326974-15.751001 7.088578 11.454867c.105312.177171.331766.239094.512448.139672l12.396494-6.434568c.152117-.083253.229552-.25664.187565-.424866" fill="#ddb1dd"/><path d="m98.8816182 85.2018873c1.8911368 4.968351 6.8404418 5.1200643 8.8785328 5.0086015.18963-.0106647.352415.1259117.374097.3144352.236779 2.0974959 1.424461 5.7251971 5.468636 6.9117255 5.516474 1.6186187 10.484364-5.1699473 11.974559-7.4559667-.000688-.000344-.001377-.0010321-.001721-.0017201-.242974-.2466631-.493175-.4940142-.751292-.7430853l-16.12852-.2112289-4.741091-14.6460052c-.500746-.2851934-.990136-.5590341-1.468168-.8225542l-.011357-.0058483c-1.711832 2.1859093-5.2153382 7.3923228-3.5936758 11.6516465" fill="#802985"/><path d="m134.293706 107.138936c-1.910753 1.08229-5.364013 3.344572-4.608935 4.904019.663188 1.369547 3.798792.346429 5.942195-.553186-.397156-1.358195-.845247-2.833701-1.33326-4.350833m-52.5600657-34.2714049c1.5462922.3660383 3.1170194-3.098597 3.831487-4.9322288-1.6209741-.2862254-3.18-.5218798-4.6003312-.7141875-.2532987 1.2673733-.949526 5.2390955.7688442 5.6464163" fill="#b478b1"/><path d="m137.455638 118.197318c-.132156-.528072-.446026-1.762075-.901344-3.427481l-13.858124 7.348632 1.662961 2.798611c.105312.177171.331766.239094.512448.139672l12.396494-6.434568c.152117-.083253.229552-.25664.187565-.424866m-66.0789205-36.8535572 3.1758702.9202562 3.433987-15.4107639c-1.7297273-.1936838-3.0151494-.3013624-3.5916104-.3460851-.192039-.0151369-.3648052.1155911-.4033507.3041146l-2.8826493 14.0890352c-.0399221.1950599.0767467.3880557.2677532.443443" fill="#802985"/><path d="m117.049605 60.7773954c-1.208331.0670841-3.171396.8617725-3.779519 1.886611-6.463591 10.8889521 15.193104 22.8099671 22.810993 21.6193105 4.320877-.6756572 5.230137-2.9706211 5.675818-5.2442558-.351383.4324344-.802571 1.5890329-3.138357 1.9127566-5.226006.7234762-15.926156-4.7516177-20.288675-11.6743519-1.707357-2.7088212-3.210286-6.5979784-1.28026-8.5000704" fill="#cfa4cd"/><path d="m117.565185 113.958223c4.15052-6.108437 9.646688-11.89143 13.486091-15.6316256-.731675-1.6836387-1.490195-3.2083397-2.255942-4.4358066-.150052-.2401266-.314558-.4847255-.489733-.7317326l-12.128396 12.4514958c-.386487.397344-1.008377.443443-1.449929.10871l-23.9986754-18.2079982c-.4646103-.3526215-.5726753-1.0062614-.2446948-1.4889228 1.5820845-2.3314302 6.066091-8.9239043 9.4918182-13.8038419-.1280259-.066052-.2601818-.1348562-.3854545-.1981561-1.3886689-.7021468-2.9845195-1.3213845-4.686026-1.8659697-2.3523052 3.7625574-6.1731234 9.5634392-10.5218766 14.9587202-3.5086688 4.3535855-7.3608052 8.4415868-11.061513 10.9797736-4.6960065 3.2214125-10.7118507 2.4201876-13.6684935 1.2432919-1.925552-.7664788-9.032026-3.3235867-16.107526-1.5790563-11.869935 2.9265864-16.0793052 24.4392503-24.1824545 29.6398153-8.1179481 5.210198-18.08194808.135201-18.08194808.135201l-1.28025974 8.381727s14.45282472 5.499519 25.48233112-7.956174c5.4631299-6.664718 6.2213052-16.711163 15.100526-23.171877 5.7515325-4.1843269 10.5291039-2.9582361 13.1835779-1.57596l-23.746409 29.698987c-3.8542013 4.813542-2.3932598 11.374366 2.3220194 15.348152 11.1702663 9.414479 31.9772403 24.416546 44.0006689 32.635551 5.2786623 3.608092 12.4852857 2.26985 16.1646558-2.958581l20.3853828-29.361846c1.325344 2.435668 2.497883 6.411175.459104 11.449362-2.24837 5.558003-10.823013 15.281412-8.35335 23.860263 3.15522 10.958788 15.393746 11.970898 15.393746 11.970898l1.672598-6.085387s-12.232676.610981-12.279825-8.668641c-.029597-5.806386 11.8985-16.803704 9.963656-29.672841-.694851-4.621234-3.545838-8.926657-4.348065-9.994154-1.559026-2.075134-4.479533-6.357163-3.52037-12.891154.583-3.969314 2.811409-8.353173 5.684766-12.582223" fill="#9b4a9c"/><path d="m91.7380442 97.2809112c2.6042272-2.8419573 15.7912468 6.4995888 12.6787008 9.8001258-2.587707 2.744255-15.4016619-6.829161-12.6787008-9.8001258" fill="#b478b1"/><path d="m114.27891 63.7892647c3.59987-6.0647459 12.895175-4.8899143 19.244506.3818633-7.435487-7.9647738-20.534402-15.2862283-25.542902-7.4126201-3.874507 6.0905474 2.145123 14.166784 9.955052 20.0577992-4.104403-3.7732221-6.341416-8.5038546-3.656656-13.0270424" fill="#802985"/><path d="m139.620068 72.835606c1.307104 1.8601214 1.667779 4.3566817.743033 6.4669064-.873812 1.9942896-2.722961 3.4188805-4.842617 3.8471866-.483539.098046-.762305.6715289-.638065 1.1232285.138695.5033027.638409.7358609 1.123669.6378149 2.594935-.524632 4.923493-2.3713366 5.985214-4.8018449 1.154987-2.6448333.872091-5.8235871-.793968-8.1949237-.282896-.4028486-.798441-.5910281-1.249629-.327508-.398877.2332462-.612598.8435394-.327637 1.2491402m55.973713 19.9797753c4.094422-5.5879328 8.188844-11.1758656 12.283266-16.7637984 1.150858-1.5704558 2.301371-3.1402235 3.451884-4.7106793.329701-.4499794.075714-1.1514382-.370312-1.4118621-.523461-.3061787-1.08237-.0811889-1.41276.3701666l-12.28361 16.7637983-3.451539 4.7110234c-.329702.4496354-.075715 1.1507501.370656 1.4118621.523116.3058346 1.081681.0808449 1.412415-.3705106m3.33167-16.6453864c-.957098 1.1345812-1.849838 2.3245498-2.664111 3.5654335-.273948.4176414-.097052 1.0716253.341747 1.3028074.476312.2518234 1.010786.1042384 1.303318-.3412688.37926-.5779552.774351-1.1449018 1.186994-1.6991196.101526-.1365763.205117-.2717766.308019-.4073209.077091-.1021742-.111162.1424247-.03235.0412826l.078811-.1007982c.052312-.0667401.104624-.1334801.157968-.2002202.21785-.2748728.440863-.5459613.666974-.8139536.165883-.19678.27911-.4076649.27911-.6735931 0-.2335903-.103935-.5122473-.27911-.6732491-.353792-.3244118-1.004247-.4066328-1.34737 0" fill="#67246c"/><path d="m205.860638 30.8364926c.135254 5.7289814-4.403818 10.3980341-10.132292 10.6182076-5.825526.2243016-10.550097-4.3401687-10.62237-10.1283217-.032007-2.5595161.811175-4.9232843 2.304812-6.7682688 1.85087-2.2863634 18.314597.5497455 18.44985 6.2783829" fill="#802985"/><path d="m223.036527 42.4576245c.085351 5.6618973-4.446493 10.2181112-10.132292 10.6182076-5.953552.4186735-10.646805-4.23077-10.622807-10.1283217.024184-5.7303575 4.401502-10.4830073 10.132729-10.6182076 5.731227-.1352002 10.535643 4.3986523 10.62237 10.1283217" fill="#b478b1"/><path d="m240.02819 54.2954209c.388896 5.9374581-4.212468 10.445165-10.132293 10.6178635-5.83172.1702904-10.549065-4.279621-10.622714-10.1279777-.071928-5.7303574 4.401409-10.4833513 10.132636-10.6182075 5.731228-.1352003 10.247585 4.4100049 10.622371 10.1283217" fill="#802985"/><path d="m257.305914 66.1332516c.135598 5.7289814-4.40898 10.2913877-10.132292 10.6182076-5.70163.3257879-10.474727-4.2988862-10.62237-10.1283217-.14489-5.7289814 4.401065-10.4830073 10.132636-10.6182076 5.731228-.1352002 10.486773 4.3996843 10.622026 10.1283217" fill="#b478b1"/><path d="m187.590471 24.3884386 35.463539-23.84512626c1.065851-.71728375 2.458306-.72519623 3.532072-.01892116l38.161721 23.63252122v40.4892053l-9.719994 8.2558155z" fill="#cfa4cd"/><path d="m201.893106 34.7883648 2.395325 1.7232011 38.225046-25.8700337-16.007377-10.06398978c-1.073766-.70627507-2.466221-.69905063-3.532071.01892116l-35.397806 23.80074752z" fill="#9b4a9c"/><path d="m221.175 48.549 16.953 12.195 26.62-21.338v-15.249l-6.214-3.18z" fill="#9b4a9c"/><path d="m211.647791 86.4130132c2.350928-.2415027 4.701857-.4833495 7.052786-.7248522.554435-.0571075 1.032467-.4338105 1.032467-1.0320629 0-.5143114-.474247-1.0895145-1.032467-1.032063-2.350929.2415027-4.701858.4833495-7.052786.7248522-.554435.0571075-1.032468.4334665-1.032468 1.032063 0 .5136233.474247 1.0895144 1.032468 1.0320629m-7.317029 6.5508475c7.141922-.9742674 14.337533-1.5594471 21.541747-1.7803086 1.325688-.0405944 1.331195-2.1047203 0-2.0641258-5.713675.1751066-11.419435.5824275-17.099039 1.2267788-1.666402.1888675-3.330052.4007844-4.991636.6271502-.552715.0756846-.854539.7833358-.721007 1.2694374.163818.5965324.7155.7967526 1.269935.721068m4.50765 5.4102804c2.725026-.2738407 5.434909-.6901061 8.113819-1.2584288.545831-.115935.862798-.7554701.72135-1.2697814-.155214-.5645384-.723071-.836659-1.270279-.720724-2.49926.5304804-5.022266.9295447-7.56489 1.1848083-.554435.0557314-1.032467.4344985-1.032467 1.0320629 0 .5146554.474247 1.0881384 1.032467 1.032063" fill="#cfa4cd"/><path d="m145.225369 161.726052 12.154208-17.009429-.727546-.501239c-1.779286-1.225747-2.721584-3.377598-2.325805-5.50124.387519-2.075822 1.550422-4.841063 4.498805-8.033233 2.238046-2.423972 4.560409-3.098941 6.229565-3.204556 1.217279-.076717 2.42389.262832 3.433299.947434l40.829273 29.534889c1.641623 1.11394 2.703688 2.94482 2.71587 4.928445.005714.872781-.175312 1.855993-.666767 2.925554-1.716305 3.732972-13.008746 20.075688-16.226948 24.403472-.479409.64504-1.145006 1.126325-1.907655 1.380213l-7.184598 2.394042c-.636.211916-1.336701.096669-1.871175-.307899l-38.52274-29.152682c-.87863-.664649-1.067916-1.907941-.427786-2.803771" fill="#9b4a9c"/><path d="m163.561063 149.186418s-1.990597-3.31705 3.539299-11.055802c5.889194-8.241367 18.138045-19.015416 29.198182-16.14112l10.8385 7.738752s6.857305 1.54775 11.502376-4.643252l30.083007 21.669194s-9.865572 11.902438-19.686747 10.392186c-2.875422-.442067-20.128987-14.814576-20.128987-14.814576s-19.907695 7.959958-21.677688 24.322284z" fill="#ddb1dd"/><path d="m178.571179 132.000162c4.387643 3.630454 8.863046 7.154605 13.42139 10.568669 1.291961.967387 2.590805 1.925485 3.895844 2.875327.37513.272809.957097.063988 1.17426-.307555.254331-.434154.068143-.900647-.307676-1.174143-4.509129-3.281272-8.939792-6.669191-13.283727-10.166164-1.235519-.994909-2.464156-1.998074-3.686253-3.009496-.35689-.295514-.864175-.349181-1.213838 0-.304234.303771-.35861.916472 0 1.213362m4.846403-2.675554c5.237708 3.916335 10.395915 7.937596 15.472902 12.059999.359643.29173.862455.351246 1.213838 0 .301825-.301706.361708-.919568 0-1.213362-5.190558-4.214601-10.465779-8.324275-15.820156-12.328336-.372032-.27728-.959506-.059859-1.174604.307899-.256396.438283-.064357.895487.30802 1.1738m14.887424 4.962434c2.403241 1.721137 4.806481 3.442618 7.209721 5.164099.377195.270056.956065.065708 1.17426-.307899.252955-.431747.070208-.903055-.307675-1.1738l-7.210065-5.164443c-.376851-.269712-.955721-.065708-1.174604.308243-.252266.431402-.069864.903055.308363 1.1738m-4.988229-8.821249c5.326156 3.483557 10.476448 7.230977 15.422312 11.23607.359643.291385.861422.351933 1.213493 0 .301481-.301363.362052-.920257 0-1.213362-5.058746-4.096946-10.320545-7.940693-15.76922-11.504406-.927156-.606165-1.788578.878974-.866585 1.481698m-16.214661 14.607441c-1.320526-.97358-2.641052-1.947503-3.961234-2.921082-.275669-.203317-.822533-.138297-1.040039.133824-1.077208 1.347874-2.016409 2.786914-2.780435 4.334664-.205117.415233-.111851.928513.307675 1.1738.37926.221549.968799.109742 1.17426-.307555.589539-1.193409 1.283357-2.337623 2.076636-3.407872 1.118851.82565 2.237702 1.650613 3.356552 2.475919.373409.274873.95813.06158 1.174604-.307899.25502-.435874.066078-.897894-.308019-1.173799m13.154565 9.410866c-1.348058-1.035159-2.669273-2.105065-4.079623-3.055939-.384422-.259392-.950559-.073964-1.17426.307899-.24676.422458-.077091.914064.30802 1.1738 1.158772.781271 2.257662 1.642356 3.361026 2.499312-.77676 1.167607-1.55352 2.335559-2.330624 3.503166-.256396.385991-.075714.949498.308364 1.173799.420214.245631.916831.079125 1.17426-.307554.913389-1.37402 1.827123-2.747352 2.740857-4.120684.279454-.420737.041643-.905119-.30802-1.173799m-24.071739-.97733c-.269474.54493-.33865 1.165544-.388897 1.763452-.045428.541489-.057474 1.098459.049215 1.633756.087759.441035.636688.734828 1.055526.599284.46874-.151369.693818-.582771.599519-1.055112-.006883-.03509-.012734-.069836-.017552-.105271.009981.076029.019961.152402.030286.228086-.075714-.565914-.029597-1.161414.045773-1.724577-.009981.075685-.020306.151713-.03063.227742.039922-.286225.086383-.582427.198922-.85042-.028565.06846-.057474.136577-.086383.205037.008604-.018921.017208-.037499.0265-.055732.198578-.401816.121143-.947089-.30802-1.174143-.387519-.204349-.961915-.12144-1.174259.307898m17.306599 13.048957c-.268786.504679-.474935 1.052016-.570955 1.616555-.11013.644351-.109785 1.253268-.017552 1.899339.028221.197125.231273.416954.394747.512592.183779.107334.454974.153089.661124.086349.207526-.067084.408168-.195748.513136-.394248.115292-.218109.120799-.419018.086383-.660864l-.007227-.049539c.010324.076028.020649.151713.03063.227742-.054377-.414202-.053-.830811.00172-1.245012-.00998.076028-.020649.151713-.030629.228086.056785-.397001.161409-.782992.31387-1.153847-.028909.068116-.057819.136232-.086728.204693.058851-.138297.123208-.273497.194104-.405601.210968-.395968.112539-.951562-.308363-1.174144-.397845-.209853-.948494-.114903-1.17426.307899" fill="#b478b1"/><path d="m248.722495 146.754087-30.083006-21.66885c-4.401753 5.86659-10.786188 4.784644-11.443182 4.655292l14.494468 10.308933s-.004474 6.599354.081909 12.491402c3.303896 2.464222 6.22337 4.445439 7.263065 4.605409 9.821175 1.510596 19.686746-10.392186 19.686746-10.392186" fill="#cfa4cd"/><path d="m223.340348 144.533397c2.974195 2.173869 5.948046 4.347737 8.92224 6.521606.374442.27384.957098.0633 1.17426-.307899.254331-.434499.067455-.899271-.308019-1.1738-2.973851-2.173868-5.948046-4.347737-8.921897-6.521605-.374441-.273841-.957441-.062956-1.174603.307898-.253987.434843-.067111.899271.308019 1.1738m-5.987107-11.719556c5.657578 4.045342 11.218792 8.225885 16.670221 12.545413 1.561435 1.237099 3.113922 2.485551 4.658149 3.744668.358955.292418.862455.350557 1.213838 0 .302169-.302394.361019-.919224 0-1.213706-5.504429-4.486722-11.118643-8.838931-16.837825-13.048716-1.604455-1.181024-3.217169-2.350351-4.837799-3.509358-.377539-.269712-.95572-.066052-1.174604.307899-.252266.431402-.070207.903399.30802 1.1738" fill="#b478b1"/><path d="m222.066214 139.764819c-3.481136-1.944751-13.159487 2.567084-13.159487 2.567084s11.930163 9.937735 17.602539 13.539634c-1.718714-1.370235-3.144896-3.394799-3.4715-6.044448-.383389-3.107886 2.509929-8.117519-.971552-10.06227" fill="#9b4a9c"/><path d="m171.711258 149.537492c.105656-.471309.231273-.936769.408169-1.386061.009637-.022017.02065-.042658.03063-.064332.266721.180955.528968.368103.793968.550778-.226455.43037-.433981.870717-.622922 1.31932-.203052-.14036-.406448-.280033-.609845-.419705m4.389708-2.598391c.244007.146897.485604.297234.728234.445507-.291156.429339-.563727.870718-.826318 1.318289-.261214-.188868-.519676-.381519-.782611-.568323.273604-.412825.567858-.811545.880695-1.195473m4.696007 7.70435c-.002754-.004128-.006195-.007912-.009292-.011697.009636-.024081.021337-.04713.028909-.071556.005506.004128.011013.008601.016519.013073-.011701.023393-.023747.046443-.036136.07018m.880695-1.580776c-.636689-.519472-1.275786-1.035159-1.922455-1.541558.026156-.054356.051623-.108023.078123-.162034.248137-.511903.470117-1.072314.831137-1.517821.726857.487134 1.448552.982524 2.163708 1.487203-.407481.56213-.791215 1.14043-1.150513 1.73421m2.649311-2.79001c-2.492376-1.78891-7.768285-5.165819-7.82163-5.218799-.315935-.316155-.901344-.344709-1.213837 0-.57715.636095-1.099234 1.313472-1.569007 2.0225-.29735-.204693-.590571-.41489-.889643-.61683-.122863-.083253-.569578-.317875-.683493-.378423-.426409-.22499-.913734-.09495-1.17426.307899-.294941.456516-.605026 1.272533-.891708 1.927549-.215785.492638-.516578 1.79235.132844 2.250586.464611.327507.936449.644007 1.4045.96601-.337961 1.1105-.565448 2.258498-.674545 3.42817-.043019.461676.425377.857988.858325.857988.009636 0 .017898-.002752.027188-.003096.049214.394248.327292.712467.734429.767166.206493.027866.437422-.030617.620857-.153089.246759.330604.497993.657424.758175.977708.20787.255607.420558.578643.703455.755814.236779.148617.502467.186459.749915.13864.335208.563851 1.359416.644008 1.578987-.17545.216474-.807074.477344-1.599698.770565-2.380282.596766.410761 1.194221.821523 1.790987 1.23194.019961.013416.041643.020641.062292.031993-.453941 1.172424-.823565 2.377185-1.100266 3.60362-.10187.4517.137662.928513.59952 1.055457.431571.118343.952967-.145521 1.055526-.599629.772974-3.424729 2.272805-6.624812 4.39659-9.42067.060572-.080157.093955-.171667.111163-.266617.200643-.413857.022026-.85214-.336929-1.110155" fill="#b478b1"/><path d="m157.379714 144.716519-12.154208 17.009086c-.640474.896518-.450844 2.139466.427786 2.804459l38.522396 29.152338c.441896.334388.996331.467524 1.534247.385647l12.60574-19.600939z" fill="#cfa4cd"/><path d="m158.690466 161.316529c0 1.619651-1.313298 2.932779-2.933928 2.932779s-2.934617-1.313128-2.934617-2.932779c0-1.619995 1.313987-2.933123 2.934617-2.933123s2.933928 1.313128 2.933928 2.933123" fill="#b478b1"/><path d="m185.386394 180.411035c-.296662.001376-.594013 0-.891019-.007912.341402-.5236.681428-1.048232 1.019389-1.57424.070896.23359.142137.466836.212.700427.075715.251479.148676.503302.214754.75719.011357.04197.020649.084285.030974.126255-.195137-.002408-.390961-.002752-.586098-.00172m-2.042221 1.745563c.126306.632998.251234 1.266341.377539 1.89934-.556844.020641-1.113.037498-1.669844.041282.433292-.645039.863831-1.292143 1.292305-1.940622m3.860052-2.12949c-.064357-.254576-.13663-.507431-.211656-.75891-.170701-.573139-.352071-1.143182-.509006-1.720105-.066766-.248039-.300448-.440347-.553747-.470277-.279454-.185771-.693474-.189899-.925779.174075-.374097.585867-.755422 1.166575-1.132961 1.749346-.097396-.471996-.206149-.941585-.338305-1.405669-.09189-.323724-.459104-.55697-.791903-.449292-.329357.106303-.547896.444819-.449467.791593.219571.769919.390617 1.552566.513136 2.343814.011013.070181.050935.143113.102214.208477-.020649.03165-.04061.063644-.061604.09495-.049902-.011697-.102214-.018921-.156935-.014793-.765402.056076-1.533558.069836-2.300337.041627-.336929-.012385-.658715.305146-.643916.643663.016175.358814.282896.629902.643916.642975.530344.019953 1.060344.011697 1.590344-.008944-.482163.726572-.96226 1.454176-1.450273 2.176964-.007227.010321-.010325.020642-.016519.030618-.253643.085317-.457039.348149-.445682.613046.016863.36707.28324.620269.643915.643319 1.264429.081533 2.524728 0 3.789156-.038531.438111-.013416.705864-.39872.620513-.814641-.19135-.933673-.370656-1.870098-.557532-2.804803.367902.008256.735805.001376 1.103363.001376.245384 0 .491455.001376.737182.013417.208559.01032.402318.029929.596422-.078781.237124-.13348.384422-.374639.391994-.649856.008604-.308587-.110818-.657768-.186533-.954658m24.828848-17.139985c-.007709-1.27907-.454079-2.49312-1.209157-3.494221-2.901578-2.339343-8.779415 1.996353-10.815097 5.484726-4.191818 7.18247-1.692903 9.589241-1.692903 9.589241s-9.784006 14.490852-13.173597 19.60782c.300104.039218.6095.014105.904786-.084629l7.184597-2.393698c.762649-.253888 1.428247-.735173 1.907656-1.380213 3.218201-4.327784 14.510643-20.6705 16.226948-24.403472.491454-1.069561.67248-2.052773.666767-2.925554" fill="#67246c"/><path d="m25.39495 68.7923618v3.984795c0 2.2987482 3.5733701 2.3039085 3.5733701 0v-3.984795c0-2.2987482-3.5733701-2.3021884-3.5733701 0m0-12.4207055v3.984795c0 2.3004683 3.5733701 2.3039085 3.5733701 0v-3.984795c0-2.2987482-3.5733701-2.3021884-3.5733701 0m-2.432287 6.4171266h-3.986013c-2.3013701 0-2.3048117 3.5723138 0 3.5723138h3.986013c2.2996493 0 2.3030909-3.5723138 0-3.5723138m12.4248864 0h-3.986013c-2.3013702 0-2.3048117 3.5723138 0 3.5723138h3.986013c2.2979285 0 2.3030909-3.5723138 0-3.5723138" fill="#ddb1dd"/><path d="m109.785026 179.098458c-.002753-.518096.091545-1.078162.26087-1.676414-1.653325 2.428444-3.291506 7.432229 1.297123 13.121304 4.33189 2.91833 9.049234 3.309482 9.049234 3.309482l1.672942-6.085732s-12.232676.611326-12.280169-8.66864" fill="#67246c"/></g></svg>