<svg width="133" height="32" viewBox="0 0 133 32" fill="none" xmlns="http://www.w3.org/2000/svg">
<path fill-rule="evenodd" clip-rule="evenodd" d="M14.0016 1.01589C6.51617 1.35194 0.420973 7.27321 0.0212878 14.6025C-0.304542 20.6173 3.14057 25.8793 8.25393 28.3252C10.1611 29.2355 12.4289 28.0912 12.7938 26.0452C13.0415 24.6669 12.3246 23.3015 11.043 22.6889C8.13663 21.2937 6.18599 18.2778 6.41625 14.8449C6.6856 10.8294 10.0047 7.56672 14.1058 7.29022C18.9542 6.96268 22.9945 10.7188 22.9945 15.3937C22.9945 18.6053 21.0916 21.3788 18.3286 22.6974C17.0687 23.3015 16.378 24.6584 16.6212 26.0111L16.6343 26.0792C16.9949 28.0912 19.2235 29.2355 21.096 28.3465C26.0051 26.0196 29.3938 21.0938 29.3938 15.3937C29.3938 7.21791 22.4341 0.633049 14.0016 1.01589Z" fill="white"/>
<path fill-rule="evenodd" clip-rule="evenodd" d="M14.7096 20.4555C11.8553 20.4555 9.5354 18.184 9.5354 15.3893C9.5354 12.5945 11.8553 10.323 14.7096 10.323C17.5639 10.323 19.8838 12.5945 19.8838 15.3893C19.8838 18.184 17.5639 20.4555 14.7096 20.4555Z" fill="white"/>
<g clip-path="url(#clip0_91_633)">
<path fill-rule="evenodd" clip-rule="evenodd" d="M64.9627 7.04175C60.3822 7.04175 56.6694 10.7379 56.6694 15.2978C56.6694 19.8578 60.3822 23.5539 64.9627 23.5539C69.5432 23.5539 73.2559 19.8578 73.2559 15.2978C73.2559 10.7379 69.5432 7.04175 64.9627 7.04175ZM64.9627 19.8449C62.4415 19.8449 60.3951 17.8077 60.3951 15.2978C60.3951 12.7879 62.4415 10.7507 64.9627 10.7507C67.4839 10.7507 69.5302 12.7879 69.5302 15.2978C69.5302 17.8077 67.4839 19.8449 64.9627 19.8449Z" fill="white"/>
<path fill-rule="evenodd" clip-rule="evenodd" d="M54.1609 7.26524H50.841C50.6726 7.26524 50.5388 7.39847 50.5388 7.56609V7.96578V8.61475C49.9473 7.9314 49.0105 7.5532 48.6392 7.42426C47.806 7.1449 46.9124 6.99878 45.9799 6.99878C41.4641 7.01167 37.7514 10.6648 37.6866 15.1603C37.6219 19.789 41.3691 23.5625 46.0058 23.5625C46.9296 23.5625 47.8233 23.4121 48.6522 23.1327C49.0321 22.9995 49.956 22.6213 50.5431 21.9465V22.5912V22.7459C50.5431 24.147 50.0553 25.2902 49.1271 26.0552C48.3241 26.7214 47.1973 27.0867 45.954 27.0867C44.1494 27.0867 42.4182 26.3518 41.4037 25.1785C41.2914 25.0495 41.0928 25.0409 40.9677 25.1613L38.7659 27.2973C38.645 27.4133 38.645 27.6024 38.7616 27.7228C40.6352 29.631 43.0701 30.6066 46.0014 30.6238H46.9383C51.0827 30.6238 54.4415 27.2801 54.4415 23.1542V21.6973C54.4415 21.6973 54.4415 21.6758 54.4415 21.6629L54.4587 7.56179C54.4587 7.39418 54.3249 7.26095 54.1565 7.26095L54.1609 7.26524ZM50.5388 15.3279C50.5129 17.7991 48.4924 19.7933 46.0058 19.7933C43.5191 19.7933 41.4728 17.7734 41.4728 15.2806C41.4728 12.7879 43.5018 10.7679 46.0058 10.7679C48.5097 10.7679 50.5129 12.7621 50.5388 15.2334V15.3279Z" fill="white"/>
<path d="M94.6216 19.0928C94.6216 16.1961 96.5211 14.6575 101.542 13.9784C104.482 13.5658 105.285 13.1489 105.285 12.3839C105.285 11.3482 104.188 10.7293 102.492 10.7293C100.575 10.7293 99.1114 11.7135 98.6408 13.2822C98.5977 13.424 98.4509 13.5142 98.3041 13.4799L94.7036 12.7363C94.5396 12.702 94.4403 12.5429 94.4791 12.3796C95.2389 9.28951 98.3991 7.20508 102.375 7.20508C106.977 7.20508 109.831 9.53878 109.831 13.3552V23.2273C109.831 23.3863 109.701 23.5152 109.542 23.5152H106.174C106.015 23.5152 105.885 23.3863 105.885 23.2273V21.6027H105.825C104.875 22.935 102.854 23.7602 100.51 23.7602C97.0046 23.7602 94.6302 21.8692 94.6302 19.0885L94.6216 19.0928ZM105.777 17.4811V15.5428H105.717C105.315 16.1273 104.452 16.4668 102.224 16.8665C99.5345 17.3608 98.5804 17.8808 98.5804 18.8349C98.5804 19.789 99.3834 20.2489 101.115 20.2489C103.774 20.2489 105.781 19.0498 105.781 17.4811H105.777Z" fill="white"/>
<path fill-rule="evenodd" clip-rule="evenodd" d="M83.9366 7.1964C82.2572 7.18781 80.6901 7.67346 79.382 8.52012V7.79809C79.382 7.63048 79.2482 7.49725 79.0798 7.49725H75.7988C75.6304 7.49725 75.4966 7.63048 75.4966 7.79809V29.979C75.4966 30.1466 75.6304 30.2799 75.7988 30.2799H79.0841C79.2525 30.2799 79.3863 30.1466 79.3863 29.979V28.9304V22.4579C80.6858 23.296 82.2357 23.7816 83.9021 23.7816C88.543 23.7816 92.2946 20.0038 92.2299 15.3708C92.1651 10.8753 88.461 7.22219 83.9452 7.2007L83.9366 7.1964ZM83.8934 20.0081C81.5492 20.0081 79.6238 18.2417 79.3777 15.9768V15.0012C79.6238 12.7363 81.5492 10.9699 83.8934 10.9699C86.4017 10.9699 88.4351 12.9941 88.4351 15.4912C88.4351 17.9882 86.4017 20.0124 83.8934 20.0124V20.0081Z" fill="white"/>
<path d="M115.871 29.8459L119.411 22.8061L112.102 7.92285C112.002 7.72515 112.149 7.49307 112.374 7.49307H116.406C116.522 7.49307 116.63 7.56183 116.678 7.66498L121.729 18.4353L126.702 7.66498C126.75 7.55753 126.858 7.48877 126.974 7.48877H131.037C131.261 7.48877 131.404 7.72085 131.309 7.91855L120.442 30.1081C120.391 30.2112 120.287 30.2757 120.17 30.2757H116.138C115.914 30.2757 115.767 30.0393 115.871 29.8416V29.8459Z" fill="white"/>
</g>
<defs>
<clipPath id="clip0_91_633">
<rect width="93.6562" height="23.625" fill="white" transform="translate(37.687 6.99878)"/>
</clipPath>
</defs>
</svg>
