<svg width="202" height="32" viewBox="0 0 202 32" fill="none" xmlns="http://www.w3.org/2000/svg">
<path fill-rule="evenodd" clip-rule="evenodd" d="M15.0016 1.01711C7.51617 1.35316 1.42097 7.27443 1.02129 14.6037C0.695458 20.6186 4.14057 25.8805 9.25393 28.3264C11.1611 29.2367 13.4289 28.0925 13.7938 26.0464C14.0415 24.6682 13.3246 23.3027 12.043 22.6901C9.13663 21.2949 7.18599 18.279 7.41625 14.8462C7.6856 10.8306 11.0047 7.56794 15.1058 7.29144C19.9542 6.9639 23.9945 10.72 23.9945 15.3949C23.9945 18.6065 22.0916 21.38 19.3286 22.6987C18.0687 23.3027 17.378 24.6596 17.6212 26.0124L17.6343 26.0804C17.9949 28.0925 20.2235 29.2367 22.096 28.3477C27.0051 26.0209 30.3938 21.095 30.3938 15.3949C30.3938 7.21913 23.4341 0.63427 15.0016 1.01711Z" fill="white"/>
<path fill-rule="evenodd" clip-rule="evenodd" d="M15.7097 20.4567C12.8554 20.4567 10.5355 18.1852 10.5355 15.3905C10.5355 12.5957 12.8554 10.3242 15.7097 10.3242C18.564 10.3242 20.8839 12.5957 20.8839 15.3905C20.8839 18.1852 18.564 20.4567 15.7097 20.4567Z" fill="white"/>
<g clip-path="url(#clip0_91_698)">
<path fill-rule="evenodd" clip-rule="evenodd" d="M66.4825 6.99316C61.8672 6.99316 58.1262 10.6768 58.1262 15.2214C58.1262 19.766 61.8672 23.4496 66.4825 23.4496C71.0977 23.4496 74.8387 19.766 74.8387 15.2214C74.8387 10.6768 71.0977 6.99316 66.4825 6.99316ZM66.4825 19.7531C63.9421 19.7531 61.8802 17.7229 61.8802 15.2214C61.8802 12.7199 63.9421 10.6897 66.4825 10.6897C69.0228 10.6897 71.0847 12.7199 71.0847 15.2214C71.0847 17.7229 69.0228 19.7531 66.4825 19.7531Z" fill="white"/>
<path fill-rule="evenodd" clip-rule="evenodd" d="M55.5989 7.21585H52.2538C52.0841 7.21585 51.9493 7.34863 51.9493 7.51568V7.91403V8.56081C51.3533 7.87976 50.4094 7.50283 50.0353 7.37433C49.1914 7.09592 48.291 6.946 47.3557 6.95028C42.8057 6.96313 39.0647 10.6039 38.9995 15.0843C38.9342 19.6974 42.71 23.4582 47.3818 23.4582C48.3127 23.4582 49.2132 23.3082 50.0483 23.0298C50.4311 22.897 51.362 22.5201 51.9536 21.8476V22.4901V22.6443C51.9536 24.0407 51.4621 25.1801 50.5268 25.9425C49.7177 26.6064 48.5824 26.9705 47.3296 26.9705C45.5114 26.9705 43.767 26.238 42.7448 25.0687C42.6317 24.9402 42.4316 24.9316 42.3054 25.0516L40.087 27.1804C39.9652 27.296 39.9652 27.4845 40.0826 27.6044C41.9705 29.5062 44.4239 30.4785 47.3775 30.4956H48.3214C52.4974 30.4956 55.8816 27.1632 55.8816 23.0512V21.5992C55.8816 21.5992 55.8816 21.5778 55.8816 21.5649L55.899 7.5114C55.899 7.34435 55.7642 7.21157 55.5945 7.21157L55.5989 7.21585ZM51.9493 15.2513C51.9232 17.7142 49.8874 19.7017 47.3818 19.7017C44.8763 19.7017 42.8144 17.6885 42.8144 15.2042C42.8144 12.7199 44.8589 10.7067 47.3818 10.7067C49.9048 10.7067 51.9232 12.6942 51.9493 15.1571V15.2513Z" fill="white"/>
<path d="M96.3665 19.0036C96.3665 16.1167 98.2805 14.5833 103.339 13.9065C106.302 13.4953 107.111 13.0798 107.111 12.3174C107.111 11.2851 106.006 10.6683 104.296 10.6683C102.365 10.6683 100.89 11.6492 100.416 13.2126C100.373 13.354 100.225 13.4439 100.077 13.4096L96.4492 12.6686C96.2839 12.6344 96.1838 12.4759 96.223 12.3131C96.9885 9.23341 100.173 7.15601 104.179 7.15601C108.816 7.15601 111.691 9.48184 111.691 13.2854V23.1242C111.691 23.2827 111.561 23.4112 111.4 23.4112H108.007C107.846 23.4112 107.715 23.2827 107.715 23.1242V21.5051H107.655C106.698 22.8329 104.662 23.6553 102.3 23.6553C98.7677 23.6553 96.3752 21.7707 96.3752 18.9994L96.3665 19.0036ZM107.607 17.3974V15.4656H107.546C107.141 16.0482 106.271 16.3865 104.027 16.7849C101.317 17.2775 100.355 17.7957 100.355 18.7466C100.355 19.6975 101.164 20.1559 102.909 20.1559C105.588 20.1559 107.611 18.9608 107.611 17.3974H107.607Z" fill="white"/>
<path fill-rule="evenodd" clip-rule="evenodd" d="M85.6004 7.14733C83.9083 7.13876 82.3293 7.62278 81.0113 8.46659V7.75128C81.0113 7.58423 80.8764 7.45144 80.7068 7.45144H77.4008C77.2312 7.45144 77.0963 7.58423 77.0963 7.75128V29.8532C77.0963 30.0202 77.2312 30.153 77.4008 30.153H80.7111C80.8808 30.153 81.0156 30.0202 81.0156 29.8532V28.808V22.3574C82.3249 23.1926 83.8866 23.6766 85.5656 23.6766C90.2418 23.6766 94.0219 19.9116 93.9567 15.2942C93.8914 10.8138 90.1592 7.17303 85.6091 7.15161L85.6004 7.14733ZM85.5569 19.9159C83.1949 19.9159 81.2549 18.1554 81.0069 15.8981V14.9258C81.2549 12.6685 83.1949 10.9081 85.5569 10.9081C88.0843 10.9081 90.1331 12.9255 90.1331 15.4141C90.1331 17.9027 88.0843 19.9202 85.5569 19.9202V19.9159Z" fill="white"/>
<path d="M117.777 29.7204L121.344 22.7043L113.979 7.86694C113.879 7.66991 114.027 7.43861 114.254 7.43861H118.316C118.434 7.43861 118.543 7.50714 118.59 7.60994L123.68 18.3439L128.691 7.60994C128.739 7.50286 128.848 7.43433 128.965 7.43433H133.058C133.285 7.43433 133.428 7.66562 133.332 7.86266L122.384 29.9774C122.331 30.0802 122.227 30.1444 122.11 30.1444H118.047C117.82 30.1444 117.673 29.9089 117.777 29.7118V29.7204Z" fill="white"/>
<path d="M141.989 18.9394C141.989 16.0525 143.903 14.5191 148.962 13.8423C151.924 13.4311 152.733 13.0156 152.733 12.2532C152.733 11.2209 151.628 10.6041 149.919 10.6041C147.987 10.6041 146.513 11.585 146.038 13.1484C145.995 13.2897 145.847 13.3797 145.699 13.3454L142.071 12.6044C141.906 12.5702 141.806 12.4117 141.845 12.2489C142.611 9.1692 145.795 7.0918 149.801 7.0918C154.438 7.0918 157.314 9.41763 157.314 13.2212V23.06C157.314 23.2185 157.183 23.347 157.022 23.347H153.629C153.468 23.347 153.338 23.2185 153.338 23.06V21.4409H153.277C152.32 22.7687 150.284 23.5911 147.922 23.5911C144.39 23.5911 141.997 21.7065 141.997 18.9351L141.989 18.9394ZM153.229 17.3332V15.4014H153.168C152.763 15.9839 151.894 16.3223 149.649 16.7207C146.939 17.2133 145.978 17.7315 145.978 18.6824C145.978 19.6333 146.787 20.0916 148.531 20.0916C151.211 20.0916 153.233 18.8966 153.233 17.3332H153.229Z" fill="white"/>
<path fill-rule="evenodd" clip-rule="evenodd" d="M182.408 17.7572C182.269 17.6758 182.091 17.7186 182.004 17.8514C181.177 19.0936 179.755 19.9159 178.137 19.9159C176.001 19.9159 174.204 18.4896 173.674 16.5493H186.158C186.31 16.5493 186.441 16.4379 186.458 16.288C186.493 15.9839 186.51 15.6755 186.51 15.3628C186.51 10.6768 182.543 6.90753 177.741 7.12598C173.452 7.31873 169.968 10.7497 169.767 14.9773C169.546 19.7103 173.378 23.6124 178.132 23.6124C181.13 23.6124 183.753 22.0619 185.236 19.736C185.327 19.5904 185.284 19.4019 185.131 19.3163L182.404 17.7614L182.408 17.7572ZM178.137 10.8096C180.046 10.8096 181.686 11.949 182.391 13.5766H173.883C174.587 11.949 176.227 10.8096 178.137 10.8096Z" fill="white"/>
<path d="M139.27 2.5H135.934C135.765 2.5 135.629 2.63424 135.629 2.79983V23.0513C135.629 23.2169 135.765 23.3512 135.934 23.3512H139.27C139.438 23.3512 139.575 23.2169 139.575 23.0513V2.79983C139.575 2.63424 139.438 2.5 139.27 2.5Z" fill="white"/>
<path fill-rule="evenodd" clip-rule="evenodd" d="M167.358 19.9159C164.952 19.6032 163.517 18.0013 163.517 15.624V10.8267H167.144C167.314 10.8267 167.449 10.694 167.449 10.5269V7.7042C167.449 7.53715 167.314 7.40437 167.144 7.40437H163.517V2.80838C163.517 2.64133 163.382 2.50854 163.212 2.50854H159.871C159.702 2.50854 159.567 2.64133 159.567 2.80838V16.031C159.567 20.1601 162.964 23.5053 167.157 23.5053H167.327C167.418 23.5053 167.497 23.4325 167.497 23.3383V20.0744C167.497 19.993 167.436 19.9202 167.353 19.9116L167.358 19.9159Z" fill="white"/>
<path d="M192.478 23.3169H189.081C188.911 23.3169 188.777 23.1841 188.777 23.017V7.69135C188.777 7.5243 188.911 7.39152 189.081 7.39152H192.2C192.37 7.39152 192.505 7.5243 192.505 7.69135V9.51176L193.018 8.90353L193.057 8.86069C194.223 7.68278 195.776 7.0874 197.681 7.0874C198.39 7.0874 199.086 7.18164 199.869 7.38723C199.96 7.40865 200.012 7.4986 199.995 7.58427L199.238 10.771C199.221 10.8439 199.151 10.8995 199.073 10.8995C199.06 10.8995 199.047 10.8995 199.034 10.8953C198.333 10.7282 197.79 10.6682 197.028 10.6682C194.288 10.6682 192.779 12.5229 192.779 15.8896V23.017C192.779 23.1841 192.644 23.3169 192.474 23.3169H192.478Z" fill="white"/>
</g>
<defs>
<clipPath id="clip0_91_698">
<rect width="161" height="28" fill="white" transform="translate(38.9995 2.5)"/>
</clipPath>
</defs>
</svg>
