<svg width="183" height="32" viewBox="0 0 183 32" fill="none" xmlns="http://www.w3.org/2000/svg">
<path fill-rule="evenodd" clip-rule="evenodd" d="M16.0016 1.01711C8.51617 1.35316 2.42097 7.27443 2.02129 14.6037C1.69546 20.6186 5.14057 25.8805 10.2539 28.3264C12.1611 29.2367 14.4289 28.0925 14.7938 26.0464C15.0415 24.6682 14.3246 23.3027 13.043 22.6901C10.1366 21.2949 8.18599 18.279 8.41625 14.8462C8.6856 10.8306 12.0047 7.56794 16.1058 7.29144C20.9542 6.9639 24.9945 10.72 24.9945 15.3949C24.9945 18.6065 23.0916 21.38 20.3286 22.6987C19.0687 23.3027 18.378 24.6596 18.6212 26.0124L18.6343 26.0804C18.9949 28.0925 21.2235 29.2367 23.096 28.3477C28.0051 26.0209 31.3938 21.095 31.3938 15.3949C31.3938 7.21913 24.4341 0.63427 16.0016 1.01711Z" fill="white"/>
<path fill-rule="evenodd" clip-rule="evenodd" d="M16.7097 20.4567C13.8554 20.4567 11.5355 18.1852 11.5355 15.3905C11.5355 12.5957 13.8554 10.3242 16.7097 10.3242C19.5639 10.3242 21.8839 12.5957 21.8839 15.3905C21.8839 18.1852 19.5639 20.4567 16.7097 20.4567Z" fill="white"/>
<g clip-path="url(#clip0_91_897)">
<path fill-rule="evenodd" clip-rule="evenodd" d="M67.0717 7.39087C62.5254 7.39087 58.8404 11.0499 58.8404 15.5641C58.8404 20.0783 62.5254 23.7373 67.0717 23.7373C71.618 23.7373 75.3031 20.0783 75.3031 15.5641C75.3031 11.0499 71.618 7.39087 67.0717 7.39087ZM67.0717 20.0655C64.5693 20.0655 62.5383 18.0488 62.5383 15.5641C62.5383 13.0794 64.5693 11.0627 67.0717 11.0627C69.5741 11.0627 71.6052 13.0794 71.6052 15.5641C71.6052 18.0488 69.5741 20.0655 67.0717 20.0655Z" fill="white"/>
<path fill-rule="evenodd" clip-rule="evenodd" d="M56.3508 7.61202H53.0557C52.8886 7.61202 52.7558 7.74392 52.7558 7.90985V8.30553V8.94799C52.1687 8.2715 51.2389 7.89709 50.8704 7.76945C50.0391 7.49289 49.1522 7.34398 48.2309 7.34823C43.7489 7.361 40.0638 10.9775 39.9995 15.4279C39.9353 20.0101 43.6546 23.7457 48.2566 23.7457C49.1736 23.7457 50.0606 23.5968 50.8833 23.3203C51.2603 23.1884 52.1773 22.814 52.7601 22.146V22.7842V22.9374C52.7601 24.3244 52.2759 25.4561 51.3546 26.2135C50.5576 26.8729 49.4392 27.2346 48.2052 27.2346C46.4141 27.2346 44.6958 26.507 43.6889 25.3455C43.5775 25.2179 43.3804 25.2093 43.2561 25.3285L41.0708 27.4431C40.9508 27.5579 40.9508 27.7451 41.0665 27.8643C42.9261 29.7533 45.3429 30.7192 48.2523 30.7362H49.1822C53.2957 30.7362 56.6294 27.426 56.6294 23.3415V21.8992C56.6294 21.8992 56.6294 21.8779 56.6294 21.8652L56.6465 7.9056C56.6465 7.73966 56.5137 7.60777 56.3466 7.60777L56.3508 7.61202ZM52.7558 15.5938C52.7301 18.0402 50.7247 20.0144 48.2566 20.0144C45.7885 20.0144 43.7574 18.0147 43.7574 15.547C43.7574 13.0793 45.7713 11.0796 48.2566 11.0796C50.7419 11.0796 52.7301 13.0537 52.7558 15.5002V15.5938Z" fill="white"/>
<path d="M87.7251 19.3209C87.7251 16.4533 89.6105 14.9301 94.5939 14.2579C97.5119 13.8494 98.3089 13.4367 98.3089 12.6794C98.3089 11.654 97.2205 11.0413 95.5365 11.0413C93.634 11.0413 92.1814 12.0156 91.7144 13.5686C91.6715 13.709 91.5259 13.7983 91.3802 13.7643L87.8065 13.0283C87.6437 12.9942 87.5451 12.8368 87.5837 12.6751C88.3379 9.61601 91.4744 7.55249 95.4209 7.55249C99.9886 7.55249 102.821 9.86278 102.821 13.6409V23.4139C102.821 23.5713 102.692 23.699 102.534 23.699H99.1916C99.0331 23.699 98.9045 23.5713 98.9045 23.4139V21.8056H98.8445C97.9018 23.1246 95.8965 23.9415 93.5698 23.9415C90.0904 23.9415 87.7337 22.0694 87.7337 19.3167L87.7251 19.3209ZM98.7974 17.7254V15.8066H98.7374C98.3389 16.3852 97.4819 16.7213 95.2709 17.117C92.6014 17.6063 91.6544 18.1211 91.6544 19.0656C91.6544 20.0102 92.4514 20.4654 94.1697 20.4654C96.8092 20.4654 98.8017 19.2784 98.8017 17.7254H98.7974Z" fill="white"/>
<path d="M148.057 19.3209C148.057 16.4533 149.942 14.9301 154.926 14.2579C157.844 13.8494 158.641 13.4367 158.641 12.6794C158.641 11.654 157.552 11.0413 155.868 11.0413C153.966 11.0413 152.513 12.0156 152.046 13.5686C152.003 13.709 151.858 13.7983 151.712 13.7643L148.138 13.0283C147.976 12.9942 147.877 12.8368 147.916 12.6751C148.67 9.61601 151.806 7.55249 155.753 7.55249C160.32 7.55249 163.153 9.86278 163.153 13.6409V23.4139C163.153 23.5713 163.024 23.699 162.866 23.699H159.523C159.365 23.699 159.236 23.5713 159.236 23.4139V21.8056H159.176C158.234 23.1246 156.228 23.9415 153.902 23.9415C150.422 23.9415 148.066 22.0694 148.066 19.3167L148.057 19.3209ZM159.129 17.7254V15.8066H159.069C158.671 16.3852 157.814 16.7213 155.603 17.117C152.933 17.6063 151.986 18.1211 151.986 19.0656C151.986 20.0102 152.783 20.4654 154.502 20.4654C157.141 20.4654 159.134 19.2784 159.134 17.7254H159.129Z" fill="white"/>
<path fill-rule="evenodd" clip-rule="evenodd" d="M173.188 7.56519C177.494 7.56519 181 11.0455 181 15.3215V15.4321V23.4223C181 23.5798 180.871 23.7074 180.712 23.7074H177.464C177.306 23.7074 177.177 23.5798 177.177 23.4223V15.0406H177.173C177.066 12.9559 175.309 11.2795 173.188 11.2795C171.067 11.2795 169.31 12.9559 169.203 15.0406H169.199V23.4223C169.199 23.5798 169.07 23.7074 168.912 23.7074H165.664C165.505 23.7074 165.377 23.5798 165.377 23.4223V15.3342C165.377 11.0455 168.882 7.56519 173.188 7.56519Z" fill="white"/>
<path d="M127.524 7.8418H124.241C124.076 7.8418 123.941 7.97514 123.941 8.13962V23.4096C123.941 23.5741 124.076 23.7075 124.241 23.7075H127.524C127.689 23.7075 127.824 23.5741 127.824 23.4096V8.13962C127.824 7.97514 127.689 7.8418 127.524 7.8418Z" fill="white"/>
<path fill-rule="evenodd" clip-rule="evenodd" d="M121.418 7.84615H118.118C117.951 7.84615 117.818 7.97805 117.818 8.14398V8.53967V9.18212C117.231 8.50563 116.297 8.13122 115.929 8.00358C115.097 7.72702 114.21 7.57811 113.285 7.58236C108.794 7.59513 105.105 11.2159 105.041 15.6748C104.976 20.2613 108.7 24.0011 113.306 24.0011C114.227 24.0011 115.11 23.8522 115.937 23.5757C116.314 23.4438 117.231 23.0694 117.814 22.4014V23.0396V23.1928C117.814 24.5798 117.33 25.7158 116.408 26.4731C115.611 27.1326 114.493 27.4942 113.255 27.4942C111.459 27.4942 109.741 26.7624 108.734 25.6052C108.623 25.4775 108.421 25.469 108.301 25.5881L106.112 27.7027C105.992 27.8176 105.992 28.0048 106.107 28.1239C107.971 30.013 110.388 30.9788 113.306 31.0001H114.236C118.354 31.0001 121.692 27.6857 121.692 23.597V22.1504C121.692 22.1504 121.692 22.1291 121.692 22.1163L121.709 8.13973C121.709 7.97379 121.576 7.8419 121.409 7.8419L121.418 7.84615ZM117.818 15.8364C117.792 18.2871 115.787 20.2655 113.31 20.2655C110.834 20.2655 108.803 18.2616 108.803 15.7896C108.803 13.3177 110.821 11.3137 113.31 11.3137C115.8 11.3137 117.792 13.2921 117.818 15.7428V15.8364Z" fill="white"/>
<path fill-rule="evenodd" clip-rule="evenodd" d="M85.2056 20.291C82.836 19.9804 81.422 18.3892 81.422 16.0278V11.2626H84.9956C85.1627 11.2626 85.2955 11.1307 85.2955 10.9647V8.16092C85.2955 7.99499 85.1627 7.86309 84.9956 7.86309H81.422V3.29783C81.422 3.13189 81.2891 3 81.122 3H77.8312C77.6641 3 77.5312 3.13189 77.5312 3.29783V16.432C77.5312 20.5335 80.8778 23.8564 85.0085 23.8564H85.1756C85.2656 23.8564 85.3427 23.7841 85.3427 23.6905V20.4484C85.3427 20.3676 85.2827 20.2952 85.2013 20.2867L85.2056 20.291Z" fill="white"/>
<path fill-rule="evenodd" clip-rule="evenodd" d="M145.679 15.3854C145.679 11.1094 142.174 7.62912 137.867 7.62912C136.411 7.62912 135.048 8.1567 133.878 9.01614V3.30637C133.878 3.14044 133.745 3.00854 133.578 3.00854H130.352C130.184 3.00854 130.052 3.14044 130.052 3.30637V23.4225C130.052 23.5799 130.18 23.7075 130.339 23.7075H133.587C133.745 23.7075 133.874 23.5799 133.874 23.4225V15.0408C133.874 12.9645 135.746 11.2796 137.863 11.2796C139.98 11.2796 141.741 12.956 141.848 15.0408H141.852V23.4225C141.852 23.5799 141.981 23.7075 142.139 23.7075H145.387C145.546 23.7075 145.675 23.5799 145.675 23.4225V15.4364V15.3854H145.679Z" fill="white"/>
</g>
<defs>
<clipPath id="clip0_91_897">
<rect width="141" height="28" fill="white" transform="translate(39.9995 3)"/>
</clipPath>
</defs>
</svg>
