<svg height="229" viewBox="0 0 265 229" width="265" xmlns="http://www.w3.org/2000/svg"><g fill="none" fill-rule="evenodd" opacity=".28"><path d="m182.240691 37.4401706-33.989878 46.8858561c-1.49072 2.0061876-4.648573 1.3412753-5.203775-1.0958456l-1.084438-4.7650773c-.339841-1.4928081-1.773667-2.4710918-3.288444-2.2439834l-7.201203 1.0798144c-1.557925.2332155-3.021153-.807666-3.311354-2.3554382l-1.199373-6.4040745c-.2608-1.3928042-1.482702-2.3989515-2.90049-2.387119l-4.957104.0396963c-2.416693.0194664-3.814244-2.7310259-2.373545-4.670417l40.446866-55.58086236 22.928992 17.02053216c4.589387 3.4096792 5.544762 9.8889476 2.133746 14.4769184" fill="#a8deeb"/><path d="m152.444878 24.4763666c7.124452 4.8650812 14.248523 9.7297808 21.373357 14.5944803 2.140238 1.4618909 4.152558-2.016875 2.027594-3.4680784-7.124071-4.8646996-14.248524-9.7293992-21.372594-14.5940987-2.141002-1.4618909-4.152558 2.016875-2.028357 3.4676968m112.525529 10.3023992v107.7875432l-84.923336-62.9559683c-4.886844-3.6283902-5.906369-10.529813-2.276938-15.415124l38.909561-52.3708096c3.630194-4.88569279 10.535086-5.90405437 15.422312-2.27528241z" fill="#00acd4"/><path d="m245.965439 123.987623c.620879-.910724 1.241758-1.821066 1.863019-2.731408 1.48232-2.174133 2.965022-4.347503 4.44696-6.521255 1.803069-2.643236 3.605756-5.286472 5.408062-7.929708 1.55907-2.286352 3.118523-4.572322 4.677593-6.8582914.753379-1.1046246 1.583127-2.1874926 2.27312-3.3329586.009546-.0160311.021002-.0312989.031693-.0465667.348624-.5110893.096989-1.2698984-.411246-1.5664753-.565894-.331311-1.217702-.1019125-1.56709.4107036-.620879.9107236-1.242139 1.8210656-1.863018 2.7317893-1.48232 2.1733701-2.965022 4.3475031-4.447342 6.5208731-1.802687 2.643236-3.605374 5.286854-5.408062 7.929708-1.55907 2.286352-3.118523 4.572322-4.677593 6.858673-.752998 1.104625-1.582745 2.187111-2.272738 3.332959-.009546.016031-.021002.030917-.031693.046185-.348624.511471-.096989 1.269898.411246 1.566475.565894.330929 1.217702.101913 1.567089-.410703" fill="#0089a9"/><path d="m152.052991 2.17630894c-4.902119-3.63258891-11.830685-2.61499071-15.464698 2.28482476l-3.088739 4.1570375c-.979813 1.31913705-.708703 3.1821891.606369 4.1673433l26.360245 19.741634c1.323091.9908796 3.199856.7179678 4.185778-.6084214l3.472111-4.671562.000764.0003817c3.187255-4.3020815 7.316902-6.4895741 11.978076-4.285287z" fill="#008bac"/><path d="m36.2295857 182.156528h-4.1781412c-.3031844 0-.549474-.246193-.549474-.548877v-4.176886c0-.303447-.2459078-.549258-.5494741-.549258h-3.4323991c-.3031845 0-.5490923.245811-.5490923.549258v4.176886c0 .302684-.2462896.548877-.549474.548877h-4.1781412c-.3035663 0-.5494741.246193-.5494741.548877v3.431054c0 .303448.2459078.549259.5494741.549259h4.1781412c.3031844 0 .549474.245811.549474.549259v4.176504c0 .303447.2459078.549258.5490923.549258h3.4323991c.3035663 0 .5494741-.245811.5494741-.549258v-4.176504c0-.303448.2462896-.549259.549474-.549259h4.1781412c.3035663 0 .5490923-.245811.5490923-.549259v-3.431054c0-.302684-.245526-.548877-.5490923-.548877" fill="#006a81"/><path d="m165.04872 49.4516463c2.140238 1.4618909 4.152558-2.016875 2.027976-3.4680785-7.124834-4.8646995-13.599006-9.4080121-20.723076-14.2727117-2.14062-1.4618909-4.24 1.9554222-2.115418 3.406244 0 0 13.686066 9.4698467 20.810518 14.3345462m-6.461494 9.8819244c2.14062 1.4615091 4.152558-2.0168751 2.027976-3.4680785-7.124453-4.8646996-13.598624-9.4080122-20.723077-14.2727117-2.140237-1.4622726-4.239618 1.9554222-2.115036 3.4062439 0 0 13.686067 9.4698467 20.810137 14.3345463m-7.956835 9.8439457c2.140238 1.4615092 4.152558-2.0168751 2.027976-3.4680785-7.124453-4.8646996-13.599006-9.4080122-20.723077-14.2727117-2.140619-1.4622726-4.24 1.9554222-2.115418 3.4062439 0 0 13.686067 9.4698467 20.810519 14.3345463" fill="#00acd4"/><path d="m235.330844 52.1895046-11.897125 16.0124763c-2.47206 3.3272332-7.174092 4.0215359-10.50263 1.5512075l-25.32201-18.7950311 20.848703-28.0698317 25.322392 18.8022832c3.328156 2.4714735 4.022731 7.1716627 1.55067 10.4988958" fill="#65cce4"/><path d="m208.825117 24.5792333c2.387673 1.7725904 4.774964 3.5451808 7.162255 5.3181529 4.159812 3.0886739 8.320007 6.1773478 12.47982 9.2664034 1.330345.9874443 2.660309 1.9752703 3.990655 2.9630963.242471.18016.489525.3561212.728941.5412432 1.114604.8607216 1.917623 2.0832899 2.275029 3.4493754.412774 1.5786895.20696 3.2951708-.639207 4.7612603-.267673.4641408-.595678.8870586-.914518 1.3160835-1.186008 1.5966291-2.372399 3.19364-3.558789 4.7898874-2.583941 3.4783842-5.168264 6.9563868-7.752587 10.4340076-.050403.0687051-.101189.1370284-.152356.2053518-.369243.4969666-.081714 1.2786774.410865 1.5668569.58384.3408534 1.197464.0870264 1.567853-.4107035 2.303285-3.1005065 4.606952-6.2010129 6.910619-9.3015193l4.067789-5.4750295c.29402-.3961991.589949-.7912532.882824-1.1882157.945446-1.2809676 1.481174-2.7833181 1.636967-4.3620076.310821-3.1455464-1.246722-6.0319221-3.726801-7.8732176-1.037854-.7710234-2.07647-1.5416651-3.114705-2.3130702-4.078862-3.0283661-8.158487-6.0574956-12.237731-9.0862434-2.903926-2.1565754-5.763177-4.3982686-8.723235-6.4777416-.046585-.0324441-.091642-.0679417-.137464-.1019125-.496779-.3687171-1.278796-.081301-1.567089.4114669-.341369.5832296-.087442 1.1962314.410865 1.5664753" fill="#0089a9"/><path d="m221.937576 50.0081573c0 3.9291657-3.186491 7.1144084-7.117197 7.1144084s-7.116816-3.1852427-7.116816-7.1144084c0-3.9291658 3.18611-7.1144085 7.116816-7.1144085s7.117197 3.1852427 7.117197 7.1144085m-157.2821963 29.0837275c-2.0726513-2.264595-5.0579107-6.7968384-2.9138545-12.5913464.368098-.9946965.2016138-2.106955-.4654683-2.9314156-1.9959006-2.4668932-6.6922046-7.6995465-14.2072838-12.7772317-7.5143156-5.0776852-14.1225145-7.4835072-17.1562681-8.4152241-1.0141786-.3114629-2.1089265-.0511471-2.8947622.6607136-4.5802233 4.1490219-9.9000793 3.0692075-12.7746038 1.9909198-1.3104899-.4916228-2.7886095-.0057254-3.5561167 1.164169-20.10219737 30.6401642-6.54824925 51.5570363-1.82597979 57.3412386.90764409 1.111877 2.11961819 1.930994 3.48967579 2.358492 7.1301801 2.224135 31.5991499 6.999518 52.5498055-23.068104.7995821-1.1477561.6995389-2.7001086-.2451441-3.7322112" fill="#00acd4"/><path d="m8.05103602 104.343741c2.09365278 2.510788 5.49206768 3.210816 8.56858788 3.746333 3.0727017.535137 6.2011528.744687 9.3166211.590864 4.0055475-.197336 7.9893299-.956909 11.7810446-2.261923 4.7027954-1.618004 9.1092796-4.018101 13.0854251-6.9976099 5.1812464-3.8822173 9.6201873-8.6133237 13.4829251-13.7940665.5468011-.7332356 1.0806196-1.4756319 1.6041282-2.2252804.3539698-.5072723.0924064-1.2721886-.4108645-1.5668569-.5712392-.3336012-1.2123559-.0977139-1.5678531.4107035-3.6504322 5.228073-7.8950144 10.0755963-12.8578458 14.0994223-1.9588617 1.5882318-4.1411023 3.0970712-6.389402 4.3959789-1.0279251.593917-2.0779971 1.149282-3.1479251 1.66228-.5215994.25001-1.047781.490096-1.5781628.719495-.0706412.030535-.3230403.137792-.2676729.11489.1187536-.050002-.0904971.037024-.1156989.047712-.0672046.027482-.1344092.054964-.2012319.082064-.2669093.109165-.5345822.214894-.8030188.317952-1.9447334.748122-3.9436887 1.354634-5.9773919 1.808088-.9458285.210314-1.8989121.387802-2.8569597.531701-.1046253.015649-.2096325.030917-.3146397.046185-.1000433.014122-.3371686.045421-.098134.014122-.2359799.030918-.4719597.06069-.7083214.087408-.4482853.051529-.8973343.095424-1.3471469.132067-1.6530044.134356-3.3140274.168709-4.971232.103057-.7518516-.029772-1.5025577-.080537-2.2513545-.151532-.340987-.032444-.6815922-.069087-1.0210519-.109928-.0885879-.010688-.1764121-.021757-.265-.032826-.05384-.006871-.3119668-.04046-.1084438-.01336.213451.027864-.0576585-.008397-.105389-.015267-.0954611-.01336-.1909222-.027101-.2860015-.041223-1.1573703-.170618-2.3067219-.391619-3.4438544-.666821-1.2001369-.290088-2.4712969-.579031-3.5290058-1.231729-.6155331-.379405-1.1333141-.867592-1.59534582-1.421431-.39635446-.47521-1.21044668-.409177-1.61978386 0-.47081412.470248-.3975 1.142794 0 1.619531" fill="#0089a9"/><path d="m16.5325252 65.9554783c2.6465634-.7786573 5.4393732.6496445 6.3554179 3.2508942l2.1639121 6.1418502c.3551153 1.0088192 1.3849496 1.6157139 2.4403674 1.4374624l18.7351945-3.1650128c3.0104611-.5087991 5.8632205 1.5191451 6.3706917 4.5288081.5105259 3.0272211-1.5457061 5.88955-4.5779323 6.3739206l-23.8889481 3.815039c-3.2326945.5160513-6.3611455-1.3950943-7.3764698-4.5062882l-3.6867074-11.2970194c-.9064986-2.777211.6609726-5.75443 3.464474-6.5796541m64.2636074 94.3900577h-9.3647335c-.4849423 0-.8778602-.392764-.8778602-.877516v-9.361064c0-.484752-.3929179-.877516-.8774784-.877516h-7.7926801c-.4849424 0-.8778602.392764-.8778602.877516v9.361064c0 .484752-.3929179.877516-.8778603.877516h-9.3647334c-.4849424 0-.8778602.392764-.8778602.877516v7.789245c0 .484752.3929178.877516.8778602.877516h9.3647334c.4849424 0 .8778603.392764.8778603.877516v9.361064c0 .484752.3929178.877516.8778602.877516h7.7926801c.4845605 0 .8778602-.392764.8778602-.877516v-9.361064c0-.484752.3925361-.877516.8774784-.877516h9.3647335c.4849423 0 .8778602-.392764.8778602-.877516v-7.789245c0-.484752-.3929179-.877516-.8778602-.877516" fill="#a8deeb"/><g fill="#004757"><path d="m160.466 32.527-16.988-7.759 2.338-3.212z"/><path d="m212.931 69.753-29.528-13.143 4.206-5.652z"/><path d="m105.278161 16.8886948h-5.5111596c-.4601224 0-.8331844-.3732974-.8331844-.8336213v-5.5086186c0-.4603239-.3734438-.83323963-.8335663-.83323963h-4.4962176c-.4605043 0-.8339481.37291573-.8339481.83323963v5.5086186c0 .4603239-.3726801.8336213-.8331844.8336213h-5.5115418c-.4601225 0-.8335663.3729158-.8335663.8332397v4.4944556c0 .4599422.3734438.8332397.8335663.8332397h5.5115418c.4605043 0 .8331844.3729157.8331844.8328579v5.509382c0 .4599422.3734438.8328579.8339481.8328579h4.4962176c.4601225 0 .8335663-.3729157.8335663-.8328579v-5.509382c0-.4599422.373062-.8328579.8331844-.8328579h5.5111596c.460505 0 .833567-.3732975.833567-.8332397v-4.4944556c0-.4603239-.373062-.8332397-.833567-.8332397"/></g><path d="m134.312501 108.479021h-5.637933c-.425374 0-.769798-.344288-.769798-.769878v-5.635723c0-.425208-.345187-.769878-.77018-.769878h-4.62299c-.425756 0-.770562.34467-.770562.769878v5.635723c.000382.42559-.344423.769878-.769798.769878h-5.638314c-.424993 0-.77018.344671-.77018.769879v4.62156c0 .424826.345187.769878.77018.769878h5.638314c.425375 0 .77018.344289.77018.769497v5.636104c0 .424827.344424.769497.77018.769497h4.62299c.424993 0 .77018-.34467.77018-.769497v-5.636104c0-.425208.344424-.769497.769798-.769497h5.637933c.425374 0 .77018-.345052.77018-.77026v-4.621178c0-.425208-.344806-.769879-.77018-.769879" fill="#006a81"/><path d="m198.607801 225.570603-67.450519-44.733479c-3.037953-2.081763-4.025785-6.113223-2.294502-9.362972 0 0 19.867744-39.25616 20.427147-39.789006 1.449863-1.38059 4.624135-4.038712 9.435756-6.13727 3.98951-1.739383 8.016823-2.122223 10.486974-2.014966 1.829035.079774 3.555353.393145 5.250742 1.145466l59.933149 40.422618c1.369293.903472 2.402564 2.241694 2.897053 3.805879.626225 1.981377 1.360511 4.052453 1.429243 8.528206.083242 5.446402-1.025252 9.732071-1.858436 11.985978-.284474.769878-28.59709 34.802545-28.59709 34.802545-2.387672 2.876834-6.57536 3.460827-9.659517 1.347001" fill="#00acd4"/><path d="m228.597859 183.877513c-2.975713-1.945116-5.950663-3.890233-8.926376-5.835349.959575-3.048596 2.187968-7.315562 2.754243-10.788602.631571-3.878782.596059-7.65985.172976-10.109567l-4.640937-3.129897c.058422 2.827595-.005346 7.016313-.616679 9.962615-.940482 4.534151-2.16353 8.136968-3.10134 10.514545-4.6417-3.034473-9.282636-6.068947-13.924337-9.10342-2.35407-1.539375-4.708523-3.078368-7.062593-4.617361-.23598-.169854-.479215-.328639-.730469-.477119-2.34987-1.536321-4.699359-3.072642-7.049611-4.608582-4.652392-3.040962-9.304784-6.081924-13.957557-9.122123-.341751-.22291-.682356-.445819-1.024107-.668729 2.021484-2.34895 5.266398-5.757484 8.879027-8.136969 3.502659-2.307726 6.698315-3.457772 8.546823-4.203604l-4.36639-2.880269c-2.723314.686669-6.431023 1.70923-12.302644 6.019327-3.212075 2.357346-5.272508 4.239865-6.481809 5.462433-1.719445-1.122564-3.438127-2.24551-5.157572-3.368074-2.94822-1.924505-5.896441-3.848247-8.846952-5.768935-.547565-.357266-1.095894-.714151-1.64384-1.071035-.380699.628269-1.341038 2.35353-2.662601 4.76355 2.596542 1.688618 5.190792 3.379907 7.784661 5.072723 3.756203 2.450862 7.511643 4.903251 11.266319 7.356022 4.506909 2.944393 9.013818 5.88955 13.520727 8.835088 1.206629.788581 2.413639 1.578308 3.620649 2.366889-2.835577 1.71381-4.712342 4.842561-4.657738 8.393849.081715 5.318535 4.460706 9.564126 9.781326 9.482443 4.845987-.074049 8.799603-3.711982 9.405972-8.3782 3.819208 2.497047 7.639179 4.994476 11.458768 7.491905 4.651247 3.04058 9.302493 6.081542 13.954503 9.122504 3.632868 2.374523 7.265735 4.749046 10.899366 7.123188 2.023012-2.417655 3.317082-3.998635 3.374741-4.155893.013746-.035879.027493-.077484.041239-.11489-2.769517-1.809615-5.538653-3.618848-8.307788-5.428463" fill="#a8deeb"/><path d="m200.876491 227.973333c1.972608.859577 4.230454 1.024087 6.213754.092752.953847-.448109 1.785504-1.189742 2.492298-1.965346.823257-.903853 1.596873-1.855418 2.375454-2.797059 2.827558-3.421512 5.597457-6.891117 8.35781-10.366829 3.13456-3.945579 6.248501-7.908334 9.321967-11.902388 2.41822-3.143256 4.973905-6.290711 6.915583-9.759553 1.638113-2.926453 2.432349-6.055587 2.609907-9.395416.214978-4.05627-.265-8.09231-1.115368-12.055065-.218797-1.016835-.457449-2.028708-.702975-3.039435-.348624-1.431356-2.558358-.825225-2.209352.609184.921772 3.784885 1.691189 7.592291 1.778631 11.498936.039712 1.790912-.005727 3.702058-.282565 5.402126-.226433 1.388224-.667082 2.94134-1.181426 4.092531-1.654532 3.701676-4.32897 6.965548-6.779647 10.172165-.308148.403452-.616679.806139-.926355 1.208446-.161902.210314-.323422.420627-.485706.630941-.087824.113745-.175266.227109-.26309.34009-.038948.051147-.07866.102294-.117608.15306.098897-.127868.030547-.039696-.029021.037406-.715958.924846-1.433443 1.848548-2.15322 2.77034-1.538451 1.971454-3.084539 3.937182-4.636736 5.897948-2.847796 3.598999-5.709338 7.18693-8.61441 10.739745-.938955 1.148519-1.879819 2.296275-2.847031 3.420748-1.08062 1.256539-2.249064 2.521094-4.018149 2.640946-.861059.058399-1.749992-.056491-2.54652-.403833-.566275-.246575-1.228775-.166419-1.567089.411085-.283711.484753-.159229 1.318374.410864 1.566475m-18.540339-49.466379c2.607997 1.27486 5.638696 1.574872 8.432651.742778 2.55683-.761481 4.734107-2.441702 6.211845-4.650951.805691-1.205392 1.379222-2.589035 1.661786-4.010848.120281-.60575-.172975-1.23631-.800345-1.408454-.563221-.154968-1.287961.190466-1.409006.799651-.523509 2.63522-2.136419 4.959741-4.481326 6.297581-2.55072 1.455021-5.823508 1.540902-8.45938.252682-.555584-.271385-1.238703-.150388-1.56709.411085-.295165.503838-.147391 1.293946.410865 1.566476" fill="#0089a9"/></g></svg>