<svg width="143" height="32" viewBox="0 0 143 32" fill="none" xmlns="http://www.w3.org/2000/svg">
<path fill-rule="evenodd" clip-rule="evenodd" d="M15.0016 1.01711C7.51617 1.35316 1.42097 7.27443 1.02129 14.6037C0.695458 20.6186 4.14057 25.8805 9.25393 28.3264C11.1611 29.2367 13.4289 28.0925 13.7938 26.0464C14.0415 24.6682 13.3246 23.3027 12.043 22.6901C9.13663 21.2949 7.18599 18.279 7.41625 14.8462C7.6856 10.8306 11.0047 7.56794 15.1058 7.29144C19.9542 6.9639 23.9945 10.72 23.9945 15.3949C23.9945 18.6065 22.0916 21.38 19.3286 22.6987C18.0687 23.3027 17.378 24.6596 17.6212 26.0124L17.6343 26.0804C17.9949 28.0925 20.2235 29.2367 22.096 28.3477C27.0051 26.0209 30.3938 21.095 30.3938 15.3949C30.3938 7.21913 23.4341 0.63427 15.0016 1.01711Z" fill="white"/>
<path fill-rule="evenodd" clip-rule="evenodd" d="M15.7097 20.4567C12.8554 20.4567 10.5355 18.1852 10.5355 15.3905C10.5355 12.5957 12.8554 10.3242 15.7097 10.3242C18.564 10.3242 20.8839 12.5957 20.8839 15.3905C20.8839 18.1852 18.564 20.4567 15.7097 20.4567Z" fill="white"/>
<g clip-path="url(#clip0_88_688)">
<path fill-rule="evenodd" clip-rule="evenodd" d="M65.4788 7.23608C61.0327 7.23608 57.4263 10.8998 57.4263 15.4164C57.4263 19.9331 61.0327 23.5968 65.4788 23.5968C69.9249 23.5968 73.5313 19.9331 73.5313 15.4164C73.5313 10.8998 69.9249 7.23608 65.4788 7.23608ZM65.4788 19.9203C63.0311 19.9203 61.0453 17.903 61.0453 15.4164C61.0453 12.9299 63.0311 10.9126 65.4788 10.9126C67.9265 10.9126 69.9123 12.9299 69.9123 15.4164C69.9123 17.903 67.9265 19.9203 65.4788 19.9203Z" fill="white"/>
<path fill-rule="evenodd" clip-rule="evenodd" d="M54.9953 7.45804H51.771C51.6114 7.45804 51.4771 7.59025 51.4771 7.75659V8.15324V8.79299C50.9019 8.11912 49.9909 7.74379 49.6298 7.61584C48.8195 7.33861 47.9504 7.1936 47.0478 7.1936C42.6647 7.2064 39.0624 10.8232 38.9995 15.2801C38.9365 19.865 42.5765 23.6012 47.0772 23.6012C47.9756 23.6012 48.8405 23.4519 49.6466 23.1747C50.0119 23.0425 50.9145 22.6672 51.4813 22.0018V22.6416V22.7951C51.4813 24.1813 51.0069 25.3158 50.1084 26.0749C49.3275 26.7318 48.2359 27.0943 47.031 27.0943C45.2761 27.0943 43.5967 26.365 42.6143 25.2049C42.5051 25.0769 42.312 25.0684 42.1902 25.1878L40.0533 27.3033C39.9357 27.4184 39.9357 27.6061 40.0491 27.7255C41.867 29.6149 44.2307 30.5788 47.0814 30.6002H47.9882C52.0103 30.6002 55.2724 27.2862 55.2724 23.2003V21.7545C55.2724 21.7545 55.2724 21.7331 55.2724 21.7203L55.2892 7.75232C55.2892 7.59025 55.1591 7.45377 54.9953 7.45377V7.45804ZM51.4813 15.4465C51.4561 17.8946 49.4954 19.8736 47.0814 19.8736C44.6673 19.8736 42.6773 17.869 42.6773 15.3995C42.6773 12.9301 44.6505 10.9255 47.0814 10.9255C49.5122 10.9255 51.4603 12.9045 51.4813 15.3526V15.4465Z" fill="white"/>
<path d="M103.386 18.9053C103.386 16.0392 105.229 14.5166 110.095 13.8427C112.946 13.4333 113.722 13.0238 113.722 12.2646C113.722 11.241 112.656 10.6269 111.015 10.6269C109.155 10.6269 107.736 11.6036 107.278 13.1518C107.236 13.2925 107.093 13.3778 106.95 13.348L103.462 12.6144C103.302 12.5803 103.206 12.4225 103.243 12.2604C103.978 9.20235 107.047 7.14233 110.897 7.14233C115.36 7.14233 118.122 9.45399 118.122 13.2285V22.9955C118.122 23.1533 117.996 23.2813 117.841 23.2813H114.575C114.419 23.2813 114.293 23.1533 114.293 22.9955V21.3876H114.235C113.315 22.7055 111.355 23.5244 109.079 23.5244C105.683 23.5244 103.378 21.652 103.378 18.9011L103.386 18.9053ZM114.205 17.3102V15.3909H114.147C113.756 15.971 112.916 16.3036 110.763 16.7003C108.155 17.1865 107.228 17.7026 107.228 18.6494C107.228 19.5963 108.004 20.0484 109.684 20.0484C112.261 20.0484 114.205 18.8627 114.205 17.3102Z" fill="white"/>
<path d="M97.7266 23.2897C97.5671 23.2897 97.4327 23.1575 97.4327 22.9911V14.6445C97.4873 13.6763 97.1682 12.7422 96.5343 12.0172C95.8961 11.2879 95.0187 10.8528 94.0656 10.7974C93.9942 10.7931 93.9187 10.7889 93.8473 10.7889C91.9538 10.7889 90.3794 12.2944 90.2661 14.218C90.2577 14.363 90.2577 14.508 90.2661 14.6487V22.9911C90.2661 23.1532 90.1359 23.2897 89.9722 23.2897H86.9241C86.7646 23.2897 86.6303 23.1575 86.6303 22.9911V14.6445C86.6848 13.672 86.3574 12.738 85.7192 12.0087C85.0769 11.2793 84.1952 10.8486 83.2338 10.7931C83.1666 10.7931 83.0952 10.7889 83.028 10.7889C81.1178 10.7889 79.5392 12.3072 79.4342 14.2435C79.4258 14.3758 79.4258 14.5122 79.4342 14.6487V22.9911C79.4342 23.1532 79.3041 23.2897 79.1403 23.2897H75.916C75.7564 23.2897 75.6221 23.1575 75.6221 22.9911V7.73082C75.6221 7.56875 75.7522 7.43227 75.916 7.43227H78.7583C78.9178 7.43227 79.0522 7.56449 79.0522 7.73082V9.51788L79.409 9.15108L79.472 9.09137C80.7147 7.85025 82.3605 7.16784 84.1028 7.16784C84.2498 7.16784 84.4009 7.1721 84.5479 7.18063C86.2314 7.29153 87.7932 8.04644 88.9478 9.30889L89.0233 9.38993L89.1409 9.52641L89.3298 9.32169C90.5809 7.95261 92.3569 7.16357 94.1958 7.16357H94.2881C98.3816 7.16357 101.241 9.8932 101.241 13.8V22.9869C101.241 23.1489 101.111 23.2854 100.947 23.2854H97.7224L97.7266 23.2897Z" fill="white"/>
<path d="M124.055 23.2601H120.784C120.625 23.2601 120.49 23.1278 120.49 22.9615V7.7481C120.49 7.58603 120.621 7.44955 120.784 7.44955H123.786C123.946 7.44955 124.08 7.58176 124.08 7.7481V9.55648L124.575 8.95084L124.613 8.90819C125.734 7.73957 127.233 7.14673 129.063 7.14673C129.744 7.14673 130.415 7.24056 131.171 7.44102C131.259 7.46234 131.31 7.55191 131.289 7.63721L130.562 10.8019C130.546 10.8744 130.478 10.9298 130.403 10.9298C130.39 10.9298 130.378 10.9298 130.365 10.9256C129.689 10.7592 129.168 10.6995 128.434 10.6995C125.797 10.6995 124.344 12.542 124.344 15.8815V22.9615C124.344 23.1236 124.214 23.2601 124.051 23.2601H124.055Z" fill="white"/>
<path fill-rule="evenodd" clip-rule="evenodd" d="M140.861 19.882C138.548 19.575 137.166 17.9798 137.166 15.6213V10.8572H140.659C140.819 10.8572 140.953 10.725 140.953 10.5587V7.75653C140.953 7.59446 140.823 7.45798 140.659 7.45798H137.166V2.89865C137.166 2.73658 137.036 2.6001 136.873 2.6001H133.657C133.497 2.6001 133.363 2.73231 133.363 2.89865V16.0264C133.363 20.1252 136.633 23.4476 140.668 23.4476H140.832C140.92 23.4476 140.995 23.3751 140.995 23.2813V20.0441C140.995 19.9631 140.937 19.8906 140.857 19.882H140.861Z" fill="white"/>
</g>
<defs>
<clipPath id="clip0_88_688">
<rect width="102" height="28" fill="white" transform="translate(38.9995 2.6001)"/>
</clipPath>
</defs>
</svg>
