<svg width="143" height="32" viewBox="0 0 143 32" fill="none" xmlns="http://www.w3.org/2000/svg">
<path fill-rule="evenodd" clip-rule="evenodd" d="M15.0016 1.01711C7.51617 1.35316 1.42097 7.27443 1.02129 14.6037C0.695458 20.6186 4.14057 25.8805 9.25393 28.3264C11.1611 29.2367 13.4289 28.0925 13.7938 26.0464C14.0415 24.6682 13.3246 23.3027 12.043 22.6901C9.13663 21.2949 7.18599 18.279 7.41625 14.8462C7.6856 10.8306 11.0047 7.56794 15.1058 7.29144C19.9542 6.9639 23.9945 10.72 23.9945 15.3949C23.9945 18.6065 22.0916 21.38 19.3286 22.6987C18.0687 23.3027 17.378 24.6596 17.6212 26.0124L17.6343 26.0804C17.9949 28.0925 20.2235 29.2367 22.096 28.3477C27.0051 26.0209 30.3938 21.095 30.3938 15.3949C30.3938 7.21913 23.4341 0.63427 15.0016 1.01711Z" fill="white"/>
<path fill-rule="evenodd" clip-rule="evenodd" d="M15.7096 20.4567C12.8554 20.4567 10.5355 18.1852 10.5355 15.3905C10.5355 12.5957 12.8554 10.3242 15.7096 10.3242C18.5639 10.3242 20.8838 12.5957 20.8838 15.3905C20.8838 18.1852 18.5639 20.4567 15.7096 20.4567Z" fill="white"/>
<g clip-path="url(#clip0_91_776)">
<path fill-rule="evenodd" clip-rule="evenodd" d="M66.4679 7.04272C61.8551 7.04272 58.1161 10.7193 58.1161 15.2551C58.1161 19.791 61.8551 23.4675 66.4679 23.4675C71.0808 23.4675 74.8197 19.791 74.8197 15.2551C74.8197 10.7193 71.0808 7.04272 66.4679 7.04272ZM66.4679 19.7781C63.9289 19.7781 61.8681 17.7517 61.8681 15.2551C61.8681 12.7585 63.9289 10.7321 66.4679 10.7321C69.0069 10.7321 71.0677 12.7585 71.0677 15.2551C71.0677 17.7517 69.0069 19.7781 66.4679 19.7781Z" fill="white"/>
<path fill-rule="evenodd" clip-rule="evenodd" d="M55.5898 7.26505H52.2465C52.0769 7.26505 51.9422 7.39758 51.9422 7.56431V7.96189V8.60742C51.3465 7.92769 50.4031 7.55148 50.0292 7.42323C49.1901 7.14535 48.2902 7 47.3511 7C42.8034 7.01283 39.0645 10.6466 38.9992 15.1183C38.934 19.7226 42.7078 23.4761 47.3771 23.4761C48.3075 23.4761 49.2075 23.3265 50.0423 23.0486C50.4248 22.916 51.3552 22.5398 51.9465 21.8687V22.5099V22.6638C51.9465 24.0575 51.4552 25.1947 50.5205 25.9556C49.7118 26.6182 48.5771 26.9816 47.325 26.9816C45.5077 26.9816 43.7643 26.2506 42.7426 25.0835C42.6295 24.9552 42.4295 24.9467 42.3035 25.0664L40.0862 27.1911C39.9644 27.3065 39.9644 27.4946 40.0818 27.6143C41.9687 29.5125 44.4208 30.4829 47.3728 30.5H48.3162C52.49 30.5 55.8724 27.174 55.8724 23.0699V21.6207C55.8724 21.6207 55.8724 21.5993 55.8724 21.5865L55.8898 7.56003C55.8898 7.39331 55.7551 7.26078 55.5855 7.26078L55.5898 7.26505ZM51.9422 15.2851C51.9161 17.7432 49.8814 19.7269 47.3771 19.7269C44.8729 19.7269 42.8121 17.7176 42.8121 15.238C42.8121 12.7585 44.8555 10.7492 47.3771 10.7492C49.8988 10.7492 51.9161 12.7329 51.9422 15.191V15.2851Z" fill="white"/>
<path fill-rule="evenodd" clip-rule="evenodd" d="M137.069 17.6197C136.93 17.5385 136.752 17.5812 136.665 17.7138C135.839 18.9535 134.417 19.7743 132.8 19.7743C130.665 19.7743 128.87 18.3508 128.339 16.4142H140.817C140.969 16.4142 141.099 16.303 141.117 16.1534C141.152 15.8498 141.169 15.542 141.169 15.23C141.169 10.553 137.204 6.79099 132.404 7.00902C128.117 7.2014 124.635 10.6257 124.435 14.8452C124.213 19.5691 128.043 23.4637 132.795 23.4637C135.791 23.4637 138.413 21.9162 139.895 19.5948C139.986 19.4494 139.943 19.2613 139.791 19.1758L137.065 17.624L137.069 17.6197ZM132.8 10.6856C134.708 10.6856 136.347 11.8227 137.052 13.4473H128.548C129.252 11.8227 130.891 10.6856 132.8 10.6856Z" fill="white"/>
<path d="M116.061 23.1982H112.666C112.496 23.1982 112.362 23.0657 112.362 22.8989V7.60278C112.362 7.43606 112.496 7.30353 112.666 7.30353H115.783C115.953 7.30353 116.087 7.43606 116.087 7.60278V9.41968L116.601 8.81262L116.64 8.76987C117.805 7.59423 119.357 7 121.261 7C121.97 7 122.665 7.09405 123.448 7.29925C123.539 7.32063 123.592 7.41041 123.574 7.49591L122.818 10.6766C122.8 10.7492 122.731 10.8048 122.652 10.8048C122.639 10.8048 122.626 10.8048 122.613 10.8005C121.913 10.6338 121.37 10.5739 120.609 10.5739C117.87 10.5739 116.361 12.425 116.361 15.7852V22.8989C116.361 23.0657 116.227 23.1982 116.057 23.1982H116.061Z" fill="white"/>
<path fill-rule="evenodd" clip-rule="evenodd" d="M102.171 23.3554C97.8012 23.3554 94.2449 19.8584 94.2449 15.562V15.5107V7.48638C94.2449 7.3282 94.3753 7.19995 94.5362 7.19995H97.8317C97.9925 7.19995 98.123 7.3282 98.123 7.48638V15.9082H98.1273C98.236 18.003 100.019 19.6874 102.171 19.6874C104.323 19.6874 106.105 18.003 106.214 15.9082H106.218V7.48638C106.218 7.3282 106.349 7.19995 106.51 7.19995H109.805C109.966 7.19995 110.096 7.3282 110.096 7.48638V15.5491C110.096 19.8584 106.54 23.3554 102.171 23.3554Z" fill="white"/>
<path d="M84.7106 23.5872C80.5151 23.5872 77.4413 21.5993 76.6022 18.3717C76.5631 18.2135 76.6631 18.0553 76.8196 18.0126L80.0195 17.1917C80.176 17.1533 80.3325 17.2388 80.3847 17.3927C81.0238 19.2224 82.489 20.1501 84.7367 20.1501C86.9844 20.1501 88.1105 19.6371 88.1105 18.7479C88.1105 17.8586 87.2235 17.3884 84.4671 16.9267C79.2021 16.0417 77.2414 14.6652 77.2414 11.8436C77.2414 9.0221 79.9369 7 83.9411 7C87.4931 7 90.6364 8.83828 91.5799 11.4161C91.6364 11.57 91.5451 11.741 91.3886 11.7923L88.2844 12.8098C88.1409 12.8568 87.98 12.7927 87.9148 12.6602C87.2757 11.2836 85.7714 10.4414 83.9106 10.4414C82.1977 10.4414 81.089 10.9929 81.089 11.8479C81.089 12.7029 81.9194 13.0449 85.1193 13.6092C90.0582 14.4514 91.9842 15.8836 91.9842 18.7179C91.9842 21.5523 89.0626 23.5915 84.7106 23.5915V23.5872Z" fill="white"/>
</g>
<defs>
<clipPath id="clip0_91_776">
<rect width="102.174" height="23.5" fill="white" transform="translate(38.9995 7)"/>
</clipPath>
</defs>
</svg>
