<svg width="140" height="32" viewBox="0 0 140 32" fill="none" xmlns="http://www.w3.org/2000/svg">
<path fill-rule="evenodd" clip-rule="evenodd" d="M15.0016 1.01711C7.51617 1.35316 1.42097 7.27443 1.02129 14.6037C0.695458 20.6186 4.14057 25.8805 9.25393 28.3264C11.1611 29.2367 13.4289 28.0925 13.7938 26.0464C14.0415 24.6682 13.3246 23.3027 12.043 22.6901C9.13663 21.2949 7.18599 18.279 7.41625 14.8462C7.6856 10.8306 11.0047 7.56794 15.1058 7.29144C19.9542 6.9639 23.9945 10.72 23.9945 15.3949C23.9945 18.6065 22.0916 21.38 19.3286 22.6987C18.0687 23.3027 17.378 24.6596 17.6212 26.0124L17.6343 26.0804C17.9949 28.0925 20.2235 29.2367 22.096 28.3477C27.0051 26.0209 30.3938 21.095 30.3938 15.3949C30.3938 7.21913 23.4341 0.63427 15.0016 1.01711Z" fill="white"/>
<path fill-rule="evenodd" clip-rule="evenodd" d="M15.7097 20.4567C12.8554 20.4567 10.5355 18.1852 10.5355 15.3905C10.5355 12.5957 12.8554 10.3242 15.7097 10.3242C18.564 10.3242 20.8839 12.5957 20.8839 15.3905C20.8839 18.1852 18.564 20.4567 15.7097 20.4567Z" fill="white"/>
<g clip-path="url(#clip0_88_715)">
<path fill-rule="evenodd" clip-rule="evenodd" d="M65.4559 7.07227C61.013 7.07227 57.4117 10.7599 57.4117 15.3093C57.4117 19.8588 61.013 23.5464 65.4559 23.5464C69.8988 23.5464 73.5 19.8588 73.5 15.3093C73.5 10.7599 69.8988 7.07227 65.4559 7.07227ZM65.4559 19.8459C63.0104 19.8459 61.0255 17.8135 61.0255 15.3093C61.0255 12.8052 63.0104 10.7727 65.4559 10.7727C67.9013 10.7727 69.8862 12.8052 69.8862 15.3093C69.8862 17.8135 67.9013 19.8459 65.4559 19.8459Z" fill="white"/>
<path fill-rule="evenodd" clip-rule="evenodd" d="M54.9788 7.29524H51.7587C51.5953 7.29524 51.4655 7.42816 51.4655 7.59539V7.99416V8.64164C50.8919 7.95986 49.9832 7.58253 49.6231 7.45389C48.8107 7.17517 47.9439 7.0251 47.0436 7.02939C42.6635 7.04225 39.0623 10.687 38.9995 15.1721C38.9366 19.7902 42.5714 23.555 47.0687 23.555C47.9648 23.555 48.8316 23.4049 49.6356 23.1262C50.0041 22.9932 50.9002 22.6159 51.4697 21.9427V22.5859V22.7403C51.4697 24.1381 50.9965 25.2787 50.0962 26.0419C49.3174 26.7066 48.2244 27.071 47.0185 27.071C45.2681 27.071 43.5889 26.3378 42.6049 25.1672C42.496 25.0386 42.3034 25.03 42.1819 25.1501L40.0463 27.2811C39.9291 27.3969 39.9291 27.5856 40.0421 27.7056C41.8595 29.6095 44.2212 30.5828 47.0645 30.6H47.9732C51.9932 30.6 55.251 27.264 55.251 23.1476V21.694C55.251 21.694 55.251 21.6726 55.251 21.6597L55.2678 7.5911C55.2678 7.42387 55.1379 7.29095 54.9746 7.29095L54.9788 7.29524ZM51.4655 15.3393C51.4404 17.8049 49.4807 19.7945 47.0687 19.7945C44.6567 19.7945 42.6719 17.7792 42.6719 15.2922C42.6719 12.8052 44.64 10.7899 47.0687 10.7899C49.4974 10.7899 51.4404 12.7795 51.4655 15.245V15.3393Z" fill="white"/>
<path fill-rule="evenodd" clip-rule="evenodd" d="M115.647 17.8821C115.513 17.8006 115.341 17.8435 115.257 17.9764C114.462 19.2199 113.092 20.0432 111.535 20.0432C109.479 20.0432 107.749 18.6153 107.238 16.6729H119.256C119.403 16.6729 119.529 16.5614 119.545 16.4113C119.579 16.1069 119.596 15.7982 119.596 15.4852C119.596 10.7942 115.777 7.02083 111.154 7.23952C107.025 7.43247 103.671 10.8671 103.478 15.0992C103.265 19.8374 106.954 23.7437 111.531 23.7437C114.416 23.7437 116.941 22.1914 118.369 19.8631C118.457 19.7173 118.415 19.5286 118.268 19.4429L115.643 17.8864L115.647 17.8821ZM111.535 10.9271C113.373 10.9271 114.952 12.0677 115.63 13.6971H107.439C108.118 12.0677 109.696 10.9271 111.535 10.9271Z" fill="white"/>
<path fill-rule="evenodd" clip-rule="evenodd" d="M129.817 23.7866C131.446 23.7952 132.966 23.3107 134.235 22.4659V23.182C134.235 23.3493 134.365 23.4822 134.528 23.4822H137.711C137.874 23.4822 138.004 23.3493 138.004 23.182V2.90025C138.004 2.73302 137.874 2.6001 137.711 2.6001H134.524C134.361 2.6001 134.231 2.73302 134.231 2.90025V3.9465V8.56028C132.97 7.72414 131.467 7.23961 129.851 7.23961C125.349 7.23961 121.71 11.0087 121.773 15.631C121.836 20.1162 125.429 23.7609 129.809 23.7823L129.817 23.7866ZM129.859 11.0044C132.133 11.0044 134.001 12.7667 134.239 15.0264V15.9998C134.001 18.2595 132.133 20.0218 129.859 20.0218C127.426 20.0218 125.454 18.0022 125.454 15.511C125.454 13.0197 127.426 11.0001 129.859 11.0001V11.0044Z" fill="white"/>
<path d="M97.779 23.4823C97.6156 23.4823 97.4858 23.3493 97.4858 23.1821V14.765C97.5403 13.7916 97.222 12.8483 96.5855 12.115C95.949 11.3818 95.0697 10.9444 94.1149 10.8844C94.0437 10.8801 93.9684 10.8758 93.8972 10.8758C92.0044 10.8758 90.43 12.3938 90.3169 14.3319C90.3085 14.4777 90.3085 14.6235 90.3169 14.7693V23.1821C90.3169 23.3493 90.1871 23.4823 90.0238 23.4823H86.9753C86.812 23.4823 86.6822 23.3493 86.6822 23.1821V14.765C86.7366 13.783 86.41 12.8397 85.7693 12.1065C85.1286 11.3732 84.2451 10.9359 83.2861 10.8801C83.2191 10.8801 83.148 10.8758 83.081 10.8758C81.1715 10.8758 79.5928 12.4066 79.4881 14.3619C79.4797 14.4991 79.4797 14.6363 79.4881 14.7693V23.1821C79.4881 23.3493 79.3583 23.4823 79.195 23.4823H75.9665C75.8031 23.4823 75.6733 23.3493 75.6733 23.1821V7.79284C75.6733 7.62561 75.8031 7.49269 75.9665 7.49269H78.8097C78.9731 7.49269 79.1029 7.62561 79.1029 7.79284V9.59376L79.4588 9.225L79.5216 9.16497C80.7653 7.91719 82.411 7.22684 84.1571 7.22684C84.3037 7.22684 84.4544 7.23113 84.601 7.2397C86.2844 7.35119 87.8505 8.11443 89.002 9.38365L89.0774 9.46512L89.1947 9.60233L89.3831 9.39223C90.6351 8.01152 92.4106 7.21826 94.2531 7.21826H94.3452C98.4406 7.21826 101.301 9.97109 101.301 13.9117V23.1735C101.301 23.3408 101.171 23.4737 101.007 23.4737H97.779V23.4823Z" fill="white"/>
</g>
<defs>
<clipPath id="clip0_88_715">
<rect width="99" height="28" fill="white" transform="translate(38.9995 2.6001)"/>
</clipPath>
</defs>
</svg>
