<svg width="140" height="32" viewBox="0 0 140 32" fill="none" xmlns="http://www.w3.org/2000/svg">
<path fill-rule="evenodd" clip-rule="evenodd" d="M16.0016 1.01711C8.51617 1.35316 2.42097 7.27443 2.02129 14.6037C1.69546 20.6186 5.14057 25.8805 10.2539 28.3264C12.1611 29.2367 14.4289 28.0925 14.7938 26.0464C15.0415 24.6682 14.3246 23.3027 13.043 22.6901C10.1366 21.2949 8.18599 18.279 8.41625 14.8462C8.6856 10.8306 12.0047 7.56794 16.1058 7.29144C20.9542 6.9639 24.9945 10.72 24.9945 15.3949C24.9945 18.6065 23.0916 21.38 20.3286 22.6987C19.0687 23.3027 18.378 24.6596 18.6212 26.0124L18.6343 26.0804C18.9949 28.0925 21.2235 29.2367 23.096 28.3477C28.0051 26.0209 31.3938 21.095 31.3938 15.3949C31.3938 7.21913 24.4341 0.63427 16.0016 1.01711Z" fill="white"/>
<path fill-rule="evenodd" clip-rule="evenodd" d="M16.7096 20.4567C13.8553 20.4567 11.5354 18.1852 11.5354 15.3905C11.5354 12.5957 13.8553 10.3242 16.7096 10.3242C19.5639 10.3242 21.8838 12.5957 21.8838 15.3905C21.8838 18.1852 19.5639 20.4567 16.7096 20.4567Z" fill="white"/>
<g clip-path="url(#clip0_88_601)">
<path fill-rule="evenodd" clip-rule="evenodd" d="M66.6588 7.15747C62.1818 7.15747 58.553 10.8154 58.553 15.3282C58.553 19.841 62.1818 23.499 66.6588 23.499C71.1358 23.499 74.7646 19.841 74.7646 15.3282C74.7646 10.8154 71.1358 7.15747 66.6588 7.15747ZM66.6588 19.8283C64.1946 19.8283 62.1945 17.8122 62.1945 15.3282C62.1945 12.8442 64.1946 10.8281 66.6588 10.8281C69.1231 10.8281 71.1231 12.8442 71.1231 15.3282C71.1231 17.8122 69.1231 19.8283 66.6588 19.8283Z" fill="white"/>
<path fill-rule="evenodd" clip-rule="evenodd" d="M56.1015 7.37854H52.8567C52.6921 7.37854 52.5613 7.5104 52.5613 7.67628V8.07185V8.71411C51.9832 8.03782 51.0676 7.66352 50.7047 7.53592C49.8861 7.25945 49.0126 7.11058 48.1054 7.11483C43.6917 7.12759 40.0629 10.743 39.9996 15.1963C39.9363 19.7771 43.5989 23.5116 48.1307 23.5116C49.0337 23.5116 49.9072 23.3627 50.7173 23.0863C51.0887 22.9544 51.9917 22.5801 52.5655 21.9123V22.5504V22.7035C52.5655 24.0901 52.0887 25.2215 51.1815 25.9786C50.3967 26.6378 49.2953 26.9994 48.0801 26.9994C46.3163 26.9994 44.6243 26.2721 43.6327 25.1109C43.5229 24.9833 43.3288 24.9748 43.2065 25.0939L41.0545 27.2078C40.9363 27.3226 40.9363 27.5098 41.0503 27.6289C42.8816 29.5174 45.2614 30.4829 48.1265 30.4999H49.0422C53.093 30.4999 56.3758 27.1908 56.3758 23.1075V21.6656C56.3758 21.6656 56.3758 21.6444 56.3758 21.6316L56.3927 7.67628C56.3927 7.5104 56.2619 7.37854 56.0973 7.37854H56.1015ZM52.5613 15.3579C52.536 17.8036 50.5612 19.7771 48.1307 19.7771C45.7003 19.7771 43.7002 17.7781 43.7002 15.3111C43.7002 12.8441 45.6834 10.845 48.1307 10.845C50.5781 10.845 52.536 12.8186 52.5613 15.2643V15.3579Z" fill="white"/>
<path fill-rule="evenodd" clip-rule="evenodd" d="M93.5841 7.08521C89.1071 7.08521 85.4783 10.7431 85.4783 15.2559C85.4783 19.7688 89.1071 23.4267 93.5841 23.4267C98.0611 23.4267 101.69 19.7688 101.69 15.2559C101.69 10.7431 98.0611 7.08521 93.5841 7.08521ZM93.5841 19.756C91.1199 19.756 89.1198 17.7399 89.1198 15.2559C89.1198 12.772 91.1199 10.7559 93.5841 10.7559C96.0483 10.7559 98.0484 12.772 98.0484 15.2559C98.0484 17.7399 96.0483 19.756 93.5841 19.756Z" fill="white"/>
<path fill-rule="evenodd" clip-rule="evenodd" d="M111.682 7.08521C107.205 7.08521 103.576 10.7431 103.576 15.2559C103.576 19.7688 107.205 23.4267 111.682 23.4267C116.159 23.4267 119.788 19.7688 119.788 15.2559C119.788 10.7431 116.159 7.08521 111.682 7.08521ZM111.682 19.756C109.218 19.756 107.218 17.7399 107.218 15.2559C107.218 12.772 109.218 10.7559 111.682 10.7559C114.146 10.7559 116.146 12.772 116.146 15.2559C116.146 17.7399 114.146 19.756 111.682 19.756Z" fill="white"/>
<path fill-rule="evenodd" clip-rule="evenodd" d="M129.763 23.4904C131.404 23.4989 132.932 23.0183 134.21 22.1846V22.895C134.21 23.0608 134.341 23.1927 134.506 23.1927H137.708C137.873 23.1927 138.004 23.0608 138.004 22.895V2.79774C138.004 2.63185 137.873 2.5 137.708 2.5H134.502C134.337 2.5 134.206 2.63185 134.206 2.79774V3.83131V8.40369C132.936 7.57854 131.425 7.0979 129.801 7.0979C125.269 7.0979 121.606 10.8324 121.67 15.4133C121.733 19.858 125.349 23.4692 129.759 23.4904H129.763ZM129.805 10.8281C132.092 10.8281 133.974 12.572 134.21 14.8135V15.7791C133.97 18.0206 132.092 19.7645 129.805 19.7645C127.358 19.7645 125.37 17.7654 125.37 15.2942C125.37 12.8272 127.354 10.8281 129.805 10.8281Z" fill="white"/>
<path fill-rule="evenodd" clip-rule="evenodd" d="M84.28 8.19105H80.7398C80.7398 6.18771 82.0858 6.22599 84.4108 6.22599C84.491 6.22599 84.5501 6.14518 84.5501 6.06436V2.83605C84.5501 2.74673 84.4783 2.67017 84.3855 2.67017H84.2209C80.1701 2.67017 76.8831 3.82283 76.8831 8.44626V23.0226C76.8831 23.1842 77.0139 23.3203 77.1784 23.3203H80.4064C80.5668 23.3203 80.7018 23.1885 80.7018 23.0226V11.5725H84.28C84.4403 11.5725 84.5754 11.4406 84.5754 11.2748V8.48454C84.5754 8.32291 84.4446 8.1868 84.28 8.1868V8.19105Z" fill="white"/>
</g>
<defs>
<clipPath id="clip0_88_601">
<rect width="98" height="28" fill="white" transform="translate(39.9995 3.5)"/>
</clipPath>
</defs>
</svg>
