<svg height="229" viewBox="0 0 265 229" width="265" xmlns="http://www.w3.org/2000/svg"><g fill="none" fill-rule="evenodd" opacity=".28"><path d="m224.28658 143.439407c11.601857-7.526206 15.211478 16.608982 3.609235 22.837592-8.883648 4.769496-15.168662-15.339342-3.609235-22.837592m-42.69711 33.940752c11.810726-7.659438 16.675513 18.859744 3.674213 23.241872-9.718581 3.276124-15.441745-15.610885-3.674213-23.241872" fill="#eb1b34"/><path d="m264 159-32.313915 20.607068c-2.738356 2.327382-6.262683 3.474203-9.820964 3.196031l-38.411455-3.004568 17.522856-18.130594-8.607475-2.188101-18.954734 18.967464c-.369255.369587-.666358.805089-.869313 1.289633-.418258.995769-.878188 2.759354-.199483 4.866631.517807 1.60704 1.46699 2.598493 2.278426 3.186224.676004.489644 1.479338.7635 2.307366.822744l47.053656 3.357285c2.998031.21422 5.966738-.717596 8.325035-2.612616l31.69-18.959224z" fill="#78111d"/><path d="m117.849336 44-6.82668 61.217525c-.338151 3.031685 3.184283 4.937592 5.540466 2.997935l46.436878-38.222112z" fill="#c42029"/><path d="m116 64.06 33.453 7.94 1.547-9.445-32.737-19.555z" fill="#78111d"/><path d="m230.351513 183.340326c11.273235-7.71935 15.344687 20.287187 3.507004 23.423671-9.492185 2.51524-14.73901-15.732994-3.507004-23.423671" fill="#eb1b34"/><path d="m233.069147 194.28366c1.98087-1.523527 2.836853 3.535022.616499 4.623663-1.50122.735833-2.590528-3.105445-.616499-4.623663" fill="#f38797"/><path d="m132.027623 62.530382s11.845945 12.8200793 30.30964 6.914975c18.463312-5.9051043 19.464415-27.8359819 13.171328-41.9757128-6.293469-14.1393457-7.008488-20.48793002-5.005899-24.38369599 2.002589-3.89576598.571786-4.76153456-5.005899 1.29846022-5.57845 6.05960947-20.739381 7.50294247-31.466581 8.36871097-10.727582.8653833-22.787041 13.5606254-16.113527 30.8752265 0 0 .666129 15.7279366 14.110938 18.9020361" fill="#f9b2bf"/><path d="m174 22.3723606c-.029429 4.275845-.679976 9.1978912-2.503828 14.3840303-5.637679 15.9493671-19.930331 22.3002828-30.476534 22.00659-10.556659-.2836981-8.684016 4.2370191-8.684016 4.2370191-12.754575-2.9649908-14.173772-16.8988715-14.301945-18.6702545 0-.0684259-.010068-.1268569-.010068-.1856724-.423629-5.4894423 4.888776-11.2333671 13.119346-11.7127323 8.230569-.4793652 20.817474-1.634147 27.588961-6.7322552 6.56432-4.9316565 11.364808-17.89681206 11.660651-18.6990856-.325273 3.3071199.650546 8.0238886 3.607433 15.3723606" fill="#ef525f"/><path d="m163.370071 70.4199695c-18.425754 6.0015822-30.243655-7.0280862-30.243655-7.0280862s-1.843414-4.6057561 8.548471-4.3167214c10.381593.2992174 24.450776-6.1711649 30.00084-22.4205545 1.795384-5.2836953 2.435776-10.2983297 2.464747-14.6546074.679272 1.7643649 1.465277 3.6787302 2.377074 5.7524954 6.277747 14.3753638 5.278659 36.6662835-13.147477 42.6674741" fill="#f9b2bf"/><path d="m119.873629 106.687279c5.749893-4.900392 11.581154-9.7042928 17.460007-14.4496091 5.444762-4.395343 10.92138-8.7508641 16.355779-13.1592258 3.348763-2.7159306 6.681022-5.452538 9.991787-8.2151828.455585-.3802226.393408-1.1582814 0-1.5511399-.451363-.4499109-1.098471-.3809884-1.555208 0-5.688099 4.7468479-11.446435 9.4083085-17.22473 14.0452632-5.489284 4.4049156-10.986244 8.8010244-16.421795 13.2717993-3.411324 2.8066786-6.798852 5.6416921-10.161048 8.5065721-.451747.3852-.396478 1.155984 0 1.551523.447909.446847 1.102309.385966 1.555208 0" fill="#ec2737"/><path d="m136.298862 81.3027628c.906949.2916276 1.837015.5139841 2.79983.6456375-.764781.4684413-1.567704.8760311-2.392589 1.2373126-.20651-.6069835-.341743-1.2392261-.407241-1.8829501m-3.743379 3.2568913c-2.827955.6632424-5.748377.8301055-8.684595.7283037-.685798-2.2193552-1.035247-4.5994501-1.093039-6.9359156-.020034-.8052291-.008861-1.6108409.026199-2.4153045.604504-.1664804 1.178186-.4125651 1.690223-.7688713.534769.3666394 1.076858.7187358 1.62434 1.0539928 1.998832 1.2235348 4.085508 2.3154163 6.173726 3.3801251.579075.295072 1.161233.5763664 1.749556.8366115-.014256 1.2066955.196878 2.4030577.598725 3.5347413-.686184.2235047-1.382385.4209848-2.085135.586317m15.34069-4.5646231c-2.444986-.0199011-4.907695.0401849-7.349214-.0987401-2.309368-.1316534-4.416464-.842735-6.477711-1.8557775-2.061248-1.0130424-4.103232-2.0988005-6.083185-3.2611012-1.724898-1.0126597-3.390848-2.1278867-4.883038-3.458964-.116739-.2407268-.340972-.4385896-.592175-.5495765-1.578106-1.5189897-2.852612-3.2090522-3.736444-5.2374334-.237333-.5434531-1.040256-.6663041-1.510298-.3930467-.565205.3283681-.63417.9544873-.396453 1.4998539.940469 2.1577384 2.363307 4.0184911 4.043898 5.6385171-.074359.6035391-.139471 1.2089918-.191099 1.8152099-.139471.0156912-.280483.0287035-.425349.0398022-1.205155.0876413-2.368315.0088024-3.51067-.2430231-.581773-.1278263-1.194368.1749001-1.358112.7661923-.1518.5491938.186476 1.2197078.770945 1.3482995 1.432471.3153558 2.913102.4362933 4.375239.2981337.005009-.0003827.010788-.0011481.016182-.0019135-.083606 2.5530813.083605 5.1080762.631473 7.6167628.090927.4152441.193796.826661.306683 1.235399-1.943352-.1534681-3.877457-.3991701-5.805012-.6877361-.589093-.088024-1.186277.146962-1.358112.7658096-.142939.5178113.177999 1.2602754.771331 1.3486822 2.357142.3528618 4.748189.6513783 7.139236.7991056.823729 2.1056894 1.952984 4.0866141 3.375438 5.8662316.42689.5335026.882291 1.0394497 1.361194 1.5228168-2.767081.6054527-5.599659.8940186-8.448804.8488584-.560197-.0088024-1.126943-.0332961-1.69292-.0665921-.059718-.1553817-.117125-.3134423-.17222-.4806881-.392215-1.1948314-.561738-2.3161817-.631859-3.5335932-.033519-.591675-.483141-1.096474-1.103827-1.096474-.570985 0-1.137731.50212-1.103441 1.096474.073973 1.2889789.26931 2.569538.631859 3.7923075-.032364-.0042099-.065883-.0072716-.098247-.0114814-.590249-.0799871-1.185506.1412212-1.358111.7658096-.141398.5113051.176458 1.268695.770945 1.3490648.53708.0723329 1.074931.1312707 1.613937.1821716.350605.6575017.767478 1.284769 1.264104 1.8707033 1.728751 2.0394795 4.270442 3.2982245 6.934268 3.5121615.594872.047839 1.103826-.538478 1.103826-1.096857 0-.632625-.507028-1.048252-1.103826-1.096091-.992096-.079605-2.104785-.426726-3.013275-.9296112-.931606-.515515-1.643604-1.0949432-2.359839-1.9403571-.000385-.0003828-.08977-.1102215-.127142-.154999 3.667864.0998882 7.338426-.3042572 10.900724-1.2350163.310536.2426404.626465.4791573.9501.7057236.487765.3409977 1.227502.086876 1.510298-.3934294.208436-.3540099.184163-.7328962.010787-1.0497829.779807-.2625415 1.551523-.5484284 2.313221-.8611053.55018-.2254182.94278-.7271555.770945-1.3482994-.143324-.5174286-.803308-.9935241-1.358112-.7658096-1.209008.4959966-2.439592.9261665-3.687128 1.2920406-1.844335-1.6246186-3.347312-3.611284-4.464239-5.8405898-.132921-.2652204-.257367-.5365643-.378345-.8102044 3.697917.0551108 7.37079-.3279854 10.899184-1.5117181.886914 1.4669407 2.118654 2.7291296 3.5989 3.619321.510495.3065535 1.212861.1117524 1.510297-.3934294.305912-.5197248.115584-1.1929178-.395683-1.5002367-1.068766-.6421931-1.954139-1.5166933-2.624912-2.5316494 1.769591-.7749947 3.404719-1.7876544 4.896908-3.0096584.325562.0030617.651123.0045925.976299.0072715 1.450194.0114814 2.900387.0233455 4.350581.0352097.596028.0045925 1.103827-.5078608 1.103827-1.0968568 0-.5981811-.505487-1.0911222-1.103827-1.0960912" fill="#ed455e"/><path d="m131.325523 63.9057442c1.707551 1.7221006 3.789041 3.1602316 5.857342 4.4007509 4.51248 2.7066582 9.639012 4.4408178 14.911783 4.6687715 3.770034.1629908 7.556747-.4843043 11.088996-1.8022345.562072-.2096707.944933-.75427.776195-1.3712231-.148567-.5414873-.801797-.9892256-1.36736-.7783879-3.038836 1.1339334-6.185508 1.7571105-9.419847 1.7477745-2.77157-.0073909-5.334448-.4349014-8.00943-1.2739732-2.276605-.714203-4.172677-1.5645558-6.287914-2.7797901-.844854-.4858603-1.669925-1.0063416-2.472497-1.5594989-.344458-.2376786-.684649-.4811923-1.020186-.7305409-.147403-.1093089-.293255-.2217297-.439882-.3325946-.027154-.0202279.17378.1373168-.006595-.005446-.081072-.0637959-.162531-.1275918-.243215-.1921657-.618706-.4944183-1.237412-1.0043966-1.795605-1.5676678-1.010101-1.0187896-2.581885.5574362-1.571785 1.5762258" fill="#ef525f"/><path d="m120.356228 50.3347837c-.04003-.0842147-.074723-.1707579-.113229-.2557487-.088068-.1932668.120854.3085284.035456.0853789-.020969-.0551082-.043462-.1098283-.064812-.1645485-.054518-.1404871-.106367-.2813623-.156691-.4234018-.294702-.8355491-.521542-1.6974881-.677853-2.5714578-.025162-.1404871-.047655-.2817505-.070149-.4230138-.009149-.0574367-.016774-.1156496-.025162-.1734744.038506.2596295.0061.0520035-.001143-.0139711-.032025-.2906764-.061381-.5813528-.078155-.8735816-.036981-.6205495-.033169-1.2434275.016774-1.8628128.014106-.1703697.031262-.3395752.052231-.5091688-.028212.2278065.034312-.2064618.044987-.2701079.05833-.3318135.130004-.6612985.21769-.9865146.204728-.7598724.361038-1.1704674.694627-1.8162425 1.518877-2.9405276 4.581412-4.8763006 7.692366-5.8798909 3.398792-1.0971192 6.928352-1.2123807 10.472017-1.4363063 4.699217-.297662 9.372509-.8464156 13.802187-2.5613676.550897-.2134473.929854-.749006.762869-1.3676151-.144873-.537111-.789557-.9911716-1.343886-.7765601-4.014883 1.5546725-8.212001 2.1472799-12.475075 2.4329111-3.766693.2530321-7.619166.3333659-11.27263 1.4029309-3.547478 1.037742-7.051113 3.0732531-9.084289 6.295143-1.53527 2.4336874-2.021738 5.4106951-1.680906 8.2538131.205872 1.7157282.617616 3.456682 1.366761 5.017952.258484.5394395 1.012204.6857479 1.494478.3989524.540985-.3221114.651546-.9795291.391537-1.5212971m33.290122 6.5347728c6.568264-2.8657661 12.34531-7.9380192 16.021786-14.2037204 1.185675-2.0198023 2.064081-4.1909918 2.326796-6.5421985.067599-.6039797-.553853-1.1236376-1.100408-1.1236376-.650642 0-1.032424.5180891-1.100024 1.1236376-.203181 1.8166455-.961368 3.5372033-1.850529 5.1036286-.845758 1.4887708-1.83094 2.9002792-2.91368 4.2188375-2.14666 2.613585-4.663963 4.9051782-7.470483 6.7571212-1.595496 1.0530425-3.277411 1.9633262-5.02462 2.7257526-.546171.2384543-.667927 1.0604942-.394457 1.5374029.330314.5773105.956375.6424148 1.505619.4031761" fill="#ec2737"/><path d="m206.898631 35s-1.243494 6.9628578-.80495 11.5906935c.541213 5.7105424 3.15568 11.8900255 3.15568 11.8900255l8.750639.519281s-3.138887-7.1382749-3.355296-13.6174772c-.161066-4.8226144 1.028612-9.8458162 1.028612-9.8458162z" fill="#78111d"/><path d="m204.474952 58.8817879-63.385507 51.7938701c-.996707.814461-1.355014 2.188913-.884592 3.394237l18.871559 48.370017c.605653 1.552931 2.051591 2.605495 3.699799 2.692787l45.199739 2.858797c1.28104.068196 2.550523-.275125 3.627367-.980471l52.396683-33.984454-.220378-72.2539867-56.649737-2.7679981c-.961262-.0467633-1.906343.2653818-2.654933.8772017" fill="#c42029"/><path d="m197.745431 115.926892 66.254569-45.2917277-.027402-8.8888684-56.747398-2.7417478c-.962912-.0463263-1.90923.262516-2.659105.8686191l-63.494734 51.3102928c-.614798.497236-.986069 1.205257-1.071361 1.954586l53.835118 3.846245c1.385513.099216 2.763308-.273711 3.910313-1.057399" fill="#f9b2bf"/><path d="m151.189952 123.868108 12.447475 32.839782c.3961 1.044157 1.359368 1.757315 2.462323 1.822042l7.923521.465103c1.954857.114726 3.423678-1.778245 2.851917-3.674703l-9.843552-32.6394c-.34252-1.134852-1.344442-1.93638-2.51437-2.010021l-10.527446-.665098c-2.043261-.129454-3.533896 1.926303-2.799868 3.862295m47.700667 32.496078-9.255159-32.659543c-.332495-1.171964-1.376804-2.00769-2.60369-2.083665l-9.958316-.615204c-2.019759-.124677-3.540184 1.790675-2.941694 3.704467l10.254218 32.760454c.356497 1.140016 1.390575 1.940676 2.593852 2.010028l8.960046.514293c1.98159.113768 3.48667-1.738856 2.950743-3.63083" fill="#ed455e"/><path d="m262.972821 60.7493438-56.286191-2.7448723c-.582244-.0282101-1.157214.0776741-1.68663.3002626l12.553256 42.6952659 45.446744-31.3532973z" fill="#f9b2bf"/><path d="m205.047925 59.4164455c3.777485 13.6330946 7.966391 27.1431047 11.744263 40.7761995.392069 1.416065 2.55406.814495 2.160056-.6090905-3.777485-13.6330946-7.966778-27.1431047-11.744263-40.7761992-.392456-1.4160656-2.554834-.814495-2.160056.6090902" fill="#ed455e"/><path d="m96.9521495 226.718472c-1.4113936-.566758-2.4661324-1.803357-2.8509541-3.311968l-6.4494748-25.287753c-1.3923619-5.459455-.532508-11.269312 2.3763026-16.053831l9.3506727-15.708132 23.4166481-2.356788 14.042757 12.636821c3.514401 3.161851 5.625401 7.661424 5.847311 12.462013l1.309003 28.30419c.073082 1.581906-.573997 3.116777-1.76881 4.113503-2.881785 2.403822-9.369323 6.382886-21.36693 7.206371-13.758042.944204-20.722135-.724714-23.9065255-2.004426" fill="#f9b2bf"/><path d="m121 166.217-5.903-1.217-16.224 1.611-6.873 11.389z" fill="#78111d"/><path d="m126.438211 194.542406-6.521414 1.018311c-.337513.052605-.653907-.178166-.706512-.515683l-1.019067-6.521879c-.05222-.337517-.368615-.568288-.706128-.515683l-5.426704.847441c-.337897.052989-.568666.369003-.516061.706521l1.018299 6.522262c.052988.337517-.17778.653916-.515293.706521l-6.522182 1.018312c-.337513.052989-.568282.369387-.515677.706904l.847814 5.426388c.052605.337517.368999.568672.706512.516067l6.521798-1.018695c.337514-.052606.653908.178166.706897.516067l1.018299 6.521494c.052604.337518.368999.568673.706512.515684l5.427088-.847441c.337129-.052605.568281-.369004.515293-.706521l-1.018299-6.521879c-.052988-.337517.178164-.654299.515677-.70652l6.521414-1.018696c.337513-.052605.568666-.369387.516061-.706521l-.847814-5.426771c-.052605-.337517-.368999-.568672-.706513-.515683" fill="#eb1b34"/><path d="m113.123386 202.690415c.695344 0 1.307918.507135 1.418798 1.214548l1.008073 6.454948 5.165691-.806576-1.007682-6.454947c-.059345-.379083.032405-.758166.25846-1.068147.226445-.309981.559867-.513382.938968-.572333l6.455259-1.007634-.807396-5.165832-6.454868 1.007634c-.380272.059732-.758593-.032794-1.068198-.258838-.309996-.226435-.513407-.55945-.572361-.938923l-1.008073-6.453776-5.166081.806185 1.007682 6.454948c.059735.379083-.032405.758556-.25846 1.068537-.226445.309981-.559476.512991-.938968.571942l-6.454868 1.008025.806614 5.166222 6.455259-1.008415c.074961-.011712.148751-.017568.222151-.017568zm2.274997 9.309585c-.301798 0-.595005-.095259-.843315-.276406-.309996-.226435-.513406-.55984-.57236-.939314l-1.007683-6.454557-6.455259 1.008415c-.782799.124149-1.518747-.415-1.640559-1.19659l-.861664-5.517976c-.122983-.78198.413849-1.518283 1.196257-1.64048l6.45565-1.008024-1.007683-6.454948c-.121812-.78237.41541-1.517892 1.197038-1.640479l5.517853-.861623c.380272-.060513.758592.032794 1.068588.258838.309996.226435.513016.55945.57197.938923l1.008073 6.454167 6.455259-1.007634c.381053-.058951.758593.033184 1.068198.258447.309997.226435.513017.559841.572361.938923l.861664 5.516806c.121812.78237-.41541 1.518283-1.197038 1.640479l-6.455259 1.008025 1.007683 6.455338c.059735.378692-.032405.758165-.25846 1.068146-.226446.309981-.559477.512992-.938968.572333l-5.517463.861232c-.074961.011713-.150703.017959-.224883.017959z" fill="#eb1b34"/><path d="m96.1407968 158.452576 1.9591254 9.43263s3.7182048 3.362017 13.6315978 1.608004c9.67903-1.71284 11.26848-5.099255 11.26848-5.099255l-1.647163-11.016617c-.154421-1.03388-.718684-1.965974-1.573851-2.593469-1.961465-1.439883-6.075473-3.531661-12.605241-2.514936-6.204546.966404-9.0040212 3.420725-10.2647402 5.513646-.8458087 1.403668-1.1000582 3.073811-.768208 4.669997" fill="#c42029"/><path d="m96.7915485 158.587445c7.9329255 2.720325 16.8049205 1.465689 23.6956675-3.367982 1.207547-.847031.061072-2.868142-1.158768-2.012654-6.43073 4.510648-14.520299 5.672646-21.9265829 3.132361-1.4026573-.48091-2.0046459 1.770185-.6103166 2.248275m30.5490135 19.347341c2.088946 2.03162 5.085577 3.977201 6.279154 6.792683 1.235751 2.913019 1.672425 6.335133 2.271453 9.446794.278426 1.445606 2.3614.834217 2.083347-.609803-.644934-3.348763-1.111094-7.067848-2.54764-10.160081-1.372352-2.953858-4.330168-4.924814-6.5587-7.092431-1.023758-.995588-2.555851.622888-1.527614 1.622838" fill="#ed455e"/><path d="m40.6926 63.5570867c1.1316922-.3401947 1.6512575-1.6493131 1.062747-2.6779334-.664693-1.1617899-1.6344973-2.7058684-2.8941763-4.3238025-1.1522615-1.4805551-3.8396021-4.6123366-7.0647918-6.4300251-2.8465621-1.6037752-6.250019-1.9914212-7.4323727-2.0717821-1.9338948-.1304909-4.0837673-.0451552-6.0066157.5104834-2.1936774.634469-5.6428438 2.4303452-7.7260565 5.2965528-2.30947503 3.1784675-3.15205439 7.4793097-3.32613159 8.8002909-.44414445 3.3720991-.30892037 6.5555412-.17979089 8.6181393.07351619 1.1805408 1.22273045 1.9814717 2.35061357 1.6428077-.00114273.003444-.00152365.0088014-.00266639.0118628l3.3866967-1.0171402c.8037262-.2414656 1.3415753-.998772 1.303484-1.8406488-.2235959-4.9777876.0327585-13.4298476 6.6320747-15.3952472 6.9288058-2.0633634 11.9614272 5.0994772 14.1394872 9.0834676.4148142.7588371 1.3000558 1.1208441 2.1254941.8724904l.8006789-.2403175c.0015237.0030614.0034282.0065054.0049519.0095668z" fill="#c42029"/><path d="m3.99980737 71.8708301c-2.31523196.6917025-3.91746193 2.8113487-3.95486658 5.2365679-.1164557 7.514229-.13342276 23.343606 1.59798821 29.652197 2.0059688 7.31245 4.62583653 13.338705 13.2531991 15.992813 1.0334479.317579 2.1386203.331522 3.1770812.030984l43.9500745-12.72756c1.7449075-.505802 3.129265-1.836536 3.7115435-3.56463 1.0963032-3.254411 2.211116-9.0963151-.0447313-16.4602751-2.6719257-8.7214165-12.264868-21.9497438-16.7599811-27.8516785-1.3951547-1.8318886-3.770157-2.6053097-5.9708613-1.9480761z" fill="#ef525f"/><path d="m17 78.4998016c0 2.485427-2.0144634 4.5001984-4.5 4.5001984s-4.5-2.0147714-4.5-4.5001984c0-2.4850302 2.0144634-4.4998016 4.5-4.4998016s4.5 2.0147714 4.5 4.4998016m28-8.9998016c0 2.4855366-2.0147714 4.5-4.5001984 4.5-2.4854271 0-4.4998016-2.0144634-4.4998016-4.5s2.0143745-4.5 4.4998016-4.5c2.485427 0 4.5001984 2.0144634 4.5001984 4.5" fill="#c42029"/><path d="m30.7128936 25.6048932c2.7223689 2.3580736 5.5285875 4.6227545 8.4198311 6.7951501.9650539.7249933 2.2627635.8715423 3.2074427 0 .8004893-.737544.9556503-2.3034407 0-3.0214202-2.8912436-2.1723956-5.6974621-4.4374457-8.4198311-6.7955193-2.1463928-1.8582565-5.3620637 1.1557809-3.2074427 3.0217894m36.5500181-11.0730618c.8003132 1.8999744 1.5791106 3.809734 2.3294763 5.7325407.4595173 1.1762717 1.4749891 2.0157668 2.7359723 1.6484112 1.0473614-.3057898 2.0155751-1.718539 1.5529841-2.9033728-.8975188-2.2995398-1.821164-4.5872557-2.7778514-6.859886-.48987-1.1636324-2.0866543-1.4400664-3.0425733-.8464264-1.1291985.7008704-1.2894149 2.060616-.798008 3.2287333m-20.5501665 202.8276316c1.2237013-1.533655 2.4474025-3.06769 3.6707255-4.601345.7398948-.927734.900281-2.211556 0-3.117581-.7659954-.771207-2.3520786-.933066-3.0961344 0-1.2237012 1.534036-2.4470242 3.06769-3.6711038 4.601345-.7398947.927734-.8995244 2.211556 0 3.117581.7663737.771207 2.3520787.933066 3.0965127 0m-27.1274396-25.467146c2.3146672-.763201 4.6293344-1.525999 6.9440017-2.288797 2.5812704-.850999 1.4822563-5.351669-1.1149524-4.495837-2.3146672.763201-4.6289722 1.525999-6.9436394 2.288797-2.5812705.850999-1.4822564 5.351669 1.1145901 4.495837" fill="#f4c1cc"/><path d="m218.795008 113.029507c-.460066-1.816696-2.604959-2.617406-4.154222-1.549922l-10.479436 7.221098c-.92909.640413-1.35838 1.788432-1.075173 2.87605l8.177162 31.411585c.457728 1.759006 2.506401 2.56591 4.052158 1.595999l10.425677-6.539257c.986744-.619117 1.461613-1.798112 1.177237-2.922512zm38.979734-26.9306896c-.418793-1.8599958-2.57612-2.7041417-4.135005-1.6172018l-8.488292 5.916791c-.882788.6153369-1.313944 1.7022768-1.095275 2.7596929l7.17821 34.6966125c.380546 1.83863 2.469103 2.730169 4.048464 1.727916l7.517804-4.770804c.069928-.044285.134447-.095563.199352-.145676v-15.357785zm-18.349679 13.0004373c-.413914-1.8607057-2.546104-2.7046089-4.086443-1.6174812l-9.200415 6.4901285c-.891594.628654-1.315054 1.747642-1.06915 2.822725l7.585236 33.122814c.412768 1.802425 2.449116 2.653322 3.987164 1.665271l9.124811-5.859533c.947725-.608838 1.415478-1.758909 1.168428-2.870514z" fill="#f07083"/><g fill="#ed455e"><path d="m263.921 78.116.158.884-.015-1z"/><path d="m263 21.0044082-54.461773-.0044082c-2.999813-.0004007-5.630863 2.1828383-6.270889 5.2785653-.119507.5790713-.207904 1.197816-.249257 1.8534289-.001897.0268497-.003414.0536993-.005311.080549-.240532 4.1909533 2.948217 7.7214848 6.922676 7.7948204l54.064554.9926364z"/></g></g></svg>