<svg width="140" height="32" viewBox="0 0 140 32" fill="none" xmlns="http://www.w3.org/2000/svg">
<path fill-rule="evenodd" clip-rule="evenodd" d="M16.0016 0.0171104C8.51617 0.353159 2.42097 6.27443 2.02129 13.6037C1.69546 19.6186 5.14057 24.8805 10.2539 27.3264C12.1611 28.2367 14.4289 27.0925 14.7938 25.0464C15.0415 23.6682 14.3246 22.3027 13.043 21.6901C10.1366 20.2949 8.18599 17.279 8.41625 13.8462C8.6856 9.83059 12.0047 6.56794 16.1058 6.29144C20.9542 5.9639 24.9945 9.71999 24.9945 14.3949C24.9945 17.6065 23.0916 20.38 20.3286 21.6987C19.0687 22.3027 18.378 23.6596 18.6212 25.0124L18.6343 25.0804C18.9949 27.0925 21.2235 28.2367 23.096 27.3477C28.0051 25.0209 31.3938 20.095 31.3938 14.3949C31.3938 6.21913 24.4341 -0.36573 16.0016 0.0171104Z" fill="white"/>
<path fill-rule="evenodd" clip-rule="evenodd" d="M16.7096 19.4567C13.8553 19.4567 11.5354 17.1852 11.5354 14.3905C11.5354 11.5957 13.8553 9.32422 16.7096 9.32422C19.5639 9.32422 21.8838 11.5957 21.8838 14.3905C21.8838 17.1852 19.5639 19.4567 16.7096 19.4567Z" fill="white"/>
<path fill-rule="evenodd" clip-rule="evenodd" d="M66.9149 5.91089C62.3949 5.91089 58.7312 9.60811 58.7312 14.1694C58.7312 18.7308 62.3949 22.428 66.9149 22.428C71.4349 22.428 75.0986 18.7308 75.0986 14.1694C75.0986 9.60811 71.4349 5.91089 66.9149 5.91089ZM66.9149 18.7179C64.427 18.7179 62.4077 16.6801 62.4077 14.1694C62.4077 11.6588 64.427 9.62101 66.9149 9.62101C69.4028 9.62101 71.4221 11.6588 71.4221 14.1694C71.4221 16.6801 69.4028 18.7179 66.9149 18.7179Z" fill="white"/>
<path fill-rule="evenodd" clip-rule="evenodd" d="M56.2562 6.13431H52.9802C52.8141 6.13431 52.682 6.26758 52.682 6.43525V6.83506V7.48422C52.0984 6.80067 51.1739 6.42235 50.8075 6.29338C49.9811 6.01393 49.0992 5.86347 48.1833 5.86777C43.7272 5.88066 40.0635 9.53489 39.9996 14.0317C39.9357 18.6619 43.6335 22.4365 48.2089 22.4365C49.1205 22.4365 50.0024 22.286 50.8203 22.0066C51.1952 21.8733 52.1069 21.495 52.6863 20.82V21.4649V21.6196C52.6863 23.0212 52.2049 24.1647 51.2889 24.9299C50.4966 25.5963 49.3847 25.9617 48.1577 25.9617C46.377 25.9617 44.6687 25.2266 43.6676 24.0529C43.5568 23.924 43.3608 23.9154 43.2373 24.0357L41.0646 26.1724C40.9453 26.2885 40.9453 26.4776 41.0604 26.598C42.9093 28.5068 45.312 29.4827 48.2046 29.4999H49.1291C53.2188 29.4999 56.5332 26.1552 56.5332 22.0281V20.5707C56.5332 20.5707 56.5332 20.5492 56.5332 20.5363L56.5502 6.43095C56.5502 6.26328 56.4181 6.13001 56.252 6.13001L56.2562 6.13431ZM52.682 14.1994C52.6564 16.6714 50.6627 18.6662 48.2089 18.6662C45.755 18.6662 43.7357 16.6456 43.7357 14.1521C43.7357 11.6586 45.738 9.63807 48.2089 9.63807C50.6797 9.63807 52.6564 11.6329 52.682 14.1048V14.1994Z" fill="white"/>
<path fill-rule="evenodd" clip-rule="evenodd" d="M86.0983 5.86779C84.4411 5.85919 82.8947 6.34499 81.6039 7.19191V6.47396C81.6039 6.3063 81.4718 6.17302 81.3057 6.17302H78.068C77.9018 6.17302 77.7698 6.3063 77.7698 6.47396V28.6573C77.7698 28.825 77.9018 28.9582 78.068 28.9582H81.3099C81.4761 28.9582 81.6081 28.825 81.6081 28.6573V27.6083V21.1339C82.8904 21.9722 84.4198 22.458 86.0642 22.458C90.6439 22.458 94.3459 18.6791 94.282 14.0447C94.2181 9.54781 90.5629 5.89358 86.1068 5.87209L86.0983 5.86779ZM86.0557 18.6834C83.7425 18.6834 81.8425 16.9165 81.5996 14.6508V13.6749C81.8425 11.4093 83.7425 9.64239 86.0557 9.64239C88.5309 9.64239 90.5374 11.6673 90.5374 14.165C90.5374 16.6628 88.5309 18.6877 86.0557 18.6877V18.6834Z" fill="white"/>
<path d="M103.118 17.9484C103.118 15.0508 104.992 13.5118 109.947 12.8325C112.848 12.4198 113.64 12.0028 113.64 11.2375C113.64 10.2015 112.558 9.58239 110.884 9.58239C108.992 9.58239 107.548 10.5669 107.084 12.136C107.041 12.2779 106.896 12.3682 106.752 12.3338L103.199 11.5901C103.037 11.5557 102.939 11.3966 102.977 11.2332C103.727 8.14219 106.845 6.05713 110.769 6.05713C115.31 6.05713 118.126 8.39154 118.126 12.2091V22.0842C118.126 22.2432 117.998 22.3722 117.841 22.3722H114.518C114.36 22.3722 114.232 22.2432 114.232 22.0842V20.4591H114.173C113.235 21.7918 111.242 22.6172 108.928 22.6172C105.469 22.6172 103.126 20.7256 103.126 17.9441L103.118 17.9484ZM114.126 16.3363V14.3974H114.066C113.67 14.982 112.818 15.3217 110.62 15.7215C107.966 16.2159 107.024 16.7361 107.024 17.6905C107.024 18.6449 107.817 19.1049 109.525 19.1049C112.149 19.1049 114.13 17.9054 114.13 16.3363H114.126Z" fill="white"/>
<path d="M100.455 1.5H97.1874C97.0227 1.5 96.8892 1.63473 96.8892 1.80094V22.1271C96.8892 22.2933 97.0227 22.428 97.1874 22.428H100.455C100.62 22.428 100.753 22.2933 100.753 22.1271V1.80094C100.753 1.63473 100.62 1.5 100.455 1.5Z" fill="white"/>
<path d="M122.735 28.7605L126.229 21.7186L119.016 6.82654C118.918 6.62878 119.063 6.39663 119.285 6.39663H123.264C123.379 6.39663 123.485 6.46542 123.532 6.5686L128.516 17.3421L133.424 6.5686C133.471 6.46112 133.577 6.39233 133.692 6.39233H137.701C137.923 6.39233 138.063 6.62449 137.97 6.82224L127.247 29.0185C127.196 29.1216 127.093 29.1861 126.978 29.1861H123C122.778 29.1861 122.633 28.9497 122.735 28.7519V28.7605Z" fill="white"/>
</svg>
