<svg width="114" height="32" viewBox="0 0 114 32" fill="none" xmlns="http://www.w3.org/2000/svg">
<path fill-rule="evenodd" clip-rule="evenodd" d="M16.0016 1.01711C8.51617 1.35316 2.42097 7.27443 2.02129 14.6037C1.69546 20.6186 5.14057 25.8805 10.2539 28.3264C12.1611 29.2367 14.4289 28.0925 14.7938 26.0464C15.0415 24.6682 14.3246 23.3027 13.043 22.6901C10.1366 21.2949 8.18599 18.279 8.41625 14.8462C8.6856 10.8306 12.0047 7.56794 16.1058 7.29144C20.9542 6.9639 24.9945 10.72 24.9945 15.3949C24.9945 18.6065 23.0916 21.38 20.3286 22.6987C19.0687 23.3027 18.378 24.6596 18.6212 26.0124L18.6343 26.0804C18.9949 28.0925 21.2235 29.2367 23.096 28.3477C28.0051 26.0209 31.3938 21.095 31.3938 15.3949C31.3938 7.21913 24.4341 0.63427 16.0016 1.01711Z" fill="white"/>
<path fill-rule="evenodd" clip-rule="evenodd" d="M16.7097 20.4567C13.8554 20.4567 11.5355 18.1852 11.5355 15.3905C11.5355 12.5957 13.8554 10.3242 16.7097 10.3242C19.564 10.3242 21.8839 12.5957 21.8839 15.3905C21.8839 18.1852 19.564 20.4567 16.7097 20.4567Z" fill="white"/>
<path d="M91.9434 7.38574H88.6101C88.4419 7.38574 88.3055 7.52029 88.3055 7.68626V23.0944C88.3055 23.2604 88.4419 23.3949 88.6101 23.3949H91.9434C92.1116 23.3949 92.248 23.2604 92.248 23.0944V7.68626C92.248 7.52029 92.1116 7.38574 91.9434 7.38574Z" fill="white"/>
<path fill-rule="evenodd" clip-rule="evenodd" d="M85.9035 19.9474C83.4971 19.634 82.0612 18.0284 82.0612 15.6457V10.8373H85.6903C85.86 10.8373 85.9949 10.7042 85.9949 10.5368V7.7076C85.9949 7.54017 85.86 7.40708 85.6903 7.40708H82.0612V2.80052C82.0612 2.63309 81.9263 2.5 81.7565 2.5H78.4146C78.2449 2.5 78.11 2.63309 78.11 2.80052V16.0535C78.11 20.1921 81.5085 23.5451 85.7034 23.5451H85.8731C85.9644 23.5451 86.0428 23.4721 86.0428 23.3776V20.1063C86.0428 20.0247 85.9819 19.9517 85.8992 19.9431L85.9035 19.9474Z" fill="white"/>
<path d="M100.577 15.2679L94.7414 7.8279C94.5891 7.63042 94.7284 7.34277 94.9808 7.34277H99.341C99.4411 7.34277 99.5324 7.39 99.589 7.47157L103.201 12.516H103.257L106.921 7.46728C106.978 7.39 107.069 7.34277 107.169 7.34277H111.534C111.786 7.34277 111.93 7.63042 111.773 7.8279L105.938 15.2679L111.939 22.8926C112.095 23.0901 111.952 23.3777 111.699 23.3777H107.339C107.243 23.3777 107.148 23.3305 107.091 23.2532L103.257 17.9941H103.201L99.4237 23.2532C99.3671 23.3305 99.2757 23.3777 99.1756 23.3777H94.8154C94.563 23.3777 94.4194 23.0901 94.5761 22.8926L100.577 15.2679Z" fill="white"/>
<path fill-rule="evenodd" clip-rule="evenodd" d="M67.4923 6.93921C62.8754 6.93921 59.1331 10.6313 59.1331 15.1864C59.1331 19.7414 62.8754 23.4335 67.4923 23.4335C72.1092 23.4335 75.8515 19.7414 75.8515 15.1864C75.8515 10.6313 72.1092 6.93921 67.4923 6.93921ZM67.4923 19.7285C64.951 19.7285 62.8884 17.6936 62.8884 15.1864C62.8884 12.6792 64.951 10.6442 67.4923 10.6442C70.0336 10.6442 72.0962 12.6792 72.0962 15.1864C72.0962 17.6936 70.0336 19.7285 67.4923 19.7285Z" fill="white"/>
<path fill-rule="evenodd" clip-rule="evenodd" d="M56.6048 7.16251H53.2585C53.0888 7.16251 52.9539 7.29559 52.9539 7.46303V7.86229V8.51056C52.3578 7.82795 51.4135 7.45015 51.0393 7.32135C50.1951 7.0423 49.2943 6.89204 48.3587 6.89633C43.8071 6.90921 40.0648 10.5584 39.9995 15.0533C39.9342 19.6771 43.7113 23.4465 48.3848 23.4465C49.3161 23.4465 50.2168 23.2962 51.0523 23.0172C51.4352 22.8841 52.3665 22.5063 52.9583 21.8322V22.4762V22.6308C52.9583 24.0303 52.4666 25.1723 51.531 25.9365C50.7216 26.6019 49.5859 26.9669 48.3326 26.9669C46.5137 26.9669 44.7687 26.2327 43.7461 25.0607C43.633 24.9319 43.4328 24.9233 43.3066 25.0435L41.0874 27.1772C40.9655 27.2931 40.9655 27.482 41.083 27.6022C42.9716 29.5084 45.4258 30.483 48.3805 30.5001H49.3248C53.5022 30.5001 56.8877 27.1601 56.8877 23.0386V21.5832C56.8877 21.5832 56.8877 21.5618 56.8877 21.5489L56.9051 7.46303C56.9051 7.29559 56.7702 7.16251 56.6005 7.16251H56.6048ZM52.9539 15.2165C52.9278 17.685 50.8913 19.6771 48.3848 19.6771C45.8784 19.6771 43.8158 17.6593 43.8158 15.1693C43.8158 12.6792 45.861 10.6614 48.3848 10.6614C50.9087 10.6614 52.9278 12.6535 52.9539 15.122V15.2165Z" fill="white"/>
</svg>
