<svg height="231" viewBox="0 0 265 231" width="265" xmlns="http://www.w3.org/2000/svg"><g fill="none" fill-rule="evenodd" opacity=".28"><path d="m52.3465836 230.407276s29.8992068-46.410482 40.328796-61.569971c7.112585-10.336578 26.8776064-37.382626 33.2143344-46.037151 1.104292-1.507581 3.20665-1.864403 4.747103-.805569l77.430673 53.190848c1.642174 1.128247 1.99313 3.406879.766098 4.97637l-40.998803 50.245473z" fill="#e14597"/><path d="m154.976579 185.870878c6.941048 4.773009 13.882097 9.545267 20.82352 14.3179 2.386126 1.64078 4.633747-2.24674 2.266013-3.874763-6.941424-4.773008-13.882472-9.545266-20.82352-14.3179-2.386501-1.64078-4.634122 2.24674-2.266013 3.874763" fill="#ed9ec4"/><path d="m209.562038 177.850453c-.024398-.458503-.140008-.910627-.341948-1.326732-.050673-.103932-.106225-.205989-.167408-.305419-.244731-.396593-.574667-.750789-.984929-1.032944l-20.787486-14.279629-9.144001-6.281341-3.338024 5.015017c-9.7517 14.649208-8.272054 37.997215 5.193399 49.330343 1.050616.883988 2.141395 1.729329 3.265956 2.536399l25.576254-31.344419c.229716-.294162.404631-.613463.525495-.945146.040163-.110686.074696-.222873.102847-.335811.05743-.225874.090836-.455876.101346-.685503.005255-.115188.00488-.230002-.001501-.344815" fill="#911e5f"/><path d="m192.249542 38.7479665c6.816806 5.6382358 10.024583-.5669378 14.127954-1.9004236 1.59563-.5189113 3.347408-.1628398 4.631869.9166308l12.293223 10.2499053c2.609837 2.1934602 2.101607 5.5129167-.342323 8.3896289-2.616594 3.3903707-6.878364 9.4206979-26.939164 23.5945182-12.387437 8.7528293-25.273343 15.3557224-34.967238 19.4687418-1.898917.8059451-4.035808.7905611-5.59653-.5579329l-13.845312-11.9600989c-1.494284-1.2910873-2.054688-3.3498483-1.444362-5.2273842.672634-2.0688915 1.310361-4.9741194.931253-7.8789722-.251862-1.9300649-1.311862-3.6511395-2.603831-5.0667955-2.202203-2.4129564-1.480772-6.2588283 1.456374-7.6909935l47.066402-22.94541c1.713116-.8352108 3.762925-.6055841 5.231685.6085858" fill="#e14597"/><path d="m41.9184207 172.078718c-7.0821813 1.606637-9.4927054 4.226332-10.9712252 11.922954-.258619 1.345867-2.0205312 1.345867-2.2795255 0-1.4785199-7.696622-3.8886686-10.316317-10.9708499-11.922954-1.2386685-.28103-1.2386685-2.196461 0-2.477491 7.0821813-1.607012 9.49233-4.225957 10.9708499-11.922954.2589943-1.345867 2.0209065-1.345867 2.2795255 0 1.4785198 7.696997 3.8890439 10.315942 10.9712252 11.922954 1.2386685.28103 1.2386685 2.196461 0 2.477491" fill="#e6078a"/><path d="m81.0068966 126.20013c-3.6450637.826957-4.8856091 2.175075-5.6468272 6.136136-.1328753.693007-1.0397309.693007-1.1729816 0-.7608428-3.961061-2.0013881-5.309179-5.6464518-6.136136-.6373513-.14483-.6373513-1.130499 0-1.274953 3.6450637-.827332 4.885609-2.175075 5.6464518-6.136511.1332507-.693007 1.0401063-.693007 1.1729816 0 .7612181 3.961436 2.0017635 5.309179 5.6468272 6.136511.6373513.144454.6373513 1.130123 0 1.274953" fill="#e66faa"/><path d="m59.0952627 84.7188932c0 16.3125008-13.2289801 29.5359208-29.5478753 29.5359208-16.3185198 0-29.54712465-13.22342-29.54712465-29.5359208 0-16.3125003 13.22860485-29.5362965 29.54712465-29.5362965 16.3188952 0 29.5478753 13.2237962 29.5478753 29.5362965" fill="#911e5f"/><path d="m62.5599313 80.9649845c0 16.3125003-13.2289802 29.5359215-29.5478754 29.5359215-16.3185198 0-29.5471246-13.2234212-29.5471246-29.5359215s13.2286048-29.5362965 29.5471246-29.5362965c16.3188952 0 29.5478754 13.2237962 29.5478754 29.5362965" fill="#ebc0d6"/><path d="m31.6082691 53.0131497c-6.2458923 1.4171569-8.3715226 3.7273065-9.6755028 10.5148015-.2282153 1.1867798-1.7821813 1.1867798-2.0103966 0-1.3036048-6.787495-3.4296105-9.0976446-9.6751275-10.5148015-1.09228044-.2480118-1.09228044-1.9368186 0-2.1844552 6.245517-1.4175322 8.3715227-3.7276818 9.6751275-10.5151767.2282153-1.187155 1.7821813-1.187155 2.0103966 0 1.3039802 6.7874949 3.4296105 9.0976445 9.6755028 10.5151767 1.0919051.2476366 1.0919051 1.9364434 0 2.1844552" fill="#e6078a"/><path d="m26.149119 69.3793797s-4.5128825 4.7114745-7.8970751 9.5400136c-2.2622592 3.227906-4.3792564 6.3822714-3.5876346 8.4684225 1.8381091 4.8439226 16.1222097 2.37431 27.4049788 2.5078837 5.4328754.0641604-15.9202691-20.5163198-15.9202691-20.5163198" fill="#911e5f"/><path d="m23.2734936 73.3685057c1.7971955-2.8193056 3.75767-5.5189201 5.9309703-8.0601972 1.8621317-2.1777015 5.2497025-1.7300796 6.6231232.8483431.9545255 1.7919887 1.8925354 3.594108 2.9059915 5.3527033 2.3485907 4.0769995 4.7324646 8.1344882 7.1152125 12.1916016 1.1102974 1.8906682.806636 4.0008325-.8036332 5.3271893-.8674433.7143942-1.8711402.995049-2.9758073.8674786-6.7072026-.7736768-13.417408-1.5132099-20.1583924-1.9461988-2.8782153-.1842266-4.524143-3.0759471-3.3350212-5.7444194 1.3606586-3.0545604 2.9360198-5.9950578 4.6975566-8.8365005" fill="#e14597"/><path d="m130.642373 140.68042c10.793307 7.008116 21.48189 14.187703 31.729808 21.978876.972167.739158 2.501735.14483 3.071148-.804819.686147-1.145131.154646-2.340916-.80551-3.070319-10.247543-7.791173-20.936126-14.97076-31.729434-21.978876-2.430042-1.577746-4.682542 2.305647-2.266012 3.875138m15.405996 55.881645c7.805864 5.189863 15.578697 10.428128 23.318123 15.715921 2.391381 1.633276 4.639752-2.253494 2.266013-3.875138-7.739426-5.287418-15.512259-10.526058-23.318123-15.715546-2.412401-1.604386-4.663024 2.281258-2.266013 3.874763m-49.7692521-11.67573c20.4909561 13.611385 40.8644261 27.397992 61.1185341 41.358694 2.384249 1.643407 4.631494-2.244488 2.265637-3.875138-20.254107-13.960702-40.627578-27.747309-61.1181584-41.358319-2.4131516-1.603259-4.6637748 2.282009-2.2660127 3.874763m-7.5125624 10.52996c-2.4131515-1.602885-4.6637748 2.282384-2.2660127 3.875138 15.4638382 10.271667 30.8604882 20.644641 46.1895752 31.115543h7.913966c-17.196098-11.786003-34.471771-23.455317-51.8375285-34.990681m-8.2347061 13.118701c-2.4131515-1.60251-4.6637747 2.282384-2.2656374 3.875138 8.9769689 5.96354 17.9280383 11.966477 26.859589 17.996804h8.001048c-10.832344-7.339049-21.6958423-14.631948-32.5949996-21.871942" fill="#ed9ec4"/><path d="m113.582791 160.149424c-.226714.075417-6.873484 8.806109-9.793364 12.651981-.703414.926386-.390744 2.262498.65199 2.779158 6.98046 3.461285 29.80199 14.753891 29.884193 14.507755.096841-.290786-20.742819-29.938894-20.742819-29.938894" fill="#911e5f"/><path d="m234.517193 70.8252399-23.377805 32.7293081-34.982627 52.554122c-9.7517 14.649207-7.060786 34.34645 6.404667 45.678828 7.088937 5.966166 15.957429 10.245778 25.193392 12.140573 13.972557 2.866582 28.264164-3.220777 36.008095-15.194383l20.921112-32.348849v-109.7026524c-11.736197-.9128787-23.222783 4.4218147-30.166834 14.1430533m-127.72193 98.0217081 15.291175-19.964766c.782989-1.022063 2.222097-1.267449 3.299363-.56281l26.100623 17.071544c1.190623.778555 1.474016 2.401325.617458 3.537452l-15.296431 20.282941c-.78449 1.040449-2.243867 1.288461-3.328265.565812l-26.095743-17.390095c-1.182366-.78831-1.452621-2.411831-.58818-3.540078" fill="#ebc0d6"/><path d="m235.067762 168.04378-6.984214-4.532501 4.534278-6.981852c2.459695-3.78809 1.382054-8.852635-2.407146-11.312117l-.706041-.458127c-3.789575-2.459107-8.856105-1.381513-11.316551 2.406202l-4.534278 6.982228-6.984589-4.532876c-3.789575-2.459107-8.856105-1.381888-11.316551 2.406202l-.457932.705765c-2.460071 3.787714-1.382429 8.852634 2.407146 11.311741l6.984589 4.532501-4.534278 6.982227c-2.460446 3.787715-1.382804 8.852259 2.407146 11.311741l.705666.458128c3.789951 2.459482 8.85648 1.381512 11.316176-2.406203l4.535028-6.982227 6.984214 4.532501c3.78995 2.459482 8.85648 1.382262 11.316176-2.406203l.458307-.705389c2.460446-3.78809 1.382804-8.852634-2.407146-11.311741" fill="#911e5f"/><path d="m236.741466 165.544488-6.984589-4.532501 4.534277-6.981477c2.460071-3.788465 1.38243-8.853009-2.407146-11.312116l-.705665-.458128c-3.789951-2.459106-8.85648-1.381887-11.316551 2.406203l-4.534278 6.981852-6.984589-4.532501c-3.78995-2.459482-8.85648-1.381887-11.316551 2.406203l-.457932.705389c-2.460446 3.78809-1.382805 8.852635 2.407146 11.312117l6.984589 4.5325-4.534653 6.982228c-2.460071 3.787715-1.382429 8.852259 2.407146 11.311741l.706041.458128c3.789575 2.459107 8.856105 1.381512 11.316176-2.406203l4.534653-6.982227 6.984589 4.5325c3.789575 2.459107 8.856105 1.381888 11.316176-2.406202l.458307-.705765c2.460071-3.787714 1.382429-8.852259-2.407146-11.311741" fill="#bd1b7b"/><path d="m255.500763 117.029921c0 2.036248-1.726628 4.01509-3.027981 5.382344-1.389186 1.458055-3.34966 2.367181-5.52296 2.367181-4.210723 0-7.624193-3.411757-7.624193-7.620454 0-1.186405.271381-2.309775.755212-3.310452 1.232288-2.550657 3.57675-5.458887 6.600978-5.458887 4.210347 0 8.818944 4.431195 8.818944 8.640268m-.095677-25.2366871c0 2.0366237-1.726254 4.0150903-3.027982 5.3823447-1.389185 1.4584297-3.34966 2.3671811-5.52296 2.3671811-4.210723 0-7.624193-3.4113822-7.624193-7.6204546 0-1.1864046.271381-2.3097744.755213-3.3104515 1.232287-2.5506573 3.577124-5.4588869 6.600977-5.4588869 4.210347 0 8.818945 4.4311949 8.818945 8.6402672" fill="#911e5f"/><path d="m256.100805 115.097079c0 4.208697-3.413471 7.62083-7.624193 7.62083-4.209972 0-7.623442-3.412133-7.623442-7.62083 0-4.209072 3.41347-7.621205 7.623442-7.621205 4.210722 0 7.624193 3.412133 7.624193 7.621205m0-25.2227663c0 4.2086971-3.413471 7.6208297-7.624193 7.6208297-4.209972 0-7.623442-3.4121326-7.623442-7.6208297 0-4.2090724 3.41347-7.621205 7.623442-7.621205 4.210722 0 7.624193 3.4121326 7.624193 7.621205" fill="#e14597"/><path d="m193.810002 54.3120789c-.316048 0-.633973-.1031819-.900474-.3162995l-3.255071-2.6031863c-.622337-.4975245-.723308-1.4051503-.225588-2.0276187.49772-.6217181 1.406076-.7226488 2.028414-.224749l3.255446 2.602811c.621962.4978998.722932 1.4051503.225212 2.027994-.284894.3556962-.704164.5410485-1.127939.5410485" fill="#e66faa"/><path d="m204.605074 62.9444292c-.316049 0-.634349-.1031819-.900475-.3162995l-5.397592-4.3160063c-.622337-.4978997-.723307-1.4051503-.225212-2.0276187.497719-.6213429 1.405701-.723024 2.028038-.2251242l5.397592 4.3163815c.622337.4975245.723307 1.4051503.225212 2.0276187-.284893.3560715-.704164.5410485-1.127563.5410485m6.300018 1.7474142c-.622337-.4975245-1.530319-.3969691-2.028038.2254994-.498095.6220932-.3975 1.529719.224837 2.0272435l1.994632 1.595005c.797252-.6689941 1.53745-1.3057204 2.227726-1.9131805z" fill="#ebc0d6"/><path d="m156.254059 57.3467157-9.635339.4877692-6.667415 3.2504184c-2.937146 1.4314147-3.658577 5.2776619-1.456374 7.6909934 1.292344 1.4152809 2.351968 3.1363555 2.603831 5.0667956.379108 2.9048527-.258244 5.8097055-.930878 7.8789722-.610326 1.8775359-.049922 3.9362968 1.443987 5.2273842l3.975 3.4335194c.186551.1241935.373102.248387.562656.3725806 8.290821 5.4386257 10.065871 6.1338843 19.652415-1.6355274z" fill="#911e5f"/><path d="m112.685845 60.5645662c2.71869 2.1979627 6.075481 4.8720631 7.986785 6.3920267.904603.7188967 2.097854.9691598 3.210779.6584884 3.167988-.8847382 10.174348-2.1127908 15.525021 2.2246024 6.070977 4.9200896 5.946735 10.3204442 5.278605 13.2099135-.317925 1.3762593.194808 2.8091749 1.312238 3.6744023l9.073059 7.0257514c1.169604.9057498 2.772741 1.0119333 4.048945.2637706 6.442202-3.7753331 25.975255-15.9335413 37.791778-31.0420023 10.28245-13.1468787 14.728519-23.1649061 16.416487-27.7604417.581799-1.5848744-.01539-3.3596036-1.431976-4.279236l-12.932826-8.3963827c-1.159469-.7526653-2.639865-.7703-3.832741-.0709141-2.405269 1.410028-7.040517 4.3524014-13.686161-.8145744-4.303435-3.3464714-4.27153-7.5506661-3.698364-10.4543932.28602-1.44829909-.315673-2.92623954-1.545333-3.74306522l-10.311728-6.84602725c-1.742019-1.15713845-4.099993-.60639822-5.143853 1.20629056-4.40966 7.6504711-15.832061 26.52113291-27.049518 37.21303211-8.588853 8.1858915-15.978825 13.0159314-20.513853 15.5692152-2.228853 1.2550675-2.486721 4.3614064-.497344 5.9695437" fill="#ebc0d6"/><path d="m149.395777 20.0242358 3.399582 2.1225461c.317174.1981093.669632.2926614 1.017585.2926614.641856 0 1.268697-.3211772 1.633541-.9049993.563031-.900872.289023-2.0876518-.612578-2.6500872l-3.369929-2.1041609c-.698534 1.0472028-1.420715 2.1105395-2.160538 3.1798795.030779.021762.060056.0442744.092337.0641604m18.795181 7.1981965-6.678675-4.1689252c-.901226-.5624353-2.088471-.2885341-2.650751.6123379-.563031.9012473-.289023 2.0876519.612578 2.6500872l6.6783 4.1689252c.317174.1981093.669632.2926614 1.01721.2926614.641855 0 1.269072-.3211772 1.633916-.9053745.563407-.9008721.288647-2.0872767-.612578-2.649712m26.713915 16.6761885-6.678301-4.1693004c-.901976-.5628105-2.088095-.288159-2.65075.6127131-.563407.900872-.289023 2.0872766.612202 2.649712l6.677925 4.1689251c.31755.1981093.670007.2926615 1.017585.2926615.641856 0 1.269072-.320802 1.633916-.9049993.563032-.9008721.288648-2.0872767-.612577-2.649712m-13.356939-8.3384507-6.678676-4.1685499c-.901225-.5628106-2.088094-.288159-2.65075.6123378-.563031.9012473-.288648 2.0876519.612578 2.6500872l6.678675 4.16855c.316799.1981093.669632.2926614 1.01721.2926614.64148 0 1.269072-.320802 1.633916-.9053745.563032-.9004968.288272-2.0869014-.612953-2.649712m23.435797 14.6297719-3.399958-2.1221709c-.902351-.5628105-2.088845-.288159-2.651126.6123379-.563031.900872-.289022 2.0872766.612578 2.6500872l3.399582 2.1221709c.20607.128696.427529.2093655.652741.2528895.682769-1.0344458 1.323499-2.0377493 1.925567-3.0099107-.141133-.1966085-.321679-.3695789-.539384-.5054039m39.098761 159.765287c-4.64801 1.054707-6.230128 2.773906-7.200418 7.824943-.16966.883612-1.326126.883612-1.495786 0-.970666-5.051037-2.552408-6.770236-7.200794-7.824943-.813017-.184602-.813017-1.441545 0-1.626147 4.648386-1.054707 6.230128-2.773906 7.200794-7.824942.16966-.883613 1.326126-.883613 1.495786 0 .97029 5.051036 2.552408 6.770235 7.200418 7.824942.813016.184602.813016 1.441545 0 1.626147" fill="#e6078a"/><path d="m212.057542 36.3702796c-2.419157 5.006012-5.03425 9.9231-8.004051 14.6266952-2.889851 4.5771504-6.15318 8.8575121-9.707408 12.937138-7.114087 8.1663808-15.195085 15.6018582-24.050815 21.8456782-2.610963 1.8411409-5.26284 3.6271263-7.984157 5.3009248-1.183867.7282768-2.348966 1.5090826-3.705496 1.870407-1.280332.340688-2.60233.2821557-3.771558-.3767079-1.264192-.7125181-2.40114 1.2314295-1.136572 1.9439476 2.497982 1.4077767 5.444511.9789151 7.871926-.3665773 2.538145-1.4062759 4.962182-3.059438 7.357316-4.6930894 4.864214-3.3160796 9.50209-6.8966802 13.918131-10.7898282 8.209369-7.236993 15.807287-15.39662 21.860623-24.5362877 3.510311-5.3001744 6.532287-10.9065177 9.29677-16.6261734.26425-.5470519.149391-1.2164212-.404256-1.5398496-.493215-.2889095-1.275078-.1459116-1.540453.4037227" fill="#911e5f"/></g></svg>