<svg width="131" height="32" viewBox="0 0 131 32" fill="none" xmlns="http://www.w3.org/2000/svg">
<path fill-rule="evenodd" clip-rule="evenodd" d="M15.0016 1.01711C7.51617 1.35316 1.42097 7.27443 1.02129 14.6037C0.695458 20.6186 4.14057 25.8805 9.25393 28.3264C11.1611 29.2367 13.4289 28.0925 13.7938 26.0464C14.0415 24.6682 13.3246 23.3027 12.043 22.6901C9.13663 21.2949 7.18599 18.279 7.41625 14.8462C7.6856 10.8306 11.0047 7.56794 15.1058 7.29144C19.9542 6.9639 23.9945 10.72 23.9945 15.3949C23.9945 18.6065 22.0916 21.38 19.3286 22.6987C18.0687 23.3027 17.378 24.6596 17.6212 26.0124L17.6343 26.0804C17.9949 28.0925 20.2235 29.2367 22.096 28.3477C27.0051 26.0209 30.3938 21.095 30.3938 15.3949C30.3938 7.21913 23.4341 0.63427 15.0016 1.01711Z" fill="white"/>
<path fill-rule="evenodd" clip-rule="evenodd" d="M15.7097 20.4567C12.8554 20.4567 10.5355 18.1852 10.5355 15.3905C10.5355 12.5957 12.8554 10.3242 15.7097 10.3242C18.564 10.3242 20.8839 12.5957 20.8839 15.3905C20.8839 18.1852 18.564 20.4567 15.7097 20.4567Z" fill="white"/>
<g clip-path="url(#clip0_91_422)">
<path fill-rule="evenodd" clip-rule="evenodd" d="M66.0565 7.1709C61.5134 7.1709 57.8311 10.826 57.8311 15.3354C57.8311 19.8449 61.5134 23.5 66.0565 23.5C70.5995 23.5 74.2819 19.8449 74.2819 15.3354C74.2819 10.826 70.5995 7.1709 66.0565 7.1709ZM66.0565 19.8321C63.5559 19.8321 61.5263 17.8175 61.5263 15.3354C61.5263 12.8534 63.5559 10.8388 66.0565 10.8388C68.5571 10.8388 70.5867 12.8534 70.5867 15.3354C70.5867 17.8175 68.5571 19.8321 66.0565 19.8321Z" fill="white"/>
<path fill-rule="evenodd" clip-rule="evenodd" d="M55.3391 7.39202H52.0464C51.8794 7.39202 51.7466 7.52377 51.7466 7.68953V8.08479V8.72656C51.16 8.05079 50.2309 7.67678 49.8626 7.54927C49.032 7.27301 48.1456 7.12426 47.225 7.12851C42.7462 7.14126 39.0638 10.7581 38.9996 15.2038C38.9354 19.7812 42.652 23.5128 47.2507 23.5128C48.167 23.5128 49.0534 23.3641 49.8755 23.0878C50.2523 22.9561 51.1686 22.5821 51.7509 21.9148V22.5523V22.7053C51.7509 24.0909 51.2671 25.2214 50.3465 25.9779C49.5501 26.6367 48.4325 26.998 47.1993 26.998C45.4095 26.998 43.6925 26.2712 42.6863 25.1109C42.5749 24.9834 42.378 24.9749 42.2538 25.0939L40.0701 27.2062C39.9502 27.321 39.9502 27.508 40.0658 27.627C41.9241 29.5141 44.3391 30.4788 47.2507 30.4958H48.1799C52.2904 30.4958 55.6217 27.1892 55.6217 23.1091V21.6683C55.6217 21.6683 55.6217 21.647 55.6217 21.6343L55.6388 7.68953C55.6388 7.52377 55.5061 7.39202 55.3391 7.39202ZM51.7466 15.3653C51.7209 17.8091 49.717 19.7855 47.2507 19.7855C44.7844 19.7855 42.7505 17.7879 42.7505 15.3185C42.7505 12.8492 44.763 10.8516 47.2507 10.8516C49.7385 10.8516 51.7209 12.8237 51.7466 15.2718V15.3653Z" fill="white"/>
<path fill-rule="evenodd" clip-rule="evenodd" d="M103.557 7.10718C99.0094 7.10718 95.3228 10.7666 95.3228 15.2802C95.3228 19.7939 99.0094 23.4533 103.557 23.4533C108.104 23.4533 111.791 19.7939 111.791 15.2802C111.791 10.7666 108.104 7.10718 103.557 7.10718ZM103.557 19.7811C101.052 19.7811 99.0223 17.7666 99.0223 15.2802C99.0223 12.7939 101.052 10.7793 103.557 10.7793C106.062 10.7793 108.091 12.7939 108.091 15.2802C108.091 17.7666 106.062 19.7811 103.557 19.7811Z" fill="white"/>
<path d="M117.76 15.2335L112.018 7.86796C111.868 7.67246 112.005 7.3877 112.253 7.3877H116.544C116.642 7.3877 116.732 7.43445 116.788 7.5152L120.342 12.5091H120.397L124.003 7.51095C124.058 7.43445 124.148 7.3877 124.247 7.3877H128.541C128.79 7.3877 128.931 7.67246 128.777 7.86796L123.035 15.2335L128.939 22.7817C129.094 22.9773 128.952 23.262 128.704 23.262H124.414C124.319 23.262 124.225 23.2153 124.17 23.1388L120.397 17.9323H120.342L116.625 23.1388C116.569 23.2153 116.479 23.262 116.381 23.262H112.09C111.842 23.262 111.701 22.9773 111.855 22.7817L117.76 15.2335Z" fill="white"/>
<path fill-rule="evenodd" clip-rule="evenodd" d="M93.0962 15.4205C93.1604 10.8388 89.4395 7.10291 84.8365 7.10291C83.188 7.10291 81.6508 7.58318 80.3577 8.41196V3.83455V2.79751C80.3577 2.63175 80.225 2.5 80.058 2.5H76.7995C76.6325 2.5 76.4998 2.63175 76.4998 2.79751V22.9007C76.4998 23.0665 76.6325 23.1982 76.7995 23.1982H80.0537C80.2207 23.1982 80.3534 23.0665 80.3534 22.9007V22.191C81.6551 23.024 83.2051 23.5085 84.8708 23.5C89.3496 23.4788 93.0277 19.8619 93.0876 15.4205H93.0962ZM89.341 15.3015C89.341 17.7708 87.3242 19.7726 84.8365 19.7726C82.5115 19.7726 80.6018 18.0258 80.3577 15.786V14.8212C80.6018 12.5814 82.5115 10.8345 84.8365 10.8345C87.3242 10.8345 89.341 12.8364 89.341 15.3057V15.3015Z" fill="white"/>
</g>
<defs>
<clipPath id="clip0_91_422">
<rect width="90" height="28" fill="white" transform="translate(38.9995 2.5)"/>
</clipPath>
</defs>
</svg>
