<svg width="149" height="32" viewBox="0 0 149 32" fill="none" xmlns="http://www.w3.org/2000/svg">
<path fill-rule="evenodd" clip-rule="evenodd" d="M15.0016 1.01711C7.51617 1.35316 1.42097 7.27443 1.02129 14.6037C0.695458 20.6186 4.14057 25.8805 9.25393 28.3264C11.1611 29.2367 13.4289 28.0925 13.7938 26.0464C14.0415 24.6682 13.3246 23.3027 12.043 22.6901C9.13663 21.2949 7.18599 18.279 7.41625 14.8462C7.6856 10.8306 11.0047 7.56794 15.1058 7.29144C19.9542 6.9639 23.9945 10.72 23.9945 15.3949C23.9945 18.6065 22.0916 21.38 19.3286 22.6987C18.0687 23.3027 17.378 24.6596 17.6212 26.0124L17.6343 26.0804C17.9949 28.0925 20.2235 29.2367 22.096 28.3477C27.0051 26.0209 30.3938 21.095 30.3938 15.3949C30.3938 7.21913 23.4341 0.63427 15.0016 1.01711Z" fill="white"/>
<path fill-rule="evenodd" clip-rule="evenodd" d="M15.7097 20.4567C12.8554 20.4567 10.5355 18.1852 10.5355 15.3905C10.5355 12.5957 12.8554 10.3242 15.7097 10.3242C18.564 10.3242 20.8839 12.5957 20.8839 15.3905C20.8839 18.1852 18.564 20.4567 15.7097 20.4567Z" fill="white"/>
<g clip-path="url(#clip0_91_396)">
<path fill-rule="evenodd" clip-rule="evenodd" d="M66.2817 7.15527C61.7023 7.15527 57.9889 10.8134 57.9889 15.3244C57.9889 19.8355 61.7023 23.4936 66.2817 23.4936C70.861 23.4936 74.5745 19.8355 74.5745 15.3244C74.5745 10.8134 70.861 7.15527 66.2817 7.15527ZM66.2817 19.827C63.7572 19.827 61.7109 17.8112 61.7109 15.3244C61.7109 12.8376 63.7572 10.8218 66.2817 10.8218C68.8061 10.8218 70.8524 12.8376 70.8524 15.3244C70.8524 17.8112 68.8061 19.827 66.2817 19.827Z" fill="white"/>
<path fill-rule="evenodd" clip-rule="evenodd" d="M55.4773 7.38029H52.1559C51.9879 7.38029 51.8544 7.51185 51.8544 7.67735V8.07626V8.71706C51.2642 8.04231 50.325 7.66886 49.9546 7.54155C49.1188 7.26571 48.2228 7.11718 47.2923 7.12143C42.7775 7.12567 39.0641 10.7413 38.9995 15.193C38.9349 19.7762 42.6828 23.5064 47.3224 23.5064C48.2486 23.5064 49.1404 23.3579 49.9718 23.082C50.3509 22.9505 51.2771 22.577 51.863 21.9065V22.5431V22.6958C51.863 24.0835 51.3719 25.2166 50.45 25.972C49.6487 26.6298 48.52 26.9905 47.2793 26.9905C45.4743 26.9905 43.7425 26.2606 42.7258 25.102C42.6138 24.9747 42.4114 24.9662 42.2907 25.0851L40.0894 27.1984C39.9688 27.313 39.9688 27.504 40.0851 27.6185C41.959 29.507 44.393 30.4703 47.331 30.4915H48.2659C52.4101 30.4915 55.7703 27.1814 55.7703 23.099V21.6561C55.7703 21.6561 55.7703 21.6349 55.7703 21.6222L55.7875 7.66462C55.7875 7.49912 55.654 7.36756 55.486 7.36756L55.4773 7.38029ZM51.8544 15.3627C51.8285 17.8071 49.8081 19.7847 47.3181 19.7847C44.8281 19.7847 42.7818 17.7859 42.7818 15.316C42.7818 12.8462 44.8109 10.8474 47.3181 10.8474C49.8253 10.8474 51.8285 12.825 51.8544 15.2694V15.3627Z" fill="white"/>
<path fill-rule="evenodd" clip-rule="evenodd" d="M106.057 17.6416C105.919 17.5609 105.742 17.6034 105.656 17.7349C104.838 18.9656 103.429 19.7804 101.822 19.7804C99.7026 19.7804 97.9235 18.363 97.3979 16.4406H109.779C109.93 16.4406 110.059 16.3303 110.076 16.1817C110.111 15.8804 110.128 15.5749 110.128 15.2651C110.128 10.6182 106.195 6.87527 101.43 7.0917C97.1739 7.28267 93.7232 10.6861 93.5251 14.8789C93.3054 19.5725 97.105 23.447 101.822 23.447C104.79 23.447 107.397 21.9107 108.861 19.6022C108.952 19.4579 108.909 19.2711 108.758 19.1863L106.053 17.6458L106.057 17.6416ZM101.822 10.7498C103.713 10.7498 105.337 11.8786 106.04 13.4912H97.6047C98.3026 11.8786 99.931 10.7498 101.822 10.7498Z" fill="white"/>
<path fill-rule="evenodd" clip-rule="evenodd" d="M120.208 7.13843C124.547 7.13843 128.07 10.614 128.07 14.8832V14.9341V22.9123C128.07 23.0693 127.941 23.1966 127.782 23.1966H124.512C124.353 23.1966 124.223 23.0693 124.223 22.9123V14.5395H124.219C124.111 12.4558 122.341 10.7838 120.208 10.7838C118.076 10.7838 116.305 12.4558 116.198 14.5395H116.193V22.9123C116.193 23.0693 116.064 23.1966 115.905 23.1966H112.635C112.476 23.1966 112.346 23.0693 112.346 22.9123V14.8959C112.346 10.6098 115.875 7.13843 120.208 7.13843Z" fill="white"/>
<path fill-rule="evenodd" clip-rule="evenodd" d="M138.569 23.4936C140.249 23.5021 141.813 23.0183 143.122 22.1866V22.8953C143.122 23.0608 143.256 23.1923 143.424 23.1923H146.702C146.87 23.1923 147.004 23.0608 147.004 22.8953V2.79706C147.004 2.63156 146.87 2.5 146.702 2.5H143.42C143.252 2.5 143.118 2.63156 143.118 2.79706V3.83253V8.40724C141.817 7.57972 140.271 7.10018 138.608 7.10018C133.972 7.10018 130.22 10.8346 130.285 15.4179C130.349 19.861 134.05 23.4767 138.565 23.4979L138.569 23.4936ZM138.612 10.8262C140.951 10.8262 142.877 12.5703 143.122 14.811V15.7743C142.877 18.015 140.951 19.7592 138.612 19.7592C136.105 19.7592 134.076 17.7604 134.076 15.2905C134.076 12.8207 136.105 10.8219 138.612 10.8219V10.8262Z" fill="white"/>
<path d="M84.6507 23.502C80.485 23.502 77.4349 21.5245 76.6035 18.3162C76.5647 18.1592 76.6638 18.0022 76.8232 17.9598L79.9982 17.145C80.1532 17.1068 80.3083 17.1916 80.36 17.3444C80.9976 19.165 82.4494 20.0859 84.6809 20.0859C86.9124 20.0859 88.0282 19.5766 88.0282 18.6897C88.0282 17.8027 87.1493 17.3359 84.4095 16.8776C79.184 15.9992 77.2411 14.6284 77.2411 11.8276C77.2411 9.02675 79.912 7.01099 83.8839 7.01099C87.4078 7.01099 90.5311 8.84002 91.4659 11.4032C91.5219 11.556 91.4314 11.7257 91.2763 11.7767L88.1962 12.7867C88.054 12.8334 87.8946 12.7697 87.83 12.6339C87.1967 11.2632 85.7019 10.4272 83.8538 10.4272C82.1521 10.4272 81.0536 10.9746 81.0536 11.8234C81.0536 12.6721 81.8764 13.0116 85.0514 13.576C89.9538 14.412 91.8665 15.8379 91.8665 18.6557C91.8665 21.4735 88.9673 23.502 84.6464 23.502H84.6507Z" fill="white"/>
</g>
<defs>
<clipPath id="clip0_91_396">
<rect width="108" height="28" fill="white" transform="translate(38.9995 2.5)"/>
</clipPath>
</defs>
</svg>
