<svg width="130" height="32" viewBox="0 0 130 32" fill="none" xmlns="http://www.w3.org/2000/svg">
<g clip-path="url(#clip0_65_1165)">
<path fill-rule="evenodd" clip-rule="evenodd" d="M125.191 17.1427C125.054 17.0658 124.879 17.1042 124.794 17.2366C123.986 18.4711 122.594 19.287 121.009 19.287C118.92 19.287 117.16 17.8688 116.639 15.9424H128.856C129.005 15.9424 129.133 15.8313 129.151 15.6818C129.185 15.3785 129.202 15.071 129.202 14.7634C129.202 10.1074 125.319 6.36129 120.616 6.57486C116.417 6.76708 113.008 10.1758 112.816 14.3747C112.598 19.0777 116.349 22.9605 121.005 22.9605C123.935 22.9605 126.506 21.4228 127.955 19.1076C128.044 18.9624 127.997 18.7744 127.852 18.689L125.182 17.1427H125.191ZM121.013 10.2356C122.88 10.2356 124.486 11.3675 125.174 12.9822H116.849C117.54 11.3675 119.142 10.2356 121.009 10.2356H121.013Z" fill="white"/>
<path fill-rule="evenodd" clip-rule="evenodd" d="M64.9278 6.61328C60.4085 6.61328 56.7393 10.2783 56.7393 14.8018C56.7393 19.3254 60.4042 22.9904 64.9278 22.9904C69.4514 22.9904 73.1164 19.3254 73.1164 14.8018C73.1164 10.2783 69.4514 6.61328 64.9278 6.61328ZM64.9278 19.3083C62.4375 19.3083 60.4171 17.2879 60.4171 14.7976C60.4171 12.3073 62.4375 10.2868 64.9278 10.2868C67.4181 10.2868 69.4386 12.3073 69.4386 14.7976C69.4386 17.2879 67.4181 19.3083 64.9278 19.3083Z" fill="white"/>
<path fill-rule="evenodd" clip-rule="evenodd" d="M54.2661 6.83539H50.9899C50.8275 6.83539 50.6909 6.96781 50.6909 7.1344V7.53165V8.17239C50.1057 7.49748 49.1787 7.12159 48.8156 6.99344C47.9912 6.71579 47.107 6.57056 46.1886 6.57056C41.7291 6.58337 38.0642 10.2056 38.0001 14.6651C37.936 19.2571 41.6352 22.9947 46.2143 22.9947C47.1284 22.9947 48.0083 22.8452 48.8285 22.5675C49.2001 22.4351 50.1142 22.0592 50.6951 21.3928V22.0336V22.1873C50.6951 23.5756 50.2124 24.7118 49.2983 25.4722C48.5038 26.13 47.3932 26.4931 46.1673 26.4931C44.3861 26.4931 42.6774 25.7626 41.6736 24.6008C41.5626 24.4726 41.3661 24.4641 41.2422 24.5837L39.068 26.7024C38.9484 26.8177 38.9484 27.0056 39.0637 27.1252C40.9133 29.0175 43.3182 29.9829 46.2143 30.0043H47.1369C51.2291 30.0043 54.5438 26.6895 54.5438 22.5974V21.1536C54.5438 21.1536 54.5438 21.1323 54.5438 21.1194L54.5609 7.1344C54.5609 6.97208 54.4285 6.83539 54.2619 6.83539H54.2661ZM50.6909 14.8317C50.6652 17.2836 48.6704 19.2613 46.2143 19.2613C43.7581 19.2613 41.7377 17.258 41.7377 14.7847C41.7377 12.3115 43.741 10.3082 46.2143 10.3082C48.6875 10.3082 50.6652 12.2859 50.6909 14.7378V14.8317Z" fill="white"/>
<path d="M91.6976 6.86108H88.4384C88.2733 6.86108 88.1394 6.99495 88.1394 7.16009V22.4351C88.1394 22.6003 88.2733 22.7342 88.4384 22.7342H91.6976C91.8627 22.7342 91.9966 22.6003 91.9966 22.4351V7.16009C91.9966 6.99495 91.8627 6.86108 91.6976 6.86108Z" fill="white"/>
<path d="M78.8743 22.7041H75.5468C75.3845 22.7041 75.2478 22.5717 75.2478 22.4051V7.177C75.2478 7.01468 75.3802 6.87799 75.5468 6.87799H78.601C78.7633 6.87799 78.9 7.0104 78.9 7.177V8.98813L79.404 8.38157L79.4425 8.33886C80.583 7.16845 82.1036 6.57471 83.966 6.57471C84.658 6.57471 85.3372 6.66868 86.1104 6.86944C86.2001 6.8908 86.2513 6.9805 86.23 7.06593L85.491 10.2354C85.4739 10.308 85.4055 10.3636 85.3287 10.3636C85.3158 10.3636 85.303 10.3636 85.2902 10.3593C84.6025 10.1927 84.0728 10.1329 83.3296 10.1329C80.647 10.1329 79.1734 11.9739 79.1734 15.3186V22.4051C79.1734 22.5674 79.0409 22.7041 78.8743 22.7041Z" fill="white"/>
<path fill-rule="evenodd" clip-rule="evenodd" d="M102.355 23.0331C104.012 23.0416 105.554 22.559 106.849 21.7217V22.4308C106.849 22.5931 106.981 22.7298 107.148 22.7298H110.381C110.544 22.7298 110.68 22.5974 110.68 22.4308V2.29901C110.68 2.13669 110.548 2 110.381 2H107.143C106.981 2 106.844 2.13242 106.844 2.29901V3.33699V7.91609C105.563 7.08741 104.034 6.60473 102.393 6.60473C97.8186 6.60473 94.1152 10.3466 94.1793 14.9385C94.2434 19.3895 97.8955 23.0117 102.351 23.0331H102.355ZM102.398 10.3423C104.709 10.3423 106.609 12.0894 106.849 14.3362V15.3016C106.609 17.5484 104.709 19.2955 102.398 19.2955C99.9245 19.2955 97.9212 17.2921 97.9212 14.8189C97.9212 12.3457 99.9245 10.3423 102.398 10.3423Z" fill="white"/>
</g>
<g clip-path="url(#clip1_65_1165)">
<path fill-rule="evenodd" clip-rule="evenodd" d="M14.0021 0.51711C6.51666 0.853159 0.421461 6.77443 0.0217761 14.1037C-0.304054 20.1186 3.14106 25.3805 8.25442 27.8264C10.1616 28.7367 12.4294 27.5925 12.7943 25.5464C13.0419 24.1682 12.3251 22.8027 11.0435 22.1901C8.13712 20.7949 6.18648 17.779 6.41673 14.3462C6.68609 10.3306 10.0052 7.06794 14.1063 6.79144C18.9547 6.4639 22.995 10.22 22.995 14.8949C22.995 18.1065 21.0921 20.88 18.3291 22.1987C17.0692 22.8027 16.3784 24.1596 16.6217 25.5124L16.6348 25.5804C16.9953 27.5925 19.224 28.7367 21.0965 27.8477C26.0056 25.5209 29.3943 20.595 29.3943 14.8949C29.3943 6.71913 22.4345 0.13427 14.0021 0.51711Z" fill="white"/>
<path fill-rule="evenodd" clip-rule="evenodd" d="M14.7101 19.9567C11.8558 19.9567 9.53589 17.6852 9.53589 14.8905C9.53589 12.0957 11.8558 9.82422 14.7101 9.82422C17.5643 9.82422 19.8843 12.0957 19.8843 14.8905C19.8843 17.6852 17.5643 19.9567 14.7101 19.9567Z" fill="white"/>
</g>
<defs>
<clipPath id="clip0_65_1165">
<rect width="91.2061" height="28" fill="white" transform="translate(38 2)"/>
</clipPath>
<clipPath id="clip1_65_1165">
<rect width="122.069" height="29.5" fill="white" transform="translate(0 0.5)"/>
</clipPath>
</defs>
</svg>
