<svg width="194" height="32" viewBox="0 0 194 32" fill="none" xmlns="http://www.w3.org/2000/svg">
<path fill-rule="evenodd" clip-rule="evenodd" d="M15.0016 1.01711C7.51617 1.35316 1.42097 7.27443 1.02129 14.6037C0.695458 20.6186 4.14057 25.8805 9.25393 28.3264C11.1611 29.2367 13.4289 28.0925 13.7938 26.0464C14.0415 24.6682 13.3246 23.3027 12.043 22.6901C9.13663 21.2949 7.18599 18.279 7.41625 14.8462C7.6856 10.8306 11.0047 7.56794 15.1058 7.29144C19.9542 6.9639 23.9945 10.72 23.9945 15.3949C23.9945 18.6065 22.0916 21.38 19.3286 22.6987C18.0687 23.3027 17.378 24.6596 17.6212 26.0124L17.6343 26.0804C17.9949 28.0925 20.2235 29.2367 22.096 28.3477C27.0051 26.0209 30.3938 21.095 30.3938 15.3949C30.3938 7.21913 23.4341 0.63427 15.0016 1.01711Z" fill="white"/>
<path fill-rule="evenodd" clip-rule="evenodd" d="M15.7097 20.4567C12.8554 20.4567 10.5355 18.1852 10.5355 15.3905C10.5355 12.5957 12.8554 10.3242 15.7097 10.3242C18.564 10.3242 20.8839 12.5957 20.8839 15.3905C20.8839 18.1852 18.564 20.4567 15.7097 20.4567Z" fill="white"/>
<g clip-path="url(#clip0_91_331)">
<path fill-rule="evenodd" clip-rule="evenodd" d="M66.2075 7.16455C61.6391 7.16455 57.9362 10.8213 57.9362 15.3328C57.9362 19.8443 61.6391 23.5011 66.2075 23.5011C70.7759 23.5011 74.4788 19.8443 74.4788 15.3328C74.4788 10.8213 70.7759 7.16455 66.2075 7.16455ZM66.2075 19.8315C63.6929 19.8315 61.652 17.816 61.652 15.3328C61.652 12.8496 63.6929 10.8341 66.2075 10.8341C68.722 10.8341 70.7629 12.8496 70.7629 15.3328C70.7629 17.816 68.722 19.8315 66.2075 19.8315Z" fill="white"/>
<path fill-rule="evenodd" clip-rule="evenodd" d="M55.4302 7.38554H52.1191C51.9511 7.38554 51.8177 7.51736 51.8177 7.68319V8.07863V8.7207C51.2278 8.04462 50.2934 7.67043 49.9231 7.54287C49.0878 7.26649 48.1965 7.11766 47.2708 7.12191C42.767 7.13467 39.0641 10.7489 38.9995 15.2009C38.9349 19.7804 42.6723 23.5137 47.2966 23.5137C48.2181 23.5137 49.1093 23.3649 49.936 23.0885C50.315 22.9567 51.2364 22.5825 51.822 21.9149V22.5527V22.7058C51.822 24.092 51.3354 25.2231 50.4097 25.9799C49.6088 26.639 48.485 27.0004 47.245 27.0004C45.4452 27.0004 43.7186 26.2733 42.7067 25.1125C42.5948 24.9849 42.3967 24.9764 42.2718 25.0955L40.0759 27.2088C39.9554 27.3236 39.9554 27.5107 40.0716 27.6297C41.9403 29.5177 44.3687 30.4829 47.2966 30.4999H48.231C52.3645 30.4999 55.7143 27.1918 55.7143 23.1098V21.6683C55.7143 21.6683 55.7143 21.647 55.7143 21.6343L55.7316 7.68319C55.7316 7.51736 55.5981 7.38554 55.4302 7.38554ZM51.8177 15.3625C51.7918 17.8074 49.7767 19.7846 47.2966 19.7846C44.8165 19.7846 42.7713 17.7862 42.7713 15.3157C42.7713 12.8452 44.795 10.8467 47.2966 10.8467C49.7983 10.8467 51.7918 12.8197 51.8177 15.2689V15.3625Z" fill="white"/>
<path fill-rule="evenodd" clip-rule="evenodd" d="M132.24 17.6161C132.102 17.5353 131.926 17.5779 131.84 17.7097C131.022 18.9428 129.614 19.7592 128.012 19.7592C125.898 19.7592 124.12 18.3432 123.594 16.417H135.952C136.102 16.417 136.232 16.3065 136.249 16.1577C136.283 15.8558 136.3 15.5496 136.3 15.2392C136.3 10.5874 132.374 6.84558 127.62 7.06244C123.375 7.25378 119.926 10.6597 119.728 14.8565C119.508 19.5551 123.301 23.4287 128.008 23.4287C130.974 23.4287 133.571 21.8895 135.039 19.5806C135.129 19.436 135.086 19.2489 134.936 19.1639L132.236 17.6204L132.24 17.6161ZM128.012 10.7192C129.902 10.7192 131.525 11.8503 132.223 13.4661H123.801C124.498 11.8503 126.122 10.7192 128.012 10.7192Z" fill="white"/>
<path fill-rule="evenodd" clip-rule="evenodd" d="M183.582 23.5394C185.257 23.5479 186.82 23.0674 188.124 22.2297V22.9398C188.124 23.1056 188.258 23.2375 188.426 23.2375H191.698C191.866 23.2375 192 23.1056 192 22.9398V2.82743C192 2.6616 191.866 2.52979 191.698 2.52979H188.421C188.254 2.52979 188.12 2.6616 188.12 2.82743V3.86494V8.44019C186.824 7.61103 185.278 7.13054 183.616 7.13054C178.988 7.13054 175.246 10.8681 175.311 15.4519C175.375 19.8996 179.069 23.5138 183.573 23.5351L183.582 23.5394ZM183.625 10.8639C185.963 10.8639 187.883 12.6115 188.129 14.8523V15.8176C187.883 18.0584 185.963 19.806 183.625 19.806C181.123 19.806 179.095 17.8033 179.095 15.3328C179.095 12.8624 181.123 10.8596 183.625 10.8596V10.8639Z" fill="white"/>
<path d="M99.2411 2.53833H95.9386C95.7722 2.53833 95.6372 2.67159 95.6372 2.83598V22.9398C95.6372 23.1042 95.7722 23.2375 95.9386 23.2375H99.2411C99.4076 23.2375 99.5425 23.1042 99.5425 22.9398V2.83598C99.5425 2.67159 99.4076 2.53833 99.2411 2.53833Z" fill="white"/>
<path fill-rule="evenodd" clip-rule="evenodd" d="M93.3981 15.4263C93.4627 10.8426 89.721 7.10501 85.0924 7.10501C83.4347 7.10501 81.8889 7.5855 80.5886 8.41465V3.83516V2.79765C80.5886 2.63181 80.4551 2.5 80.2872 2.5H77.0105C76.8426 2.5 76.7091 2.63181 76.7091 2.79765V22.91C76.7091 23.0759 76.8426 23.2077 77.0105 23.2077H80.2829C80.4508 23.2077 80.5843 23.0759 80.5843 22.91V22.1999C81.8932 23.0333 83.4519 23.5181 85.1268 23.5096C89.6306 23.4883 93.3292 19.8698 93.3895 15.4263H93.3981ZM89.622 15.3073C89.622 17.7778 87.594 19.7805 85.0924 19.7805C82.7544 19.7805 80.834 18.0329 80.5886 15.792V14.8268C80.834 12.586 82.7544 10.8383 85.0924 10.8383C87.594 10.8383 89.622 12.8411 89.622 15.3115V15.3073Z" fill="white"/>
<path fill-rule="evenodd" clip-rule="evenodd" d="M155.177 15.4263C155.241 10.8426 151.5 7.10501 146.871 7.10501C145.213 7.10501 143.668 7.5855 142.367 8.41465V3.83516V2.79765C142.367 2.63181 142.234 2.5 142.066 2.5H138.789C138.621 2.5 138.488 2.63181 138.488 2.79765V22.91C138.488 23.0759 138.621 23.2077 138.789 23.2077H142.062C142.229 23.2077 142.363 23.0759 142.363 22.91V22.1999C143.672 23.0333 145.231 23.5181 146.906 23.5096C151.409 23.4883 155.108 19.8698 155.168 15.4263H155.177ZM151.401 15.3073C151.401 17.7778 149.373 19.7805 146.871 19.7805C144.533 19.7805 142.613 18.0329 142.367 15.792V14.8268C142.613 12.586 144.533 10.8383 146.871 10.8383C149.373 10.8383 151.401 12.8411 151.401 15.3115V15.3073Z" fill="white"/>
<path d="M161.015 7.38574H157.717C157.551 7.38574 157.416 7.519 157.416 7.68339V22.9441C157.416 23.1085 157.551 23.2418 157.717 23.2418H161.015C161.182 23.2418 161.317 23.1085 161.317 22.9441V7.68339C161.317 7.519 161.182 7.38574 161.015 7.38574Z" fill="white"/>
<path d="M167.22 23.2034H163.857C163.689 23.2034 163.556 23.0716 163.556 22.9058V7.69183C163.556 7.526 163.689 7.39418 163.857 7.39418H166.944C167.112 7.39418 167.246 7.526 167.246 7.69183V9.49897L167.754 8.89517L167.793 8.85265C168.947 7.68333 170.484 7.09229 172.37 7.09229C173.071 7.09229 173.76 7.18583 174.535 7.38993C174.626 7.41119 174.678 7.50049 174.66 7.58553L173.911 10.7491C173.894 10.8214 173.825 10.8766 173.747 10.8766C173.735 10.8766 173.722 10.8766 173.709 10.8724C173.015 10.7066 172.477 10.647 171.724 10.647C169.011 10.647 167.517 12.4882 167.517 15.8303V22.9058C167.517 23.0716 167.384 23.2034 167.216 23.2034H167.22Z" fill="white"/>
<path fill-rule="evenodd" clip-rule="evenodd" d="M109.635 23.4415C105.308 23.4415 101.786 19.9633 101.786 15.69V15.639V7.65354C101.786 7.49622 101.915 7.36865 102.074 7.36865H105.338C105.497 7.36865 105.626 7.49622 105.626 7.65354V16.0344H105.631C105.738 18.1179 107.504 19.7933 109.635 19.7933C111.766 19.7933 113.532 18.1179 113.639 16.0344H113.644V7.65354C113.644 7.49622 113.773 7.36865 113.932 7.36865H117.196C117.355 7.36865 117.484 7.49622 117.484 7.65354V15.6772C117.484 19.9633 113.962 23.4415 109.635 23.4415Z" fill="white"/>
</g>
<defs>
<clipPath id="clip0_91_331">
<rect width="153" height="28" fill="white" transform="translate(38.9995 2.5)"/>
</clipPath>
</defs>
</svg>
