<svg width="123" height="30" viewBox="0 0 123 30" fill="none" xmlns="http://www.w3.org/2000/svg">
<g clip-path="url(#clip0_88_27)">
<path fill-rule="evenodd" clip-rule="evenodd" d="M14.0021 0.51711C6.51666 0.853159 0.421461 6.77443 0.0217761 14.1037C-0.304054 20.1186 3.14106 25.3805 8.25442 27.8264C10.1616 28.7367 12.4294 27.5925 12.7943 25.5464C13.0419 24.1682 12.3251 22.8027 11.0435 22.1901C8.13712 20.7949 6.18648 17.779 6.41673 14.3462C6.68609 10.3306 10.0052 7.06794 14.1063 6.79144C18.9547 6.4639 22.995 10.22 22.995 14.8949C22.995 18.1065 21.0921 20.88 18.3291 22.1987C17.0692 22.8027 16.3784 24.1596 16.6217 25.5124L16.6348 25.5804C16.9953 27.5925 19.224 28.7367 21.0965 27.8477C26.0056 25.5209 29.3943 20.595 29.3943 14.8949C29.3943 6.71913 22.4345 0.13427 14.0021 0.51711Z" fill="white"/>
<path fill-rule="evenodd" clip-rule="evenodd" d="M14.7102 19.9567C11.8559 19.9567 9.53601 17.6852 9.53601 14.8905C9.53601 12.0957 11.8559 9.82422 14.7102 9.82422C17.5645 9.82422 19.8844 12.0957 19.8844 14.8905C19.8844 17.6852 17.5645 19.9567 14.7102 19.9567Z" fill="white"/>
<path fill-rule="evenodd" clip-rule="evenodd" d="M65.2877 6.06372C60.6783 6.06372 56.9421 9.72198 56.9421 14.2352C56.9421 18.7485 60.6783 22.4068 65.2877 22.4068C69.8971 22.4068 73.6333 18.7485 73.6333 14.2352C73.6333 9.72198 69.8971 6.06372 65.2877 6.06372ZM65.2877 18.7357C62.7506 18.7357 60.6914 16.7195 60.6914 14.2352C60.6914 11.751 62.7506 9.73474 65.2877 9.73474C67.8249 9.73474 69.8841 11.751 69.8841 14.2352C69.8841 16.7195 67.8249 18.7357 65.2877 18.7357Z" fill="white"/>
<path fill-rule="evenodd" clip-rule="evenodd" d="M54.4137 6.28506H51.0728C50.9034 6.28506 50.7687 6.41693 50.7687 6.58283V6.97843V7.62075C50.1735 6.9444 49.2308 6.57007 48.8572 6.44245C48.0144 6.16596 47.1151 6.01708 46.181 6.02133C41.6324 6.03409 37.8962 9.64981 37.8354 14.1035C37.7703 18.6848 41.5412 22.4197 46.2071 22.4197C47.1368 22.4197 48.0361 22.2708 48.8702 21.9943C49.2525 21.8624 50.1822 21.4881 50.7731 20.8202V21.4583V21.6115C50.7731 22.9982 50.2821 24.1297 49.3481 24.8869C48.54 25.5462 47.4061 25.9078 46.155 25.9078C44.339 25.9078 42.5969 25.1804 41.576 24.0191C41.463 23.8915 41.2632 23.883 41.1372 24.0021L38.9215 26.1162C38.7999 26.2311 38.7999 26.4182 38.9172 26.5373C40.8027 28.426 43.2529 29.3916 46.2071 29.4086H47.1498C51.3204 29.4086 54.7004 26.0992 54.7004 22.0156V20.5735C54.7004 20.5735 54.7004 20.5523 54.7004 20.5395L54.7178 6.58283C54.7178 6.41693 54.5831 6.28506 54.4137 6.28506ZM50.7687 14.2652C50.7426 16.7111 48.7095 18.6891 46.2071 18.6891C43.7047 18.6891 41.6411 16.6898 41.6411 14.2184C41.6411 11.7469 43.683 9.74764 46.2071 9.74764C48.7312 9.74764 50.7426 11.7214 50.7687 14.1716V14.2652Z" fill="white"/>
<path d="M93.1396 17.7575C93.1396 14.8947 95.0512 13.3718 100.095 12.6997C103.049 12.2913 103.857 11.883 103.857 11.1216C103.857 10.1006 102.754 9.48385 101.051 9.48385C99.1219 9.48385 97.6535 10.458 97.1799 12.0063C97.1365 12.1467 96.9888 12.2318 96.8411 12.202L93.2222 11.4661C93.0571 11.4321 92.9572 11.2747 92.9963 11.113C93.7609 8.05883 96.9366 6 100.929 6C105.556 6 108.423 8.30981 108.423 12.0787V21.8368C108.423 21.9942 108.293 22.1218 108.132 22.1218H104.748C104.587 22.1218 104.457 21.9942 104.457 21.8368V20.2332H104.396C103.44 21.5476 101.411 22.3686 99.0524 22.3686C95.529 22.3686 93.144 20.4969 93.144 17.749L93.1396 17.7575ZM104.353 16.1623V14.2481H104.292C103.888 14.8266 103.019 15.1584 100.781 15.554C98.0792 16.0389 97.1147 16.5579 97.1147 17.5022C97.1147 18.4466 97.9228 18.9017 99.6606 18.9017C102.332 18.9017 104.348 17.7149 104.348 16.1665L104.353 16.1623Z" fill="white"/>
<path d="M114.566 22.1091H111.178C111.008 22.1091 110.874 21.9773 110.874 21.8114V6.60833C110.874 6.44243 111.008 6.31056 111.178 6.31056H114.288C114.458 6.31056 114.592 6.44243 114.592 6.60833V8.41619L115.105 7.81215L115.144 7.76961C116.308 6.60407 117.859 6.00854 119.753 6.00854C120.457 6.00854 121.152 6.10213 121.939 6.30631C122.03 6.32758 122.082 6.41691 122.065 6.50198L121.313 9.6668C121.296 9.73911 121.226 9.79441 121.148 9.79441C121.135 9.79441 121.122 9.79441 121.109 9.79016C120.409 9.62426 119.866 9.56471 119.111 9.56471C116.378 9.56471 114.87 11.4023 114.87 14.7416V21.8156C114.87 21.9815 114.736 22.1134 114.566 22.1134V22.1091Z" fill="white"/>
<path d="M87.8872 16.7279C86.9966 18.0339 85.4326 18.8633 83.6731 18.7272C81.4966 18.5571 79.7024 16.8641 79.4634 14.7372C79.155 12.0105 81.3272 9.70069 84.0511 9.70069C85.6672 9.70069 87.0878 10.5174 87.9089 11.7468C87.9958 11.8744 88.1739 11.9127 88.3086 11.8361L91.0543 10.2835C91.202 10.1984 91.2541 10.0155 91.1629 9.87084C89.5859 7.40364 86.7142 5.81698 83.482 6.02541C79.2028 6.30191 75.7794 9.79001 75.6621 13.9885C75.5317 18.6336 79.3374 22.4365 84.0468 22.4365C87.0314 22.4365 89.651 20.9094 91.1412 18.6081C91.2324 18.4677 91.1803 18.2806 91.0325 18.1955L88.2869 16.6429C88.1522 16.5663 87.9741 16.6003 87.8829 16.7279H87.8872Z" fill="white"/>
</g>
<defs>
<clipPath id="clip0_88_27">
<rect width="122.069" height="29.5" fill="white" transform="translate(0 0.5)"/>
</clipPath>
</defs>
</svg>
