<svg height="222" viewBox="0 0 265 222" width="265" xmlns="http://www.w3.org/2000/svg"><g fill="none" fill-rule="evenodd" opacity=".28"><path d="m264.951932 141.452703-4.934521-3.614397c-3.962854-3.395877-13.088055.744952-20.381444 9.248441-7.293757 8.503858-9.993813 18.149975-6.030591 21.545852l6.408584 4.694118 24.937972-29.076305z" fill="#005209"/><path d="m264.952 143.248-36.284-26.082-5.735 25.036 6.018 4.607 34.664 18.3 1.337-1.004z" fill="#013505"/><path d="m199.935507 123.756506c-6.940792 8.780133-15.912146 13.294358-19.990201 10.050046l-6.603653-4.435499c-4.100507-3.231804-1.781021-12.98387 5.160507-21.763635 6.964347-8.7926415 15.912514-13.294359 20.013389-10.0629227l5.861284 3.9712377c.252855.136851.500556.292095.718813.477138 4.101243 3.231804 1.78691 12.965843-5.160139 21.763635" fill="#013505"/><path d="m220.59406 115.447293c-5.097569-4.680138-16.41675-.652615-25.28284 8.994973-8.86609 9.647589-11.921687 21.262218-6.824486 25.941989l8.215 6.580593 32.106958-34.936594z" fill="#005209"/><path d="m221.984685 147.969948c-8.866459 9.647956-20.186007 13.675112-25.282841 8.994974-5.097201-4.679771-2.041972-16.2944 6.824487-25.941621 8.86609-9.647588 20.18527-13.674744 25.282472-8.995341 5.097569 4.67977 2.041972 16.294399-6.824118 25.941988" fill="#02790d"/><path d="m216.909567 143.310779c-3.990827 4.342794-9.086188 6.155327-11.380646 4.049228-2.29409-2.106835-.919035-7.33511 3.07216-11.677537 3.991194-4.342794 9.086187-6.155695 11.380645-4.04886 2.294459 2.106099.919035 7.334375-3.072159 11.677169" fill="#03aa14"/><path d="m154.42529 100.983304c-6.940791 8.780133-15.912146 13.294359-19.990201 10.050047l-6.603653-4.4355c-4.100507-3.231436-1.781021-12.9835018 5.160507-21.7632671 6.964347-8.7926411 15.912514-13.2943585 20.013389-10.0629222l5.861285 3.9708701c.252854.1368505.500555.2920948.718812.4775051 4.101243 3.2314363 1.78691 12.965476-5.160139 21.7632671" fill="#013505"/><path d="m231.995538 31.8931065c-14.965875-4.647397-29.201896-.3976756-33.664569 2.6251741-4.462674 3.0228497-20.034368 14.2214099-27.399896 11.8647864-7.365896-2.3569914-20.087-6.4297636-27.454368-3.5099196-7.367 2.919844-15.525688 16.2057414-15.525688 16.2057414s-10.81568 16.0151807 1.636007 27.8615733c12.856917 12.2319281 39.665716 33.7413599 62.676917 45.8643969 8.048639 4.58265 15.953736-3.0887 15.953736-3.0887s13.071493-11.255214 22.194118-5.345997c7.280875 4.715455.866403 15.450121-2.020993 19.593158-.65293.936984-.396396 2.220877.560549 2.845165l14.176764 9.245866c.788743.514293 1.821138.425267 2.500569-.226245 3.212021-3.080238 12.603326-11.305612 19.323285-9.214228v-95.6831089c-12.19957-9.0729637-24.790382-16.5015149-32.956431-19.0376626" fill="#4daa31"/><path d="m143.89511 59.4321983c-2.495416 4.4428571-8.129979 6.0250984-12.574618 3.5308887-1.557979-.8744449-2.753055-2.127068-3.550264-3.5879097.126612-.1876175.182188-.2862087.182188-.2862087s4.934153-8.0546787 10.619875-12.9930668c.605819.1894569 1.216792.4458676 1.79059.7677604 4.445007 2.4942097 6.027646 8.1256791 3.532229 12.5685361m62.305954 43.1440527c-2.496153 4.444328-8.124458 6.02473-12.570938 3.529785-4.446479-2.495314-6.027645-8.1208969-3.531493-12.5655934 2.496521-4.4443285 8.124827-6.0243626 12.571306-3.5294171 4.446479 2.4953134 6.027646 8.1208967 3.531125 12.5652255" fill="#bbe27a"/><path d="m166.346131 96.2504861c-.824812-.4627899-1.370639-.8417038-1.53884-.9619998-1.689007-1.2088456-2.077674-3.5581115-.868243-5.2463016 1.212007-1.6889257 3.569403-2.0608499 5.250312-.8670873.584473.4101834 5.948514 4.0139118 8.58048.321525.789111-1.1080472 1.019513-2.1484049.744208-3.3723334-.922715-4.1217-7.203215-8.9935022-10.947076-11.0962903l-.207584-.1250783c-3.552104-2.2984989-12.264347-6.1965293-14.853618-2.7866724-1.007368 1.3236234-1.410757 2.4923703-1.235194 3.5709873.265368 1.6355835 1.834389 3.0276321 2.417757 3.4253078 1.702993 1.1650681 2.166743 3.4941008 1.018777 5.2069386-1.145757 1.7146773-3.471132 2.1973326-5.16934 1.0653734-.48841-.3193177-4.792083-3.2671204-5.675785-8.3857685-.382041-2.2072652-.232611-5.635516 2.649264-9.4309086 6.054146-7.9689633 18.403514-3.1773583 24.84191.9597925 1.718451.9748755 12.584924 7.4333336 14.500285 15.9390301.74384 3.3028046.068458 6.5496917-1.954743 9.3900742-1.819667 2.5571168-4.323549 4.1643738-7.236341 4.6514436-4.181479.697128-8.184083-1.0616945-10.316229-2.2580323" fill="#005209"/><path d="m164.56408 94.9672189c-.824813-.4631578-1.370639-.8417038-1.53884-.9623677-1.689007-1.2088456-2.077674-3.5581115-.868243-5.2463015 1.212006-1.688558 3.569402-2.06085 5.250312-.8667195.584472.4101834 5.948514 4.0135439 8.580479.3215249.789111-1.108415 1.019514-2.1484048.744209-3.3727012-.922716-4.1213321-7.203216-8.9931344-10.947077-11.0959224l-.207583-.1250783c-3.552104-2.2984989-12.264347-6.1968972-14.853618-2.7866724-1.007368 1.3232555-1.410757 2.4920024-1.235195 3.5709873.265368 1.6352156 1.834389 3.0272642 2.417757 3.4249399 1.702993 1.1650681 2.166743 3.4941008 1.018778 5.2073065-1.145757 1.7143094-3.471132 2.1969647-5.16934 1.0650055-.48841-.3189498-4.792084-3.2671204-5.675785-8.3854006-.382042-2.2076331-.232611-5.6355161 2.649264-9.4312765 6.054146-7.9689633 18.403514-3.1769904 24.84191.9597925 1.718451.9752434 12.584923 7.4337014 14.500284 15.9390301.743841 3.3031725.068459 6.5496918-1.954743 9.3900742-1.819666 2.5574847-4.323548 4.1643738-7.23634 4.6514436-4.181479.697128-8.184083-1.0613267-10.316229-2.2576644" fill="#02790d"/><path d="m129.126145 87.7594678c-.065514-.0367877-.130292-.0835082-.18734-.1386898-12.878632-12.2517936-1.879292-28.9011952-1.767403-29.0678438.317632-.5198109 8.387986-13.5529764 15.957417-16.5541214 7.678743-3.0416115 20.44843 1.0440365 28.07859 3.4856397 6.449806 2.0630573 20.338014-7.4572456 25.566979-11.039637l1.02982-.7044855c4.264291-2.8889424 18.863215-7.5922567 34.469875-2.7443665.486937.1489904.773284.679102.620173 1.1761045-.154215.4958989-.682375.7725428-1.177778.61877-14.959618-4.6455575-28.827215-.2240374-32.857055 2.5059818l-1.021722.6974958c-9.254757 6.3433125-20.707542 13.359105-27.193417 11.2839078-7.401965-2.3680277-19.769368-6.3252864-26.820208-3.5312565-6.989375 2.7708536-14.991639 15.6936558-15.071139 15.8238845-.444979.6610759-10.236361 15.5395151 1.481791 26.6884118.376153.357577.391612.952435.033125 1.3280379-.303277.3182141-.774756.3781782-1.141708.1721667" fill="#01660b"/><path d="m133.852641 10.0536149s-1.163792-9.72999303 9.417437-10.04747135c10.58123-.31711043 10.157966 11.10511925 8.253278 12.69140725 0 0 4.536285-.8641444 6.29375 2.7557706 1.726917 3.5559043-.474423 6.657112-.474423 6.657112s3.326854-.0949124 4.895139 2.4456499c1.544361 2.502303.352229 7.2953794-4.600695 7.7213816-4.953292.4256343-28.806604-12.5159296-31.72234-14.5885517-2.396778-1.703273-2.875986-7.3461465 1.597729-9.1027618 3.393104-1.33245244 6.340125 1.4674635 6.340125 1.4674635" fill="#bbe27a"/><path d="m81.0715236 19.3921127s-1.2594861-2.3080637-4.478868-1.8184187c-3.0636945.465733-3.8097431 3.1799334-3.7791945 4.8265533.0702986 3.7769987 6.7184861 5.8753722 11.1973542 7.9741135 4.3699236 2.0472386 9.7354375 5.9496835 13.0218055 4.4377068 5.4921252-2.5269508 3.4766532-8.8106671.9753473-9.9639632-2.7041042-1.2463691-5.0390487-.6294384-5.0390487-.6294384s3.1435625-6.8473047-3.8866666-8.948989c-6.6916181-2.0001502-8.0107292 4.1224357-8.0107292 4.1224357" fill="#d0eaa0"/><path d="m202.007255 195.335285s3.344521-.130229 4.7965 3.634998c1.382417 3.583495-1.169681 6.124793-3.016215 7.148228-4.23816 2.34853-10.69091-3.432665-15.798049-6.887771-4.983472-3.37123-12.643444-6.618853-13.001931-11.112845-.599194-7.509116 7.628688-9.379773 10.460139-7.438116 3.060382 2.098742 3.823361 4.997985 3.823361 4.997985s5.654438-7.763688 12.34716-1.574884c6.370306 5.890455.389035 11.232405.389035 11.232405" fill="#bbe27a"/><path d="m96.0356687 201.638756c-3.4689236 15.602422 11.8745763 23.604127 23.4823123 18.936864 11.607736-4.667998 21.633938-20.338477 21.480827-39.740707-.160841-20.401752-12.71816-33.462509-23.815771-39.345974-10.926834-5.793336-23.7543058-8.26253-37.436771-3.324142-15.8241806 5.711299-21.3715139 18.271742-22.3752014 20.886616-.1023195.267447.0283403.566531.2933403.676159l2.0452847.846854s-6.8274306 7.693423-8.7354306 14.90603c-2.4497777 9.262788-1.7876458 16.19029 4.7939236 20.442587 8.7346945 5.642873 16.2912431-.399515 23.8205556-1.033368 10.0887708-.848694 16.4469305 6.749081 16.4469305 6.749081" fill="#4daa31"/><path d="m59.7103153 160.57586s-.006625.005151-.0077292.005886c-.1402292.158924-6.8403125 7.761849-8.7280694 14.898673-2.4501459 9.262788-1.7880139 16.190658 4.7935555 20.442587 8.7346945 5.642873 16.2916111-.399515 23.8209236-1.033368 10.0884028-.848694 16.4465625 6.748713 16.4465625 6.748713l12.3011527-21.321814z" fill="#013505"/><path d="m59.7095792 160.574095s-6.8473056 7.769573-8.7350625 14.906397c-2.4501459 9.262789-1.7880139 16.190659 4.7935555 20.442587 2.1369306 1.380277 4.2024584 2.058275 6.2149861 2.290038-7.2168333-3.637941-6.7935694-10.707444-4.4961666-18.217296 2.0883472-6.825599 7.7552986-12.976512 10.8182569-15.930569zm60.7039918 22.520616-10.020681-5.508966s-5.559111 6.16011-10.5212358 14.022021c-1.4045 2.225291-2.901382 5.889719-3.9127986 9.942258.0504236.057021.0769236.088291.0769236.088291-2.199132 9.891859 3.1630694 16.726655 10.3405208 19.216819-1.749736-1.170955-3.404514-2.74216-3.99966-4.709201-1.628278-5.38352-.250646-14.021652 5.135479-20.531981 6.819334-8.241928 12.901452-12.519241 12.901452-12.519241" fill="#02790d"/><path d="m112.65853 182.081613s-1.369903 1.94313-1.662139 4.879528c-.244757 2.46294.953264 6.379365 5.20909 7.647806 8.15832 2.430935 10.389104-5.390877 10.930514-8.312193.11925-.644153-.038646-1.308172-.440194-1.825776l-41.7610559-53.84366c-1.2267291-1.581874-3.3202291-2.219773-5.2179236-1.58077-4.0784236 1.373655-11.2904722 4.324033-17.4071875 9.554883-5.5212014 4.721341-9.1568541 10.25753-11.1561319 13.867512-1.1104236 2.004565-.2108958 4.527837 1.9131528 5.391245z" fill="#6cb83d"/><path d="m57.3711382 159.05156c1.0036875-2.614874 6.5510208-15.175317 22.3752014-20.886615 3.1395139-1.133063 6.2333889-1.872129 9.2702153-2.274587l-4.0817362-5.263224c-1.2267291-1.581506-3.3202291-2.220141-5.2175555-1.58077-4.0787917 1.374023-11.2908403 4.324033-17.4075556 9.554516-5.5212014 4.721708-9.1568541 10.258265-11.1565 13.867879-1.1100555 2.004933-.2105277 4.528205 1.9135209 5.391613l4.7755208 1.940922-.1777708-.073575c-.265-.109628-.3956598-.408712-.2933403-.676159" fill="#bbe27a"/><path d="m132.297385 154.475715c-4.411882-5.910688-9.922777-10.233985-15.114201-12.986813-1.406708-.745688-2.845069-1.43509-4.312139-2.061586-7.413007-1.594381-19.0615971-2.611562-29.2379651 3.000042-15.4402987 8.514525-18.7159931 20.249451-18.7159931 20.249451l25.0925556 10.199405s5.4155694-11.563127 20.6556456-17.886942c7.799834-3.236954 15.99091-2.105363 21.632097-.513557" fill="#01660b"/><path d="m83.6331903 142.427358c-15.4402986 8.514525-18.7163611 20.249451-18.7163611 20.249451l25.0929236 10.199405s4.2245416-9.007114 15.6946252-15.469987l-14.0317502-18.091849c-2.7125695.669169-5.4247709 1.6709-8.0394375 3.11298" fill="#03aa14"/><path d="m140.655559 175.443668c-1.540312-.215944-4.79466-.400987-7.223826 1.330613-2.66141 1.89788-2.959167 6.059679-.267577 7.666936 1.934868 1.155503 5.284542.493324 7.697514.647464.097167-1.396463.148327-2.813527.137285-4.253768-.014722-1.858149-.133604-3.654863-.343396-5.391245m-5.725693 30.308584c-.981236.224038-2.493576.322629-4.050083-.537837-1.907632-1.054705-1.962105-5.098047-5.325028-5.770527-3.090195-.617666-5.356681 3.124384-4.852077 6.261644.458966 2.855833 3.150556 7.548111 8.110473 8.410048 2.282312-2.351105 4.352993-5.169783 6.116715-8.363328m-1.399642-15.587376c-4.287111 3.085389-3.284527 11.449453 3.083202 12.216478 1.768875-3.946223 3.082833-8.351188 3.790972-13.08614-1.834021-.598169-4.438382-.883274-6.874174.869662" fill="#005209"/><path d="m16.4724 51.9507096-16.26143056 35.9158842c-.5035 1.1117259-.07876388 2.4246808.98086806 3.0316788l33.3090278 19.0825434c.4416666.253468.9525278.357577 1.457868.297613l22.2618403-2.642832c.7696042-.091234 1.4453542-.552552 1.8108333-1.235701l19.2901598-36.0840039c.6109722-1.1429955.1895486-2.5644743-.9459028-3.1906019l-33.4017778-18.4166853c-1.1777778-.648936-2.5281736-.9149115-3.8638472-.7607708l-22.75025 2.6262778c-.8273889.0956481-1.543625.6180342-1.8873889 1.3765977" fill="#03aa14"/><path d="m55.8910028 72.3229952 23.6707569-3.5485468c-.1240347-.675791-.5380972-1.2919859-1.185875-1.649195l-33.4021458-18.4163175c-1.1774097-.6493038-2.5278056-.9152793-3.8634792-.7611386l-22.750618 2.6262778c-.6312153.0728397-1.1961806.3951004-1.5819028.879963z" fill="#6cb83d"/><g fill="#02790d"><path d="m17.7264389 50.7403557c.0305486-.0125078.0618333-.023912.093118-.0353162-.0312847.0114042-.0625694.0228084-.093118.0353162m.2735389-.0930362c.0283403-.0080933.0566805-.0165545.0853889-.0231763-.0287084.0066218-.0566806.0154509-.0853889.0231763m-.8335354.4232063c.033125-.0261193.0655138-.0526065.099743-.0768864-.0342292.0242799-.066618.0507671-.099743.0768864m.3109333-.2112353c.0231875-.0128757.0482153-.0231763.0717708-.036052-.0235555.0128757-.0485833.0231763-.0717708.036052m-.5186639.3944383c.032757-.0323732.06625-.0636428.1004792-.0941766-.0342292.0305338-.0677222.0618034-.1004792.0941766m-.4863118.6969808-16.26143056 35.9158842c-.5035 1.1120938-.07876388 2.4246808.98086806 3.0316788l33.3090278 19.0829114c.0526319.030166.1093125.051135.1641528.077254l21.0987847-37.8034634-38.9859167-20.8008997c-.1199861.1511977-.2237778.3167426-.3054861.4966347"/><path d="m16.7779229 51.4542221c.0287083-.0364199.0607292-.0695289.0912778-.1041094-.0305486.0345805-.0625695.0676895-.0912778.1041094"/><path d="m21.842 50.172-3.482.402 3.483-.402z"/></g><path d="m17.0593382 51.1596258c.0345972-.0309018.0702986-.060332.1071042-.0890264-.0368056.0286944-.072507.0581246-.1071042.0890264m-.1901375.1904134c.0294444-.0327411.0585208-.0654822.0894375-.0963839-.0309167.0309017-.0599931.0636428-.0894375.0963839m1.2163132-.7260799c.0901736-.0213369.1810833-.0389951.2742014-.0500314-.0931181.0110363-.1843959.0286945-.2742014.0500314m-.8195125.3696801c.0684583-.048192.1383889-.0934409.2112639-.1342753-.072875.0408344-.1428056.0860833-.2112639.1342753m.2832555-.1702905c.0581528-.0297981.1166737-.0577568.1770348-.0831403-.0603611.0253835-.118882.0533422-.1770348.0831403m.2702632-.1181991c.059257-.0220726.11925-.0408344.1803473-.0577567-.0610973.0169223-.1210903.0356841-.1803473.0577567" fill="#6cb83d"/><path d="m53.8965465 53.6151348-23.1580555 5.2632239-5.8749028 11.4652714c-.0828125.162234.0618333.3472764.2396042.3060741l2.8325555-.6607081c.2138403-.0500313.423632.096384.450132.3141675l.3036458 2.4809661c.0165625.1353789.1531111.2207265.2815625.1765812l2.5289097-.8645122c.2127361-.0724719.4398264.0592283.4821528.2795869l.4648542 2.4210021c.0246597.129125.1586319.2056435.2822986.1614982l2.2970347-.8247814c.1939653-.069161.4070694.0327411.4740556.2277162l.8870138 2.5769822c.0599931.1743739.297757.1964466.3886667.0356841l6.4582708-11.4042037 21.789257-5.8194548z" fill="#bbe27a"/><path d="m30.7288111 58.8976355-5.8653333 11.4457739c-.0828125.1626018.0618333.3476442.2396041.3060741l2.8325556-.6607081c.2138403-.0496634.424.0967518.4505.3145353l.3032778 2.4809661c.0165625.1350111.1531111.2207266.2819305.1765813l2.5289098-.8645123c.212368-.0724718.4394583.0592283.4817847.279587l.4648541 2.4210021c.0246598.1287571.159.2052756.2826667.1611303l2.2970347-.8244135c.1935973-.069161.4067014.0327411.4736875.2273483l.8870139 2.57735c.0599931.174374.298125.1960787.3890347.0356841l6.4582709-11.4042037zm-1.8794757 31.1858619-2.5145555.4197483c-.1604723.026855-.3106389-.0868191-.3283056-.2483174l-.2510139-2.2992346c-.019875-.1795242-.2002222-.2950378-.3717361-.2380168l-2.4346875.8155845c-.1597361.0537102-.3308819-.0434095-.3665833-.2078508l-.5583403-2.5530701c-.0390139-.1780527-.2344514-.2737009-.3989722-.1949751l-2.5462084 1.2169389c-.1538472.0735755-.3371389-.0044145-.3905069-.1662806l-.7004097-2.111985c-.0795-.2387525-.4074375-.2634003-.5215347-.0386271l-6.1903264 12.1980834 11.0435069 6.351774 6.8252222-12.5295415c.112625-.207115-.0625694-.4532251-.2955486-.4142301" fill="#87be40"/><path d="m54.7300451 72.2615596c-5.2260208 9.4375304-10.4516736 18.8754287-15.6780625 28.3133274-1.4847361 2.681091-2.9691041 5.362183-4.4538402 8.043274-.5741667 1.036679 1.0150972 1.96557 1.5888958.928523 5.2260208-9.437898 10.4520417-18.8754287 15.6780625-28.3133269 1.4847361-2.6810915 2.9691042-5.362183 4.4538403-8.0436424.5741666-1.0363111-1.0147292-1.9652018-1.5888959-.9281551" fill="#01660b"/><path d="m264.951932 141.691603c-4.459361-1.595485-12.408993 2.512603-18.907382 10.089409-7.293757 8.503489-9.993444 18.149974-6.03059 21.545484 3.962854 3.395877 13.088055-.744952 20.381444-9.248441 1.813778-2.114928 3.342681-4.300121 4.556528-6.442272z" fill="#02790d"/><path d="m256.449996 160.696929c-3.283056 3.827766-7.390556 5.691801-9.174521 4.16327-1.783597-1.528531-.568646-5.870958 2.71441-9.698356 3.283055-3.827765 7.390555-5.692169 9.174521-4.16327 1.783965 1.528531.568645 5.87059-2.71441 9.698356" fill="#03aa14"/><path d="m264.951932 80.1960896c-4.792819 3.7961283-8.174146 7.9299682-8.174146 7.9299682l-5.507215 7.5392823 13.681361 8.7256869z" fill="#bbe27a"/><path d="m264.951932 90.6647807c-1.793903-1.5936455-4.092042-2.8940926-6.221979-3.9064916-5.581931-2.6531328-8.309959 3.4845361-8.309959 3.4845361l-1.307701-.7342836c-.737583-.4138622-1.67134-.1515656-2.085403.585661-.365111.6500396-.209055 1.4678314.369896 1.9379789l1.385361 1.1253374c-.287451 3.0736168 5.346743 7.5532621 5.346743 7.5532621s6.364417 5.107611 10.823042 2.035834z" fill="#02790d"/><path d="m264.951932 59.4321983c-24.748424-20.4499445-43.802292-25.080787-50.699653-25.8367753-6.433979-.7052212-25.039555 11.5531941-30.787847 15.4655718-.831438.5657956-.821868 1.7853097.009937 2.3503696l52.274931 35.5215194c1.624229 1.1036326 3.820417.8987248 5.183694-.5142928 8.399396-8.7039826 17.594528-13.8630972 24.018938-16.7082621z" fill="#bbe27a"/><path d="m195.963451 53.060449 51.694507-1.4545878c.452341-.0128757.889591.1044772 1.272.3458049.988966.6253918 3.044924 1.9383467 4.62241 3.0397721.548403.3825926.298493 1.2397473-.36916 1.2710169l-49.903916 2.3349187c-.845424.0397308-1.680174-.2004932-2.375431-.6835164l-5.291535-3.6743609c-.513805-.3568412-.273465-1.1613894.351125-1.1790475m45.242457-4.5790821-48.976417.7773252c-.932285.0147151-1.303653-1.2033274-.513438-1.6977548 7.862035-4.9203621 18.481174-10.8866 23.01157-10.3995302 4.465618.5032565 14.005618 2.607516 26.891243 9.5758524.836958.4521215.538097 1.7290244-.412958 1.7441074" fill="#d9edae"/></g></svg>